<svg width="1920" height="1141" viewBox="0 0 1920 1141" fill="none" xmlns="http://www.w3.org/2000/svg">
<g opacity="0.5" clip-path="url(#clip0_192_215)">
<path d="M104.317 0.136843L-9.77344 0.136841L-9.77344 114.208L104.317 114.208L104.317 0.136843Z" stroke="black" stroke-opacity="0.5" stroke-width="0.5" stroke-miterlimit="10"/>
<path d="M218.408 0.136843L104.317 0.136841L104.317 114.208L218.408 114.208L218.408 0.136843Z" stroke="black" stroke-opacity="0.5" stroke-width="0.5" stroke-miterlimit="10"/>
<path d="M332.497 0.136843L218.407 0.136841L218.407 114.208L332.497 114.208L332.497 0.136843Z" stroke="black" stroke-opacity="0.5" stroke-width="0.5" stroke-miterlimit="10"/>
<path d="M446.588 0.136843L332.498 0.136841L332.498 114.208L446.588 114.208L446.588 0.136843Z" stroke="black" stroke-opacity="0.5" stroke-width="0.5" stroke-miterlimit="10"/>
<path d="M560.678 0.136843L446.588 0.136841L446.588 114.208L560.678 114.208L560.678 0.136843Z" stroke="black" stroke-opacity="0.5" stroke-width="0.5" stroke-miterlimit="10"/>
<path d="M674.768 0.136843L560.678 0.136841L560.678 114.208L674.768 114.208L674.768 0.136843Z" stroke="black" stroke-opacity="0.5" stroke-width="0.5" stroke-miterlimit="10"/>
<path d="M788.859 0.136843L674.769 0.136841L674.769 114.208L788.859 114.208L788.859 0.136843Z" stroke="black" stroke-opacity="0.5" stroke-width="0.5" stroke-miterlimit="10"/>
<path d="M902.949 0.136843L788.858 0.136841L788.858 114.208L902.949 114.208L902.949 0.136843Z" stroke="black" stroke-opacity="0.5" stroke-width="0.5" stroke-miterlimit="10"/>
<path d="M1017.04 0.136843L902.949 0.136841L902.949 114.208L1017.04 114.208L1017.04 0.136843Z" stroke="black" stroke-opacity="0.5" stroke-width="0.5" stroke-miterlimit="10"/>
<path d="M1131.13 0.136843L1017.04 0.136841L1017.04 114.208L1131.13 114.208L1131.13 0.136843Z" stroke="black" stroke-opacity="0.5" stroke-width="0.5" stroke-miterlimit="10"/>
<path d="M1245.22 0.136843L1131.13 0.136841L1131.13 114.208L1245.22 114.208L1245.22 0.136843Z" stroke="black" stroke-opacity="0.5" stroke-width="0.5" stroke-miterlimit="10"/>
<path d="M1359.31 0.136843L1245.22 0.136841L1245.22 114.208L1359.31 114.208L1359.31 0.136843Z" stroke="black" stroke-opacity="0.5" stroke-width="0.5" stroke-miterlimit="10"/>
<path d="M1473.4 0.136843L1359.31 0.136841L1359.31 114.208L1473.4 114.208L1473.4 0.136843Z" stroke="black" stroke-opacity="0.5" stroke-width="0.5" stroke-miterlimit="10"/>
<path d="M1587.49 0.136843L1473.4 0.136841L1473.4 114.208L1587.49 114.208L1587.49 0.136843Z" stroke="black" stroke-opacity="0.5" stroke-width="0.5" stroke-miterlimit="10"/>
<path d="M1701.58 0.136843L1587.49 0.136841L1587.49 114.208L1701.58 114.208L1701.58 0.136843Z" stroke="black" stroke-opacity="0.5" stroke-width="0.5" stroke-miterlimit="10"/>
<path d="M1815.67 0.136843L1701.58 0.136841L1701.58 114.208L1815.67 114.208L1815.67 0.136843Z" stroke="black" stroke-opacity="0.5" stroke-width="0.5" stroke-miterlimit="10"/>
<path d="M1929.76 0.136843L1815.67 0.136841L1815.67 114.208L1929.76 114.208L1929.76 0.136843Z" stroke="black" stroke-opacity="0.5" stroke-width="0.5" stroke-miterlimit="10"/>
<path d="M104.317 114.208L-9.77344 114.208L-9.77344 228.28L104.317 228.28L104.317 114.208Z" stroke="black" stroke-opacity="0.5" stroke-width="0.5" stroke-miterlimit="10"/>
<path d="M218.408 114.208L104.317 114.208L104.317 228.28L218.408 228.28L218.408 114.208Z" stroke="black" stroke-opacity="0.5" stroke-width="0.5" stroke-miterlimit="10"/>
<path d="M332.497 114.208L218.407 114.208L218.407 228.28L332.497 228.28L332.497 114.208Z" stroke="black" stroke-opacity="0.5" stroke-width="0.5" stroke-miterlimit="10"/>
<path d="M446.588 114.208L332.498 114.208L332.498 228.28L446.588 228.28L446.588 114.208Z" stroke="black" stroke-opacity="0.5" stroke-width="0.5" stroke-miterlimit="10"/>
<path d="M560.678 114.208L446.588 114.208L446.588 228.28L560.678 228.28L560.678 114.208Z" stroke="black" stroke-opacity="0.5" stroke-width="0.5" stroke-miterlimit="10"/>
<path d="M674.768 114.208L560.678 114.208L560.678 228.28L674.768 228.28L674.768 114.208Z" stroke="black" stroke-opacity="0.5" stroke-width="0.5" stroke-miterlimit="10"/>
<path d="M788.859 114.208L674.769 114.208L674.769 228.28L788.859 228.28L788.859 114.208Z" stroke="black" stroke-opacity="0.5" stroke-width="0.5" stroke-miterlimit="10"/>
<path d="M902.949 114.208L788.858 114.208L788.858 228.28L902.949 228.28L902.949 114.208Z" stroke="black" stroke-opacity="0.5" stroke-width="0.5" stroke-miterlimit="10"/>
<path d="M1017.04 114.208L902.949 114.208L902.949 228.28L1017.04 228.28L1017.04 114.208Z" stroke="black" stroke-opacity="0.5" stroke-width="0.5" stroke-miterlimit="10"/>
<path d="M1131.13 114.208L1017.04 114.208L1017.04 228.28L1131.13 228.28L1131.13 114.208Z" stroke="black" stroke-opacity="0.5" stroke-width="0.5" stroke-miterlimit="10"/>
<path d="M1245.22 114.208L1131.13 114.208L1131.13 228.28L1245.22 228.28L1245.22 114.208Z" stroke="black" stroke-opacity="0.5" stroke-width="0.5" stroke-miterlimit="10"/>
<path d="M1359.31 114.208L1245.22 114.208L1245.22 228.28L1359.31 228.28L1359.31 114.208Z" stroke="black" stroke-opacity="0.5" stroke-width="0.5" stroke-miterlimit="10"/>
<path d="M1473.4 114.208L1359.31 114.208L1359.31 228.28L1473.4 228.28L1473.4 114.208Z" stroke="black" stroke-opacity="0.5" stroke-width="0.5" stroke-miterlimit="10"/>
<path d="M1587.49 114.208L1473.4 114.208L1473.4 228.28L1587.49 228.28L1587.49 114.208Z" stroke="black" stroke-opacity="0.5" stroke-width="0.5" stroke-miterlimit="10"/>
<path d="M1701.58 114.208L1587.49 114.208L1587.49 228.28L1701.58 228.28L1701.58 114.208Z" stroke="black" stroke-opacity="0.5" stroke-width="0.5" stroke-miterlimit="10"/>
<path d="M1815.67 114.208L1701.58 114.208L1701.58 228.28L1815.67 228.28L1815.67 114.208Z" stroke="black" stroke-opacity="0.5" stroke-width="0.5" stroke-miterlimit="10"/>
<path d="M1929.76 114.208L1815.67 114.208L1815.67 228.28L1929.76 228.28L1929.76 114.208Z" stroke="black" stroke-opacity="0.5" stroke-width="0.5" stroke-miterlimit="10"/>
<path d="M104.317 228.28L-9.77344 228.28L-9.77344 342.351L104.317 342.351L104.317 228.28Z" stroke="black" stroke-opacity="0.5" stroke-width="0.5" stroke-miterlimit="10"/>
<path d="M218.408 228.28L104.317 228.28L104.317 342.351L218.408 342.351L218.408 228.28Z" stroke="black" stroke-opacity="0.5" stroke-width="0.5" stroke-miterlimit="10"/>
<path d="M332.497 228.28L218.407 228.28L218.407 342.351L332.497 342.351L332.497 228.28Z" stroke="black" stroke-opacity="0.5" stroke-width="0.5" stroke-miterlimit="10"/>
<path d="M446.588 228.28L332.498 228.28L332.498 342.351L446.588 342.351L446.588 228.28Z" stroke="black" stroke-opacity="0.5" stroke-width="0.5" stroke-miterlimit="10"/>
<path d="M560.678 228.28L446.588 228.28L446.588 342.351L560.678 342.351L560.678 228.28Z" stroke="black" stroke-opacity="0.5" stroke-width="0.5" stroke-miterlimit="10"/>
<path d="M674.768 228.28L560.678 228.28L560.678 342.351L674.768 342.351L674.768 228.28Z" stroke="black" stroke-opacity="0.5" stroke-width="0.5" stroke-miterlimit="10"/>
<path d="M788.859 228.28L674.769 228.28L674.769 342.351L788.859 342.351L788.859 228.28Z" stroke="black" stroke-opacity="0.5" stroke-width="0.5" stroke-miterlimit="10"/>
<path d="M902.949 228.28L788.858 228.28L788.858 342.351L902.949 342.351L902.949 228.28Z" stroke="black" stroke-opacity="0.5" stroke-width="0.5" stroke-miterlimit="10"/>
<path d="M1017.04 228.28L902.949 228.28L902.949 342.351L1017.04 342.351L1017.04 228.28Z" stroke="black" stroke-opacity="0.5" stroke-width="0.5" stroke-miterlimit="10"/>
<path d="M1131.13 228.28L1017.04 228.28L1017.04 342.351L1131.13 342.351L1131.13 228.28Z" stroke="black" stroke-opacity="0.5" stroke-width="0.5" stroke-miterlimit="10"/>
<path d="M1245.22 228.28L1131.13 228.28L1131.13 342.351L1245.22 342.351L1245.22 228.28Z" stroke="black" stroke-opacity="0.5" stroke-width="0.5" stroke-miterlimit="10"/>
<path d="M1359.31 228.28L1245.22 228.28L1245.22 342.351L1359.31 342.351L1359.31 228.28Z" stroke="black" stroke-opacity="0.5" stroke-width="0.5" stroke-miterlimit="10"/>
<path d="M1473.4 228.28L1359.31 228.28L1359.31 342.351L1473.4 342.351L1473.4 228.28Z" stroke="black" stroke-opacity="0.5" stroke-width="0.5" stroke-miterlimit="10"/>
<path d="M1587.49 228.28L1473.4 228.28L1473.4 342.351L1587.49 342.351L1587.49 228.28Z" stroke="black" stroke-opacity="0.5" stroke-width="0.5" stroke-miterlimit="10"/>
<path d="M1701.58 228.28L1587.49 228.28L1587.49 342.351L1701.58 342.351L1701.58 228.28Z" stroke="black" stroke-opacity="0.5" stroke-width="0.5" stroke-miterlimit="10"/>
<path d="M1815.67 228.28L1701.58 228.28L1701.58 342.351L1815.67 342.351L1815.67 228.28Z" stroke="black" stroke-opacity="0.5" stroke-width="0.5" stroke-miterlimit="10"/>
<path d="M1929.76 228.28L1815.67 228.28L1815.67 342.351L1929.76 342.351L1929.76 228.28Z" stroke="black" stroke-opacity="0.5" stroke-width="0.5" stroke-miterlimit="10"/>
<path d="M104.317 342.351L-9.77344 342.351L-9.77344 456.423L104.317 456.423L104.317 342.351Z" stroke="black" stroke-opacity="0.5" stroke-width="0.5" stroke-miterlimit="10"/>
<path d="M218.408 342.351L104.317 342.351L104.317 456.423L218.408 456.423L218.408 342.351Z" stroke="black" stroke-opacity="0.5" stroke-width="0.5" stroke-miterlimit="10"/>
<path d="M332.497 342.351L218.407 342.351L218.407 456.423L332.497 456.423L332.497 342.351Z" stroke="black" stroke-opacity="0.5" stroke-width="0.5" stroke-miterlimit="10"/>
<path d="M446.588 342.351L332.498 342.351L332.498 456.423L446.588 456.423L446.588 342.351Z" stroke="black" stroke-opacity="0.5" stroke-width="0.5" stroke-miterlimit="10"/>
<path d="M560.678 342.351L446.588 342.351L446.588 456.423L560.678 456.423L560.678 342.351Z" stroke="black" stroke-opacity="0.5" stroke-width="0.5" stroke-miterlimit="10"/>
<path d="M674.768 342.351L560.678 342.351L560.678 456.423L674.768 456.423L674.768 342.351Z" stroke="black" stroke-opacity="0.5" stroke-width="0.5" stroke-miterlimit="10"/>
<path d="M788.859 342.351L674.769 342.351L674.769 456.423L788.859 456.423L788.859 342.351Z" stroke="black" stroke-opacity="0.5" stroke-width="0.5" stroke-miterlimit="10"/>
<path d="M902.949 342.351L788.858 342.351L788.858 456.423L902.949 456.423L902.949 342.351Z" stroke="black" stroke-opacity="0.5" stroke-width="0.5" stroke-miterlimit="10"/>
<path d="M1017.04 342.351L902.949 342.351L902.949 456.423L1017.04 456.423L1017.04 342.351Z" stroke="black" stroke-opacity="0.5" stroke-width="0.5" stroke-miterlimit="10"/>
<path d="M1131.13 342.351L1017.04 342.351L1017.04 456.423L1131.13 456.423L1131.13 342.351Z" stroke="black" stroke-opacity="0.5" stroke-width="0.5" stroke-miterlimit="10"/>
<path d="M1245.22 342.351L1131.13 342.351L1131.13 456.423L1245.22 456.423L1245.22 342.351Z" stroke="black" stroke-opacity="0.5" stroke-width="0.5" stroke-miterlimit="10"/>
<path d="M1359.31 342.351L1245.22 342.351L1245.22 456.423L1359.31 456.423L1359.31 342.351Z" stroke="black" stroke-opacity="0.5" stroke-width="0.5" stroke-miterlimit="10"/>
<path d="M1473.4 342.351L1359.31 342.351L1359.31 456.423L1473.4 456.423L1473.4 342.351Z" stroke="black" stroke-opacity="0.5" stroke-width="0.5" stroke-miterlimit="10"/>
<path d="M1587.49 342.351L1473.4 342.351L1473.4 456.423L1587.49 456.423L1587.49 342.351Z" stroke="black" stroke-opacity="0.5" stroke-width="0.5" stroke-miterlimit="10"/>
<path d="M1701.58 342.351L1587.49 342.351L1587.49 456.423L1701.58 456.423L1701.58 342.351Z" stroke="black" stroke-opacity="0.5" stroke-width="0.5" stroke-miterlimit="10"/>
<path d="M1815.67 342.351L1701.58 342.351L1701.58 456.423L1815.67 456.423L1815.67 342.351Z" stroke="black" stroke-opacity="0.5" stroke-width="0.5" stroke-miterlimit="10"/>
<path d="M1929.76 342.351L1815.67 342.351L1815.67 456.423L1929.76 456.423L1929.76 342.351Z" stroke="black" stroke-opacity="0.5" stroke-width="0.5" stroke-miterlimit="10"/>
<path d="M104.317 456.423L-9.77344 456.423L-9.77344 570.494L104.317 570.494L104.317 456.423Z" stroke="black" stroke-opacity="0.5" stroke-width="0.5" stroke-miterlimit="10"/>
<path d="M218.408 456.423L104.317 456.423L104.317 570.494L218.408 570.494L218.408 456.423Z" stroke="black" stroke-opacity="0.5" stroke-width="0.5" stroke-miterlimit="10"/>
<path d="M332.497 456.423L218.407 456.423L218.407 570.494L332.497 570.494L332.497 456.423Z" stroke="black" stroke-opacity="0.5" stroke-width="0.5" stroke-miterlimit="10"/>
<path d="M446.588 456.423L332.498 456.423L332.498 570.494L446.588 570.494L446.588 456.423Z" stroke="black" stroke-opacity="0.5" stroke-width="0.5" stroke-miterlimit="10"/>
<path d="M560.678 456.423L446.588 456.423L446.588 570.494L560.678 570.494L560.678 456.423Z" stroke="black" stroke-opacity="0.5" stroke-width="0.5" stroke-miterlimit="10"/>
<path d="M674.768 456.423L560.678 456.423L560.678 570.494L674.768 570.494L674.768 456.423Z" stroke="black" stroke-opacity="0.5" stroke-width="0.5" stroke-miterlimit="10"/>
<path d="M788.859 456.423L674.769 456.423L674.769 570.494L788.859 570.494L788.859 456.423Z" stroke="black" stroke-opacity="0.5" stroke-width="0.5" stroke-miterlimit="10"/>
<path d="M902.949 456.423L788.858 456.423L788.858 570.494L902.949 570.494L902.949 456.423Z" stroke="black" stroke-opacity="0.5" stroke-width="0.5" stroke-miterlimit="10"/>
<path d="M1017.04 456.423L902.949 456.423L902.949 570.494L1017.04 570.494L1017.04 456.423Z" stroke="black" stroke-opacity="0.5" stroke-width="0.5" stroke-miterlimit="10"/>
<path d="M1131.13 456.423L1017.04 456.423L1017.04 570.494L1131.13 570.494L1131.13 456.423Z" stroke="black" stroke-opacity="0.5" stroke-width="0.5" stroke-miterlimit="10"/>
<path d="M1245.22 456.423L1131.13 456.423L1131.13 570.494L1245.22 570.494L1245.22 456.423Z" stroke="black" stroke-opacity="0.5" stroke-width="0.5" stroke-miterlimit="10"/>
<path d="M1359.31 456.423L1245.22 456.423L1245.22 570.494L1359.31 570.494L1359.31 456.423Z" stroke="black" stroke-opacity="0.5" stroke-width="0.5" stroke-miterlimit="10"/>
<path d="M1473.4 456.423L1359.31 456.423L1359.31 570.494L1473.4 570.494L1473.4 456.423Z" stroke="black" stroke-opacity="0.5" stroke-width="0.5" stroke-miterlimit="10"/>
<path d="M1587.49 456.423L1473.4 456.423L1473.4 570.494L1587.49 570.494L1587.49 456.423Z" stroke="black" stroke-opacity="0.5" stroke-width="0.5" stroke-miterlimit="10"/>
<path d="M1701.58 456.423L1587.49 456.423L1587.49 570.494L1701.58 570.494L1701.58 456.423Z" stroke="black" stroke-opacity="0.5" stroke-width="0.5" stroke-miterlimit="10"/>
<path d="M1815.67 456.423L1701.58 456.423L1701.58 570.494L1815.67 570.494L1815.67 456.423Z" stroke="black" stroke-opacity="0.5" stroke-width="0.5" stroke-miterlimit="10"/>
<path d="M1929.76 456.423L1815.67 456.423L1815.67 570.494L1929.76 570.494L1929.76 456.423Z" stroke="black" stroke-opacity="0.5" stroke-width="0.5" stroke-miterlimit="10"/>
<path d="M104.317 570.494L-9.77344 570.494L-9.77344 684.566L104.317 684.566L104.317 570.494Z" stroke="black" stroke-opacity="0.5" stroke-width="0.5" stroke-miterlimit="10"/>
<path d="M218.408 570.494L104.317 570.494L104.317 684.566L218.408 684.566L218.408 570.494Z" stroke="black" stroke-opacity="0.5" stroke-width="0.5" stroke-miterlimit="10"/>
<path d="M332.497 570.494L218.407 570.494L218.407 684.566L332.497 684.566L332.497 570.494Z" stroke="black" stroke-opacity="0.5" stroke-width="0.5" stroke-miterlimit="10"/>
<path d="M446.588 570.494L332.498 570.494L332.498 684.566L446.588 684.566L446.588 570.494Z" stroke="black" stroke-opacity="0.5" stroke-width="0.5" stroke-miterlimit="10"/>
<path d="M560.678 570.494L446.588 570.494L446.588 684.566L560.678 684.566L560.678 570.494Z" stroke="black" stroke-opacity="0.5" stroke-width="0.5" stroke-miterlimit="10"/>
<path d="M674.768 570.494L560.678 570.494L560.678 684.566L674.768 684.566L674.768 570.494Z" stroke="black" stroke-opacity="0.5" stroke-width="0.5" stroke-miterlimit="10"/>
<path d="M788.859 570.494L674.769 570.494L674.769 684.566L788.859 684.566L788.859 570.494Z" stroke="black" stroke-opacity="0.5" stroke-width="0.5" stroke-miterlimit="10"/>
<path d="M902.949 570.494L788.858 570.494L788.858 684.566L902.949 684.566L902.949 570.494Z" stroke="black" stroke-opacity="0.5" stroke-width="0.5" stroke-miterlimit="10"/>
<path d="M1017.04 570.494L902.949 570.494L902.949 684.566L1017.04 684.566L1017.04 570.494Z" stroke="black" stroke-opacity="0.5" stroke-width="0.5" stroke-miterlimit="10"/>
<path d="M1131.13 570.494L1017.04 570.494L1017.04 684.566L1131.13 684.566L1131.13 570.494Z" stroke="black" stroke-opacity="0.5" stroke-width="0.5" stroke-miterlimit="10"/>
<path d="M1245.22 570.494L1131.13 570.494L1131.13 684.566L1245.22 684.566L1245.22 570.494Z" stroke="black" stroke-opacity="0.5" stroke-width="0.5" stroke-miterlimit="10"/>
<path d="M1359.31 570.494L1245.22 570.494L1245.22 684.566L1359.31 684.566L1359.31 570.494Z" stroke="black" stroke-opacity="0.5" stroke-width="0.5" stroke-miterlimit="10"/>
<path d="M1473.4 570.494L1359.31 570.494L1359.31 684.566L1473.4 684.566L1473.4 570.494Z" stroke="black" stroke-opacity="0.5" stroke-width="0.5" stroke-miterlimit="10"/>
<path d="M1587.49 570.494L1473.4 570.494L1473.4 684.566L1587.49 684.566L1587.49 570.494Z" stroke="black" stroke-opacity="0.5" stroke-width="0.5" stroke-miterlimit="10"/>
<path d="M1701.58 570.494L1587.49 570.494L1587.49 684.566L1701.58 684.566L1701.58 570.494Z" stroke="black" stroke-opacity="0.5" stroke-width="0.5" stroke-miterlimit="10"/>
<path d="M1815.67 570.494L1701.58 570.494L1701.58 684.566L1815.67 684.566L1815.67 570.494Z" stroke="black" stroke-opacity="0.5" stroke-width="0.5" stroke-miterlimit="10"/>
<path d="M1929.76 570.494L1815.67 570.494L1815.67 684.566L1929.76 684.566L1929.76 570.494Z" stroke="black" stroke-opacity="0.5" stroke-width="0.5" stroke-miterlimit="10"/>
<path d="M104.317 684.566L-9.77344 684.566L-9.77344 798.637L104.317 798.637L104.317 684.566Z" stroke="black" stroke-opacity="0.5" stroke-width="0.5" stroke-miterlimit="10"/>
<path d="M218.408 684.566L104.317 684.566L104.317 798.637L218.408 798.637L218.408 684.566Z" stroke="black" stroke-opacity="0.5" stroke-width="0.5" stroke-miterlimit="10"/>
<path d="M332.497 684.566L218.407 684.566L218.407 798.637L332.497 798.637L332.497 684.566Z" stroke="black" stroke-opacity="0.5" stroke-width="0.5" stroke-miterlimit="10"/>
<path d="M446.588 684.566L332.498 684.566L332.498 798.637L446.588 798.637L446.588 684.566Z" stroke="black" stroke-opacity="0.5" stroke-width="0.5" stroke-miterlimit="10"/>
<path d="M560.678 684.566L446.588 684.566L446.588 798.637L560.678 798.637L560.678 684.566Z" stroke="black" stroke-opacity="0.5" stroke-width="0.5" stroke-miterlimit="10"/>
<path d="M674.768 684.566L560.678 684.566L560.678 798.637L674.768 798.637L674.768 684.566Z" stroke="black" stroke-opacity="0.5" stroke-width="0.5" stroke-miterlimit="10"/>
<path d="M788.859 684.566L674.769 684.566L674.769 798.637L788.859 798.637L788.859 684.566Z" stroke="black" stroke-opacity="0.5" stroke-width="0.5" stroke-miterlimit="10"/>
<path d="M902.949 684.566L788.858 684.566L788.858 798.637L902.949 798.637L902.949 684.566Z" stroke="black" stroke-opacity="0.5" stroke-width="0.5" stroke-miterlimit="10"/>
<path d="M1017.04 684.566L902.949 684.566L902.949 798.637L1017.04 798.637L1017.04 684.566Z" stroke="black" stroke-opacity="0.5" stroke-width="0.5" stroke-miterlimit="10"/>
<path d="M1131.13 684.566L1017.04 684.566L1017.04 798.637L1131.13 798.637L1131.13 684.566Z" stroke="black" stroke-opacity="0.5" stroke-width="0.5" stroke-miterlimit="10"/>
<path d="M1245.22 684.566L1131.13 684.566L1131.13 798.637L1245.22 798.637L1245.22 684.566Z" stroke="black" stroke-opacity="0.5" stroke-width="0.5" stroke-miterlimit="10"/>
<path d="M1359.31 684.566L1245.22 684.566L1245.22 798.637L1359.31 798.637L1359.31 684.566Z" stroke="black" stroke-opacity="0.5" stroke-width="0.5" stroke-miterlimit="10"/>
<path d="M1473.4 684.566L1359.31 684.566L1359.31 798.637L1473.4 798.637L1473.4 684.566Z" stroke="black" stroke-opacity="0.5" stroke-width="0.5" stroke-miterlimit="10"/>
<path d="M1587.49 684.566L1473.4 684.566L1473.4 798.637L1587.49 798.637L1587.49 684.566Z" stroke="black" stroke-opacity="0.5" stroke-width="0.5" stroke-miterlimit="10"/>
<path d="M1701.58 684.566L1587.49 684.566L1587.49 798.637L1701.58 798.637L1701.58 684.566Z" stroke="black" stroke-opacity="0.5" stroke-width="0.5" stroke-miterlimit="10"/>
<path d="M1815.67 684.566L1701.58 684.566L1701.58 798.637L1815.67 798.637L1815.67 684.566Z" stroke="black" stroke-opacity="0.5" stroke-width="0.5" stroke-miterlimit="10"/>
<path d="M1929.76 684.566L1815.67 684.566L1815.67 798.637L1929.76 798.637L1929.76 684.566Z" stroke="black" stroke-opacity="0.5" stroke-width="0.5" stroke-miterlimit="10"/>
<path d="M104.317 798.637L-9.77344 798.637L-9.77344 912.709L104.317 912.709L104.317 798.637Z" stroke="black" stroke-opacity="0.5" stroke-width="0.5" stroke-miterlimit="10"/>
<path d="M218.408 798.637L104.317 798.637L104.317 912.709L218.408 912.709L218.408 798.637Z" stroke="black" stroke-opacity="0.5" stroke-width="0.5" stroke-miterlimit="10"/>
<path d="M332.497 798.637L218.407 798.637L218.407 912.709L332.497 912.709L332.497 798.637Z" stroke="black" stroke-opacity="0.5" stroke-width="0.5" stroke-miterlimit="10"/>
<path d="M446.588 798.637L332.498 798.637L332.498 912.709L446.588 912.709L446.588 798.637Z" stroke="black" stroke-opacity="0.5" stroke-width="0.5" stroke-miterlimit="10"/>
<path d="M560.678 798.637L446.588 798.637L446.588 912.709L560.678 912.709L560.678 798.637Z" stroke="black" stroke-opacity="0.5" stroke-width="0.5" stroke-miterlimit="10"/>
<path d="M674.768 798.637L560.678 798.637L560.678 912.709L674.768 912.709L674.768 798.637Z" stroke="black" stroke-opacity="0.5" stroke-width="0.5" stroke-miterlimit="10"/>
<path d="M788.859 798.637L674.769 798.637L674.769 912.709L788.859 912.709L788.859 798.637Z" stroke="black" stroke-opacity="0.5" stroke-width="0.5" stroke-miterlimit="10"/>
<path d="M902.949 798.637L788.858 798.637L788.858 912.709L902.949 912.709L902.949 798.637Z" stroke="black" stroke-opacity="0.5" stroke-width="0.5" stroke-miterlimit="10"/>
<path d="M1017.04 798.637L902.949 798.637L902.949 912.709L1017.04 912.709L1017.04 798.637Z" stroke="black" stroke-opacity="0.5" stroke-width="0.5" stroke-miterlimit="10"/>
<path d="M1131.13 798.637L1017.04 798.637L1017.04 912.709L1131.13 912.709L1131.13 798.637Z" stroke="black" stroke-opacity="0.5" stroke-width="0.5" stroke-miterlimit="10"/>
<path d="M1245.22 798.637L1131.13 798.637L1131.13 912.709L1245.22 912.709L1245.22 798.637Z" stroke="black" stroke-opacity="0.5" stroke-width="0.5" stroke-miterlimit="10"/>
<path d="M1359.31 798.637L1245.22 798.637L1245.22 912.709L1359.31 912.709L1359.31 798.637Z" stroke="black" stroke-opacity="0.5" stroke-width="0.5" stroke-miterlimit="10"/>
<path d="M1473.4 798.637L1359.31 798.637L1359.31 912.709L1473.4 912.709L1473.4 798.637Z" stroke="black" stroke-opacity="0.5" stroke-width="0.5" stroke-miterlimit="10"/>
<path d="M1587.49 798.637L1473.4 798.637L1473.4 912.709L1587.49 912.709L1587.49 798.637Z" stroke="black" stroke-opacity="0.5" stroke-width="0.5" stroke-miterlimit="10"/>
<path d="M1701.58 798.637L1587.49 798.637L1587.49 912.709L1701.58 912.709L1701.58 798.637Z" stroke="black" stroke-opacity="0.5" stroke-width="0.5" stroke-miterlimit="10"/>
<path d="M1815.67 798.637L1701.58 798.637L1701.58 912.709L1815.67 912.709L1815.67 798.637Z" stroke="black" stroke-opacity="0.5" stroke-width="0.5" stroke-miterlimit="10"/>
<path d="M1929.76 798.637L1815.67 798.637L1815.67 912.709L1929.76 912.709L1929.76 798.637Z" stroke="black" stroke-opacity="0.5" stroke-width="0.5" stroke-miterlimit="10"/>
<path d="M104.317 912.709L-9.77344 912.709L-9.77344 1026.78L104.317 1026.78L104.317 912.709Z" stroke="black" stroke-opacity="0.5" stroke-width="0.5" stroke-miterlimit="10"/>
<path d="M218.408 912.709L104.317 912.709L104.317 1026.78L218.408 1026.78L218.408 912.709Z" stroke="black" stroke-opacity="0.5" stroke-width="0.5" stroke-miterlimit="10"/>
<path d="M332.497 912.709L218.407 912.709L218.407 1026.78L332.497 1026.78L332.497 912.709Z" stroke="black" stroke-opacity="0.5" stroke-width="0.5" stroke-miterlimit="10"/>
<path d="M446.588 912.709L332.498 912.709L332.498 1026.78L446.588 1026.78L446.588 912.709Z" stroke="black" stroke-opacity="0.5" stroke-width="0.5" stroke-miterlimit="10"/>
<path d="M560.678 912.709L446.588 912.709L446.588 1026.78L560.678 1026.78L560.678 912.709Z" stroke="black" stroke-opacity="0.5" stroke-width="0.5" stroke-miterlimit="10"/>
<path d="M674.768 912.709L560.678 912.709L560.678 1026.78L674.768 1026.78L674.768 912.709Z" stroke="black" stroke-opacity="0.5" stroke-width="0.5" stroke-miterlimit="10"/>
<path d="M788.859 912.709L674.769 912.709L674.769 1026.78L788.859 1026.78L788.859 912.709Z" stroke="black" stroke-opacity="0.5" stroke-width="0.5" stroke-miterlimit="10"/>
<path d="M902.949 912.709L788.858 912.709L788.858 1026.78L902.949 1026.78L902.949 912.709Z" stroke="black" stroke-opacity="0.5" stroke-width="0.5" stroke-miterlimit="10"/>
<path d="M1017.04 912.709L902.949 912.709L902.949 1026.78L1017.04 1026.78L1017.04 912.709Z" stroke="black" stroke-opacity="0.5" stroke-width="0.5" stroke-miterlimit="10"/>
<path d="M1131.13 912.709L1017.04 912.709L1017.04 1026.78L1131.13 1026.78L1131.13 912.709Z" stroke="black" stroke-opacity="0.5" stroke-width="0.5" stroke-miterlimit="10"/>
<path d="M1245.22 912.709L1131.13 912.709L1131.13 1026.78L1245.22 1026.78L1245.22 912.709Z" stroke="black" stroke-opacity="0.5" stroke-width="0.5" stroke-miterlimit="10"/>
<path d="M1359.31 912.709L1245.22 912.709L1245.22 1026.78L1359.31 1026.78L1359.31 912.709Z" stroke="black" stroke-opacity="0.5" stroke-width="0.5" stroke-miterlimit="10"/>
<path d="M1473.4 912.709L1359.31 912.709L1359.31 1026.78L1473.4 1026.78L1473.4 912.709Z" stroke="black" stroke-opacity="0.5" stroke-width="0.5" stroke-miterlimit="10"/>
<path d="M1587.49 912.709L1473.4 912.709L1473.4 1026.78L1587.49 1026.78L1587.49 912.709Z" stroke="black" stroke-opacity="0.5" stroke-width="0.5" stroke-miterlimit="10"/>
<path d="M1701.58 912.709L1587.49 912.709L1587.49 1026.78L1701.58 1026.78L1701.58 912.709Z" stroke="black" stroke-opacity="0.5" stroke-width="0.5" stroke-miterlimit="10"/>
<path d="M1815.67 912.709L1701.58 912.709L1701.58 1026.78L1815.67 1026.78L1815.67 912.709Z" stroke="black" stroke-opacity="0.5" stroke-width="0.5" stroke-miterlimit="10"/>
<path d="M1929.76 912.709L1815.67 912.709L1815.67 1026.78L1929.76 1026.78L1929.76 912.709Z" stroke="black" stroke-opacity="0.5" stroke-width="0.5" stroke-miterlimit="10"/>
<path d="M104.317 1026.78L-9.77344 1026.78L-9.77344 1140.85L104.317 1140.85L104.317 1026.78Z" stroke="black" stroke-opacity="0.5" stroke-width="0.5" stroke-miterlimit="10"/>
<path d="M218.408 1026.78L104.317 1026.78L104.317 1140.85L218.408 1140.85L218.408 1026.78Z" stroke="black" stroke-opacity="0.5" stroke-width="0.5" stroke-miterlimit="10"/>
<path d="M332.497 1026.78L218.407 1026.78L218.407 1140.85L332.497 1140.85L332.497 1026.78Z" stroke="black" stroke-opacity="0.5" stroke-width="0.5" stroke-miterlimit="10"/>
<path d="M446.588 1026.78L332.498 1026.78L332.498 1140.85L446.588 1140.85L446.588 1026.78Z" stroke="black" stroke-opacity="0.5" stroke-width="0.5" stroke-miterlimit="10"/>
<path d="M560.678 1026.78L446.588 1026.78L446.588 1140.85L560.678 1140.85L560.678 1026.78Z" stroke="black" stroke-opacity="0.5" stroke-width="0.5" stroke-miterlimit="10"/>
<path d="M674.768 1026.78L560.678 1026.78L560.678 1140.85L674.768 1140.85L674.768 1026.78Z" stroke="black" stroke-opacity="0.5" stroke-width="0.5" stroke-miterlimit="10"/>
<path d="M788.859 1026.78L674.769 1026.78L674.769 1140.85L788.859 1140.85L788.859 1026.78Z" stroke="black" stroke-opacity="0.5" stroke-width="0.5" stroke-miterlimit="10"/>
<path d="M902.949 1026.78L788.858 1026.78L788.858 1140.85L902.949 1140.85L902.949 1026.78Z" stroke="black" stroke-opacity="0.5" stroke-width="0.5" stroke-miterlimit="10"/>
<path d="M1017.04 1026.78L902.949 1026.78L902.949 1140.85L1017.04 1140.85L1017.04 1026.78Z" stroke="black" stroke-opacity="0.5" stroke-width="0.5" stroke-miterlimit="10"/>
<path d="M1131.13 1026.78L1017.04 1026.78L1017.04 1140.85L1131.13 1140.85L1131.13 1026.78Z" stroke="black" stroke-opacity="0.5" stroke-width="0.5" stroke-miterlimit="10"/>
<path d="M1245.22 1026.78L1131.13 1026.78L1131.13 1140.85L1245.22 1140.85L1245.22 1026.78Z" stroke="black" stroke-opacity="0.5" stroke-width="0.5" stroke-miterlimit="10"/>
<path d="M1359.31 1026.78L1245.22 1026.78L1245.22 1140.85L1359.31 1140.85L1359.31 1026.78Z" stroke="black" stroke-opacity="0.5" stroke-width="0.5" stroke-miterlimit="10"/>
<path d="M1473.4 1026.78L1359.31 1026.78L1359.31 1140.85L1473.4 1140.85L1473.4 1026.78Z" stroke="black" stroke-opacity="0.5" stroke-width="0.5" stroke-miterlimit="10"/>
<path d="M1587.49 1026.78L1473.4 1026.78L1473.4 1140.85L1587.49 1140.85L1587.49 1026.78Z" stroke="black" stroke-opacity="0.5" stroke-width="0.5" stroke-miterlimit="10"/>
<path d="M1701.58 1026.78L1587.49 1026.78L1587.49 1140.85L1701.58 1140.85L1701.58 1026.78Z" stroke="black" stroke-opacity="0.5" stroke-width="0.5" stroke-miterlimit="10"/>
<path d="M1815.67 1026.78L1701.58 1026.78L1701.58 1140.85L1815.67 1140.85L1815.67 1026.78Z" stroke="black" stroke-opacity="0.5" stroke-width="0.5" stroke-miterlimit="10"/>
<path d="M1929.76 1026.78L1815.67 1026.78L1815.67 1140.85L1929.76 1140.85L1929.76 1026.78Z" stroke="black" stroke-opacity="0.5" stroke-width="0.5" stroke-miterlimit="10"/>
<rect x="-124" width="2168" height="1141" fill="url(#paint0_linear_192_215)"/>
</g>
<defs>
<linearGradient id="paint0_linear_192_215" x1="960" y1="1114.5" x2="960" y2="29" gradientUnits="userSpaceOnUse">
<stop stop-color="#F7F7F7" stop-opacity="0.2"/>
<stop offset="0.615385" stop-color="#F7F7F7"/>
</linearGradient>
<clipPath id="clip0_192_215">
<rect width="2168" height="1141" fill="white" transform="translate(-124)"/>
</clipPath>
</defs>
</svg>
