<svg width="20" height="22" viewBox="0 0 20 22" fill="none" xmlns="http://www.w3.org/2000/svg">
<path d="M2.22222 22C1.61111 22 1.08796 21.7846 0.652778 21.3538C0.217593 20.9229 0 20.405 0 19.8V4.4C0 3.795 0.217593 3.27708 0.652778 2.84625C1.08796 2.41542 1.61111 2.2 2.22222 2.2H6.88889C7.12963 1.54 7.53241 1.00833 8.09722 0.605C8.66204 0.201667 9.2963 0 10 0C10.7037 0 11.338 0.201667 11.9028 0.605C12.4676 1.00833 12.8704 1.54 13.1111 2.2H17.7778C18.3889 2.2 18.912 2.41542 19.3472 2.84625C19.7824 3.27708 20 3.795 20 4.4V19.8C20 20.405 19.7824 20.9229 19.3472 21.3538C18.912 21.7846 18.3889 22 17.7778 22H2.22222ZM2.22222 19.8H17.7778V4.4H2.22222V19.8ZM5.55556 17.6H11.1111C11.4259 17.6 11.6898 17.4946 11.9028 17.2838C12.1157 17.0729 12.2222 16.8117 12.2222 16.5C12.2222 16.1883 12.1157 15.9271 11.9028 15.7162C11.6898 15.5054 11.4259 15.4 11.1111 15.4H5.55556C5.24074 15.4 4.97685 15.5054 4.76389 15.7162C4.55093 15.9271 4.44444 16.1883 4.44444 16.5C4.44444 16.8117 4.55093 17.0729 4.76389 17.2838C4.97685 17.4946 5.24074 17.6 5.55556 17.6ZM5.55556 13.2H14.4444C14.7593 13.2 15.0231 13.0946 15.2361 12.8837C15.4491 12.6729 15.5556 12.4117 15.5556 12.1C15.5556 11.7883 15.4491 11.5271 15.2361 11.3162C15.0231 11.1054 14.7593 11 14.4444 11H5.55556C5.24074 11 4.97685 11.1054 4.76389 11.3162C4.55093 11.5271 4.44444 11.7883 4.44444 12.1C4.44444 12.4117 4.55093 12.6729 4.76389 12.8837C4.97685 13.0946 5.24074 13.2 5.55556 13.2ZM5.55556 8.8H14.4444C14.7593 8.8 15.0231 8.69458 15.2361 8.48375C15.4491 8.27292 15.5556 8.01167 15.5556 7.7C15.5556 7.38833 15.4491 7.12708 15.2361 6.91625C15.0231 6.70542 14.7593 6.6 14.4444 6.6H5.55556C5.24074 6.6 4.97685 6.70542 4.76389 6.91625C4.55093 7.12708 4.44444 7.38833 4.44444 7.7C4.44444 8.01167 4.55093 8.27292 4.76389 8.48375C4.97685 8.69458 5.24074 8.8 5.55556 8.8ZM10 3.575C10.2407 3.575 10.4398 3.49708 10.5972 3.34125C10.7546 3.18542 10.8333 2.98833 10.8333 2.75C10.8333 2.51167 10.7546 2.31458 10.5972 2.15875C10.4398 2.00292 10.2407 1.925 10 1.925C9.75926 1.925 9.56019 2.00292 9.40278 2.15875C9.24537 2.31458 9.16667 2.51167 9.16667 2.75C9.16667 2.98833 9.24537 3.18542 9.40278 3.34125C9.56019 3.49708 9.75926 3.575 10 3.575Z" fill="white"/>
</svg>
