<svg width="20" height="20" viewBox="0 0 20 20" fill="none" xmlns="http://www.w3.org/2000/svg">
<path d="M11 10.175L13.25 12.425C13.4333 12.6083 13.525 12.8375 13.525 13.1125C13.525 13.3875 13.4333 13.625 13.25 13.825C13.05 14.025 12.8125 14.125 12.5375 14.125C12.2625 14.125 12.025 14.025 11.825 13.825L9.3 11.3C9.2 11.2 9.125 11.0875 9.075 10.9625C9.025 10.8375 9 10.7083 9 10.575V7C9 6.71667 9.09583 6.47917 9.2875 6.2875C9.47917 6.09583 9.71667 6 10 6C10.2833 6 10.5208 6.09583 10.7125 6.2875C10.9042 6.47917 11 6.71667 11 7V10.175ZM10 4C9.71667 4 9.47917 3.90417 9.2875 3.7125C9.09583 3.52083 9 3.28333 9 3V2H11V3C11 3.28333 10.9042 3.52083 10.7125 3.7125C10.5208 3.90417 10.2833 4 10 4ZM16 10C16 9.71667 16.0958 9.47917 16.2875 9.2875C16.4792 9.09583 16.7167 9 17 9H18V11H17C16.7167 11 16.4792 10.9042 16.2875 10.7125C16.0958 10.5208 16 10.2833 16 10ZM10 16C10.2833 16 10.5208 16.0958 10.7125 16.2875C10.9042 16.4792 11 16.7167 11 17V18H9V17C9 16.7167 9.09583 16.4792 9.2875 16.2875C9.47917 16.0958 9.71667 16 10 16ZM4 10C4 10.2833 3.90417 10.5208 3.7125 10.7125C3.52083 10.9042 3.28333 11 3 11H2V9H3C3.28333 9 3.52083 9.09583 3.7125 9.2875C3.90417 9.47917 4 9.71667 4 10ZM10 20C8.61667 20 7.31667 19.7375 6.1 19.2125C4.88333 18.6875 3.825 17.975 2.925 17.075C2.025 16.175 1.3125 15.1167 0.7875 13.9C0.2625 12.6833 0 11.3833 0 10C0 8.61667 0.2625 7.31667 0.7875 6.1C1.3125 4.88333 2.025 3.825 2.925 2.925C3.825 2.025 4.88333 1.3125 6.1 0.7875C7.31667 0.2625 8.61667 0 10 0C11.3833 0 12.6833 0.2625 13.9 0.7875C15.1167 1.3125 16.175 2.025 17.075 2.925C17.975 3.825 18.6875 4.88333 19.2125 6.1C19.7375 7.31667 20 8.61667 20 10C20 11.3833 19.7375 12.6833 19.2125 13.9C18.6875 15.1167 17.975 16.175 17.075 17.075C16.175 17.975 15.1167 18.6875 13.9 19.2125C12.6833 19.7375 11.3833 20 10 20ZM18 10C18 7.76667 17.225 5.875 15.675 4.325C14.125 2.775 12.2333 2 10 2C7.76667 2 5.875 2.775 4.325 4.325C2.775 5.875 2 7.76667 2 10C2 12.2333 2.775 14.125 4.325 15.675C5.875 17.225 7.76667 18 10 18C12.2333 18 14.125 17.225 15.675 15.675C17.225 14.125 18 12.2333 18 10Z" fill="#E76F51"/>
</svg>
