<svg width="323" height="435" viewBox="0 0 323 435" fill="none" xmlns="http://www.w3.org/2000/svg">
<path d="M53.0408 332.254C76.498 253.134 99.1117 173.752 120.832 94.1149C127.011 71.4569 133.126 48.7769 139.168 26.0765C140.668 20.4234 132.359 16.8702 130.845 22.5768C109.607 102.351 87.5194 181.885 64.5369 261.155C58.0009 283.709 51.3914 306.243 44.7183 328.754C43.0522 334.38 51.3604 337.923 53.0408 332.254Z" fill="#264653"/>
<path d="M131.408 25.077C150.259 64.6863 172.924 102.204 195.965 139.369C219.006 176.533 241.483 213.417 262.558 251.564C273.536 271.426 285.305 290.793 301.695 306.509C305.923 310.561 311.308 303.188 307.116 299.172C292.584 285.235 281.878 267.811 272.098 250.225C262.055 232.18 252.158 214.104 241.582 196.373C219.446 159.255 195.806 123.104 174.005 85.7734C161.742 64.7837 150.123 43.403 139.663 21.4234C137.144 16.1265 128.85 19.7236 131.397 25.0683L131.408 25.077Z" fill="#264653"/>
<path d="M43.5022 336.122C41.4135 359.673 53.3248 382.158 71.3504 396.319C90.6427 411.477 115.512 417.335 139.391 418.814C165.051 420.4 190.794 417.041 215.303 409.151C239.812 401.262 263.009 389.379 281.808 372.343C301.746 354.257 315.052 327.601 307.08 300.168C305.44 294.508 297.179 298.194 298.814 303.813C305.341 326.281 293.413 349.056 277.474 363.961C261.535 378.865 239.707 390.718 218.459 398.391C196.694 406.261 173.397 410.304 150.301 410.045C128.842 409.8 106.573 406.502 87.4367 396.039C66.6625 384.674 50.2027 362.301 52.4178 337.308C52.9379 331.423 44.0182 330.206 43.491 336.113L43.5022 336.122Z" fill="#264653"/>
<path d="M183.534 334.495C223.014 328.962 262.463 323.195 301.882 317.206C307.61 316.338 306.377 307.225 300.639 308.094C261.221 314.083 221.772 319.85 182.291 325.384C176.555 326.191 177.788 335.304 183.534 334.495Z" fill="#264653"/>
<path d="M134.322 58.5046L135.948 75.0961C136.53 80.9891 145.442 79.7086 144.862 73.8257L143.235 57.2342C142.654 51.3412 133.741 52.6217 134.322 58.5046Z" fill="#264653"/>
<path d="M139.758 98.3638C141.949 106.732 142.442 115.011 141.147 123.576C140.261 129.441 149.185 130.615 150.074 124.771C151.481 115.467 151.053 106.188 148.672 97.0935C147.195 91.4518 138.262 92.6527 139.758 98.3638Z" fill="#264653"/>
<path d="M145.41 141.733L147.642 168.755C148.124 174.662 157.045 173.37 156.555 167.485L154.324 140.462C153.841 134.555 144.92 135.847 145.41 141.733Z" fill="#264653"/>
<path d="M151.088 189.804L155.623 204.619C157.351 210.256 165.603 206.582 163.89 200.974L159.355 186.159C157.627 180.522 149.374 184.196 151.088 189.804Z" fill="#264653"/>
<path d="M156.5 232L159.876 256.754C160.675 262.615 169.59 261.355 168.789 255.483L165.413 230.729C164.614 224.867 155.699 226.127 156.5 232Z" fill="#264653"/>
<path d="M164.387 280.654L166.739 292.941C167.852 298.728 176.771 297.498 175.653 291.671L173.301 279.384C172.189 273.597 163.269 274.827 164.387 280.654Z" fill="#264653"/>
<path d="M168.544 311.644L170.084 332.418C170.526 338.321 179.437 337.03 178.998 331.148L177.457 310.374C177.016 304.471 168.105 305.762 168.544 311.644Z" fill="#264653"/>
<path d="M174.668 311.69C178.302 311.389 181.937 311.098 185.571 310.797C187.719 310.625 193.604 309.136 195.369 310.236C197.135 311.337 195.95 315.304 196.043 317.396C196.173 320.35 196.912 322.66 198.702 324.974C202.293 329.613 209.375 323.939 205.771 319.281C203.76 316.678 205.584 311.175 204.656 307.922C203.797 304.886 201.999 302.51 199.034 301.426C195.592 300.172 191.498 301.096 187.953 301.385L173.415 302.579C167.633 303.052 168.896 312.162 174.658 311.691L174.668 311.69Z" fill="#264653"/>
<path d="M65.7251 332.645C69.521 327.016 74.4652 322.699 80.5628 319.879C85.8232 317.436 82.2859 308.972 76.9971 311.428C69.5427 314.885 63.2007 320.206 58.5478 327.103C55.2635 331.968 62.4336 337.531 65.7251 332.645Z" fill="#264653"/>
<path d="M91.6857 306.528C95.4119 302.312 100.057 299.503 105.322 297.762C110.82 295.946 107.236 287.509 101.757 289.311C94.9935 291.545 89.2468 295.605 84.507 300.976C80.6246 305.379 87.8288 310.896 91.6843 306.518L91.6857 306.528Z" fill="#264653"/>
<path d="M125.809 286.658L128.315 284.897C129.208 284.264 129.857 282.954 129.993 281.881C130.141 280.746 129.805 279.318 129.069 278.432C128.332 277.546 127.293 276.817 126.119 276.716C124.872 276.605 123.786 276.935 122.744 277.661L120.238 279.422C119.345 280.055 118.695 281.365 118.559 282.438C118.411 283.573 118.747 285.001 119.484 285.887C120.221 286.773 121.259 287.502 122.434 287.603C123.681 287.715 124.767 287.384 125.809 286.658Z" fill="#264653"/>
<path d="M132.804 283.019C135.436 282.179 138.068 281.34 140.69 280.502C143.012 279.758 143.929 276.562 143.035 274.45C141.989 271.967 139.446 271.307 137.114 272.052C134.482 272.892 131.851 273.732 129.229 274.57C126.907 275.313 125.99 278.509 126.884 280.622C127.929 283.105 130.473 283.764 132.804 283.019Z" fill="#264653"/>
<path d="M161.173 276.189C168.292 274.792 175.422 273.395 182.541 271.998C188.206 270.891 187.002 261.764 181.299 262.886C174.179 264.283 167.05 265.681 159.93 267.077C154.265 268.184 155.47 277.311 161.173 276.189Z" fill="#264653"/>
<path d="M205.191 274.612C212.508 274.291 219.492 275.897 226.113 279.061C231.374 281.583 234.775 273.058 229.537 270.554C221.435 266.672 212.861 265.107 203.949 265.5C198.168 265.756 199.45 274.862 205.191 274.612Z" fill="#264653"/>
<path d="M245.64 283.431C252.687 283.944 259.162 285.963 265.32 289.513C270.361 292.417 273.73 283.876 268.744 281.005C261.994 277.116 254.539 274.866 246.809 274.306C241.047 273.888 239.859 283.016 245.64 283.431Z" fill="#264653"/>
<path d="M280.142 298.908C284.332 302.46 288.522 306.012 292.712 309.564C297.177 313.356 302.585 306 298.133 302.227C293.943 298.676 289.753 295.124 285.563 291.572C281.098 287.78 275.69 295.136 280.142 298.908Z" fill="#264653"/>
</svg>
