<svg width="22" height="18" viewBox="0 0 22 18" fill="none" xmlns="http://www.w3.org/2000/svg">
<path d="M2.2 18C1.595 18 1.07708 17.7797 0.64625 17.3391C0.215417 16.8984 0 16.3687 0 15.75V2.25C0 1.63125 0.215417 1.10156 0.64625 0.660937C1.07708 0.220312 1.595 0 2.2 0H19.8C20.405 0 20.9229 0.220312 21.3538 0.660937C21.7846 1.10156 22 1.63125 22 2.25V15.75C22 16.3687 21.7846 16.8984 21.3538 17.3391C20.9229 17.7797 20.405 18 19.8 18H2.2ZM19.8 4.5L11.5775 9.75937C11.4858 9.81563 11.3896 9.85781 11.2887 9.88594C11.1879 9.91406 11.0917 9.92812 11 9.92812C10.9083 9.92812 10.8121 9.91406 10.7113 9.88594C10.6104 9.85781 10.5142 9.81563 10.4225 9.75937L2.2 4.5V15.75H19.8V4.5ZM11 7.875L19.8 2.25H2.2L11 7.875ZM2.2 4.78125V3.12187V3.15V3.13594V4.78125Z" fill="#F7F7F7"/>
</svg>
