<svg width="22" height="22" viewBox="0 0 22 22" fill="none" xmlns="http://www.w3.org/2000/svg">
<path d="M11 0C8.01488 0 7.6395 0.01375 6.46663 0.066C5.29375 0.121 4.49487 0.30525 3.795 0.5775C3.06054 0.852948 2.39544 1.28617 1.84663 1.84663C1.28617 2.39544 0.852948 3.06054 0.5775 3.795C0.30525 4.4935 0.119625 5.29375 0.066 6.4625C0.01375 7.63812 0 8.01213 0 11.0014C0 13.9879 0.01375 14.3619 0.066 15.5347C0.121 16.7063 0.30525 17.5051 0.5775 18.205C0.859375 18.9282 1.23475 19.5415 1.84663 20.1534C2.45713 20.7652 3.07037 21.142 3.79363 21.4225C4.49487 21.6947 5.29238 21.8804 6.46388 21.934C7.63813 21.9862 8.01213 22 11 22C13.9879 22 14.3605 21.9862 15.5347 21.934C16.7049 21.879 17.5065 21.6947 18.2064 21.4225C18.9403 21.1469 19.605 20.7137 20.1534 20.1534C20.7652 19.5415 21.1406 18.9282 21.4225 18.205C21.6934 17.5051 21.879 16.7063 21.934 15.5347C21.9862 14.3619 22 13.9879 22 11C22 8.01213 21.9862 7.63813 21.934 6.46388C21.879 5.29375 21.6934 4.4935 21.4225 3.795C21.1471 3.06054 20.7138 2.39544 20.1534 1.84663C19.6046 1.28617 18.9395 0.852948 18.205 0.5775C17.5037 0.30525 16.7035 0.119625 15.5334 0.066C14.3591 0.01375 13.9865 0 10.9973 0H11ZM10.0141 1.98275H11.0014C13.9384 1.98275 14.2863 1.99238 15.4454 2.046C16.5179 2.09413 17.1009 2.27425 17.4886 2.42412C18.0015 2.6235 18.3686 2.86275 18.7536 3.24775C19.1386 3.63275 19.3765 3.9985 19.5759 4.51275C19.7271 4.89913 19.9059 5.48213 19.954 6.55463C20.0076 7.71375 20.0186 8.06163 20.0186 10.9973C20.0186 13.9329 20.0076 14.2821 19.954 15.4412C19.9059 16.5138 19.7257 17.0954 19.5759 17.4831C19.3983 17.9601 19.117 18.3917 18.7522 18.7467C18.3672 19.1318 18.0015 19.3696 17.4873 19.569C17.1023 19.7203 16.5192 19.899 15.4454 19.9485C14.2863 20.0007 13.9384 20.0131 11.0014 20.0131C8.06438 20.0131 7.71513 20.0007 6.556 19.9485C5.4835 19.899 4.90188 19.7203 4.51412 19.569C4.03677 19.392 3.6047 19.1111 3.24913 18.7467C2.88375 18.3915 2.60195 17.9594 2.42412 17.4818C2.27425 17.0954 2.09413 16.5124 2.046 15.4399C1.99375 14.2808 1.98275 13.9329 1.98275 10.9945C1.98275 8.05612 1.99375 7.711 2.046 6.55187C2.0955 5.47937 2.27425 4.89638 2.4255 4.50863C2.62488 3.99575 2.86412 3.62862 3.24913 3.24362C3.63412 2.85862 3.99988 2.62075 4.51412 2.42138C4.90188 2.27013 5.4835 2.09138 6.556 2.04188C7.57075 1.99513 7.964 1.98138 10.0141 1.98V1.98275ZM16.8726 3.80875C16.6993 3.80875 16.5276 3.84289 16.3675 3.90923C16.2073 3.97557 16.0618 4.0728 15.9392 4.19537C15.8167 4.31794 15.7194 4.46346 15.6531 4.62361C15.5868 4.78376 15.5526 4.95541 15.5526 5.12875C15.5526 5.30209 15.5868 5.47374 15.6531 5.63389C15.7194 5.79404 15.8167 5.93956 15.9392 6.06213C16.0618 6.1847 16.2073 6.28193 16.3675 6.34827C16.5276 6.41461 16.6993 6.44875 16.8726 6.44875C17.2227 6.44875 17.5585 6.30968 17.806 6.06213C18.0536 5.81458 18.1926 5.47884 18.1926 5.12875C18.1926 4.77866 18.0536 4.44292 17.806 4.19537C17.5585 3.94782 17.2227 3.80875 16.8726 3.80875ZM11.0014 5.3515C10.2521 5.33981 9.50798 5.47729 8.81234 5.75594C8.11671 6.0346 7.48346 6.44885 6.94946 6.97458C6.41546 7.50032 5.99138 8.12703 5.70191 8.81823C5.41244 9.50944 5.26336 10.2513 5.26336 11.0007C5.26336 11.7501 5.41244 12.4919 5.70191 13.1831C5.99138 13.8743 6.41546 14.5011 6.94946 15.0268C7.48346 15.5525 8.11671 15.9668 8.81234 16.2454C9.50798 16.5241 10.2521 16.6616 11.0014 16.6499C12.4844 16.6267 13.8988 16.0214 14.9393 14.9645C15.9799 13.9076 16.5631 12.4839 16.5631 11.0007C16.5631 9.51751 15.9799 8.09382 14.9393 7.03691C13.8988 5.97999 12.4844 5.37464 11.0014 5.3515ZM11.0014 7.33288C11.4829 7.33288 11.9598 7.42773 12.4047 7.61202C12.8496 7.79631 13.2539 8.06643 13.5944 8.40695C13.9349 8.74747 14.2051 9.15174 14.3894 9.59665C14.5736 10.0416 14.6685 10.5184 14.6685 11C14.6685 11.4816 14.5736 11.9584 14.3894 12.4033C14.2051 12.8483 13.9349 13.2525 13.5944 13.593C13.2539 13.9336 12.8496 14.2037 12.4047 14.388C11.9598 14.5723 11.4829 14.6671 11.0014 14.6671C10.0288 14.6671 9.09605 14.2808 8.40833 13.593C7.72061 12.9053 7.33425 11.9726 7.33425 11C7.33425 10.0274 7.72061 9.09467 8.40833 8.40695C9.09605 7.71923 10.0288 7.33288 11.0014 7.33288Z" fill="#F7F7F7"/>
</svg>
