<svg width="492" height="453" viewBox="0 0 492 453" fill="none" xmlns="http://www.w3.org/2000/svg">
<path d="M95.7055 155.063C97.1172 155.364 97.3023 154.368 97.904 153.464C108.017 138.502 113.942 115.064 123.708 100.542C126.809 95.9327 129.749 94.9599 135.418 95.6547C141.088 96.3496 139.723 101.862 139.885 106.355L132.664 191.68C130.003 193.95 119.843 193.579 119.172 189.92L124.68 126.737L100.38 175.282C97.7652 181.952 90.0587 184.801 84.7821 179.428C83.463 161.988 81.3338 144.547 80.5007 127.061C80.4544 126.227 81.0098 124.05 79.4593 124.652L61.9865 190.059C60.783 194.228 57.1959 194.344 53.3774 193.556C46.3188 192.097 48.9339 184.57 50.1605 179.59C52.6599 169.515 56.5479 159.509 59.4408 149.504C63.9305 133.917 67.8647 114.739 73.3958 99.9395C74.4604 97.0675 74.6456 96.0253 78.0707 95.6316C93.3681 93.825 90.3595 102.256 91.5398 113.257C93.0672 127.177 94.8029 141.073 95.6823 155.039L95.7055 155.063ZM233.914 242.935L230.882 250.254L224.842 250.439L224.75 252.802L229.61 253.821C227.828 261.209 220.352 274.874 211.373 273.832C209.429 273.6 206.883 271.331 208.226 269.732C208.411 269.501 212.6 268.829 213.988 268.227C223.153 264.336 224.333 253.01 213.687 255.488C206.93 257.063 201.723 269.501 194.757 272.442L199.223 256.901C198.367 255.627 196.215 255.512 194.872 255.998C194.039 256.276 185.685 267.509 183.741 269.408C181.149 271.979 176.289 276.681 177.214 269.408C177.816 264.707 183.856 254.724 174.692 255.836C170.688 256.322 168.374 260.468 166.407 263.479C166.175 263.826 165.782 266.166 164.694 264.845C164.416 264.498 166.777 259.102 166.106 256.322C159.418 252.339 155.044 261.835 150.901 265.54C151.294 262.483 156.617 254.284 150.577 255.164C147.707 255.581 147.8 260.097 146.758 262.437C145.439 265.424 138.589 273.16 135.326 273.137C133.243 272.952 133.567 271.029 133.706 269.431C134.03 265.471 137.038 260.7 138.288 256.901L135.395 255.141C133.15 255.349 128.267 266.629 126.023 269.316C124.379 271.284 118.964 275.963 119.172 270.798C119.311 267.092 123.523 259.333 123.338 256.901C123.153 254.678 120.445 254.794 118.918 255.79C118.2 256.253 114.729 267.787 114.497 269.478C112.947 281.753 123.639 277.816 128.8 271.724C128.846 281.799 139.931 276.611 143.981 271.724C144.236 272.049 141.088 278.927 146.967 277.121C148.633 276.611 154.974 264.359 157.427 262.02C158.422 261.07 158.978 260.375 160.552 260.677C160.899 263.595 155.414 275.314 157.751 276.959C159.603 278.256 161.362 276.797 162.611 275.523C163.56 274.55 172.586 259.264 173.65 260.677C174.229 265.309 168.837 273.16 173.303 276.565C179.251 281.128 187.189 269.895 190.915 266.189C189.711 268.852 189.063 274.318 187.791 276.519C186.865 278.117 180.871 281.892 179.158 283.768C173.118 290.323 174.229 301.834 183.81 296.715C189.989 293.403 189.457 282.448 192.651 277.931C194.687 275.083 201.491 272.419 203.69 268.945C203.551 282.61 218.894 278.117 224.402 270.335C225.606 279.923 232.086 278.927 238.172 273.762C239.353 272.767 241.389 269.709 241.644 269.64C243.102 269.177 242.662 270.172 242.384 271.076C241.088 275.291 238.149 278.95 245.948 276.38C247.638 273.068 255.136 261.395 258.214 260.677C259.371 260.422 259.996 260.283 259.95 261.719C259.765 265.749 253.585 276.31 260.436 277.816C265.249 278.881 268.304 274.712 271.336 271.747C273.187 279.645 280.431 279.113 285.476 274.156C286.888 272.767 288.485 268.991 289.41 268.25C290.591 267.324 293.553 266.837 295.173 265.911C296.862 264.938 301.051 261.371 302.394 261.394C302.394 264.776 305.472 270.242 302.764 272.836C299.246 276.241 296.677 268.875 294.456 270.01C291.262 271.608 294.803 277.445 297.58 277.978C305.911 279.576 309.383 273.415 314.474 268.32C312.947 280.734 322.921 279.205 329.679 272.813C331.183 271.4 336.136 266.305 332.086 265.54C327.619 269.987 317.575 280.456 319.612 266.884C320.329 262.089 322.852 257.758 324.217 253.196L333.058 251.667L333.104 249.652H326.207L328.29 243.746C323.523 237.145 321.51 248.795 320.26 249.721C318.038 251.319 312.114 248.61 313.78 252.802L317.483 253.242L318.524 254.724C316.719 261.371 312.993 265.957 307.925 270.404C306.906 263.734 304.569 259.611 308.966 253.52C304.176 249.606 302.093 256.67 298.621 259.727C297.603 260.607 293.021 263.896 292.049 264.197C290.336 264.73 291.216 260.26 290.706 258.638C289.434 254.493 284.643 253.844 281.079 255.303C277.723 256.67 272.933 265.147 269.971 268.366C267.726 270.821 261.963 277.468 262.75 270.149C263.167 266.305 267.471 260.26 264.115 256.924C259.255 252.084 251.989 262.923 248.887 265.587L251.641 256.924C251.641 254.701 247.962 254.632 246.735 256.206C245.856 257.341 246.203 259.565 245.046 261.418C243.703 263.572 237.848 269.848 235.766 271.47C232.618 273.948 229.17 275.291 229.679 269.57C229.841 267.648 234.215 253.844 235.164 253.242C236.321 252.524 242.708 253.96 244.028 250.694C244.606 249.281 243.079 249.721 242.315 249.675C240.371 249.536 238.381 249.791 236.437 249.675L239.191 242.773C237.293 242.194 235.58 241.638 233.822 242.935H233.914ZM211.905 260.283C212.692 259.542 215.909 257.179 216.858 258.638C218.941 261.858 211.049 266.837 208.226 266.93C207.601 266.305 211.118 261.024 211.905 260.26V260.283ZM282.074 258.291C287.119 256.461 287.698 261.858 286.194 265.54C282.167 265.494 278.765 261.811 282.074 258.291ZM277.261 265.563C279.853 266.189 280.987 268.991 284.157 268.32C286.332 270.404 273.002 279.622 277.261 265.563ZM186.124 282.147C184.805 286.408 184.389 294.329 178.533 293.889C177.747 288.4 182.074 284.833 186.124 282.147ZM340.649 210.765C339.931 208.75 330.419 207.823 327.989 207.545C265.62 200.134 167.309 203.376 106.05 217.551C103.944 218.037 94.8261 219.589 94.5715 221.673C95.2658 225.657 97.0246 229.872 101.537 230.22C144.097 223.434 186.865 217.064 229.957 214.47C264.208 212.386 298.552 213.058 332.803 213.776C334.331 213.799 339.468 215.165 340.672 213.706C340.949 213.359 340.834 211.367 340.625 210.788L340.649 210.765ZM253.354 99.0131C256.663 97.137 257.983 90.4667 255.529 88.0348C254.395 86.8999 242.87 87.2473 240.325 87.3631C232.78 87.7568 223.824 89.1233 216.256 90.2119C211.581 90.8836 178.395 96.5348 177.816 98.8741C177.145 117.125 197.025 106.332 207.531 106.008L196.539 183.11C195.891 190.36 203.944 189.642 208.758 188.021L222.875 104.062C224.055 102.418 248.61 101.677 253.354 98.9899V99.0131ZM382.861 292.129C375.594 300.444 378.556 315.313 367.332 323.558C364.254 325.828 357.45 327.751 357.335 322.192C362.426 321.636 370.318 317.606 369.739 311.538C369.16 305.354 360.69 308.319 357.682 311.121C354.881 313.715 354.488 317.12 352.498 319.76C351.132 321.59 347.892 323.582 345.948 324.948L350.438 309.06C349.165 309.129 347.406 308.712 346.295 309.384C345.856 309.662 341.829 316.494 340.44 318.046C338.496 320.177 336.228 321.914 333.891 323.558C334.886 320.802 337.015 317.907 337.108 314.827C337.316 308.064 331.391 306.535 326.647 310.449L321.463 315.267C321.949 313.483 324.796 309.315 322.875 307.971L320.514 307.74C317.205 312.904 316.997 319.691 311.095 323.535C309.66 318.023 309.66 312.372 309.614 306.72C305.055 302.644 303.69 309.43 301.722 312.441C300.126 314.85 292.558 325.62 290.035 325.643C289.179 325.643 288.647 325.249 288.415 324.462C287.166 320.571 292.72 309.847 292.141 309.013C291.262 307.786 288.971 308.203 287.929 308.967C286.795 309.801 283.116 319.528 281.033 322.099C279.135 324.462 274.854 328.098 275.247 322.586C275.409 320.385 279.32 308.99 278.672 308.342L274.483 308.643C271.868 315.221 264.856 335.232 279.32 327.982L284.203 323.535C283.926 326.732 284.689 329.187 288.184 329.627C294.849 330.46 301.213 316.448 305.587 312.488C304.731 315.846 308.619 326.616 302.509 325.62C300.843 325.365 300.126 323.072 298.436 323.558C295.52 325.736 297.186 329.14 300.45 329.696C307.045 330.808 310.841 327.727 315.238 323.512L309.73 345.608C311.304 345.515 313.757 346.279 314.428 344.45C316.164 339.702 316.395 332.962 318.362 327.681C319.589 324.346 326.532 310.635 330.674 311.839C334.099 313.97 331.322 320.478 329.1 322.516C325.536 325.782 322.32 323.489 320.746 324.531C319.126 325.736 320.862 328.098 322.158 328.677C324.865 329.905 329.447 327.704 332.294 327.102L342.87 319.39C340.949 322.238 341.042 327.079 339.052 329.719C337.571 331.688 333.081 334.213 331.114 336.274C321.047 346.743 331.368 354.247 338.033 345.26C341.181 341.022 341.273 334.12 343.518 330.738C343.842 330.275 351.665 323.744 352.197 323.535C353.585 322.933 353.701 326.523 354.905 327.704C358.908 331.595 367.078 329.048 370.132 324.902L370.48 328.353C371.637 328.283 373.072 328.608 374.159 328.237C375.316 327.843 380.315 318.579 381.935 316.68C382.444 316.077 387.073 310.727 387.073 314.225C387.073 318.394 382.375 327.148 387.235 329.233C391.586 331.109 393.599 327.565 396.376 324.925C397.51 332.73 407.3 328.584 409.498 323.535C410.193 333.356 418.131 328.816 422.25 323.883C423.685 322.146 427.758 317.189 424.009 316.657C421.139 319.876 418.964 325.458 413.988 325.62L416.441 311.121C403.597 299.448 398.182 322.956 391.447 325.504C391.007 325.666 389.873 325.921 389.827 325.272C389.179 321.15 396.307 308.62 388.114 308.99C383.416 309.199 381.033 314.526 378.094 317.328C378.047 312.765 382.282 310.681 384.597 307.601C386.911 304.52 393.738 293.982 390.359 290.554C388.462 288.632 384.527 290.276 382.907 292.106L382.861 292.129ZM381.496 306.304C383.139 303.038 384.18 296.252 386.263 293.611C386.888 292.824 387.559 293.241 388.392 293.194C389.063 293.773 384.111 305.887 381.496 306.304ZM366.314 312.186C366.823 314.665 360.343 318.996 358.029 319.413C356.432 316.332 365.458 308.133 366.314 312.186ZM411.558 311.816C413.34 314.294 403.666 326.037 401.861 325.643C397.881 324.809 404.569 312.418 408.92 311.283C409.869 311.028 410.887 310.913 411.558 311.816ZM329.725 345.677C329.679 344.704 329.609 343.709 329.887 342.736C330.327 341.23 336.992 333.68 338.01 334.629C335.927 338.52 335.418 346.117 329.725 345.677ZM270.017 131.577C272.285 131.577 272.91 121.502 269.323 121.224C259.996 121.896 249.512 120.321 240.325 121.224C235.141 121.734 232.04 123.355 232.34 129.122C232.618 134.195 240.788 141.027 244.074 145.057C244.93 146.122 249.674 151.936 249.559 152.538L225.444 176.811C223.292 179.196 223.454 183.828 226.138 185.774C230.836 189.132 247.915 187.164 254.048 186.793C257.265 186.608 266.175 187.812 267.726 184.593C268.675 182.601 268.999 176 266.36 175.213L241.991 175.745C245.185 170.372 263.375 157.68 264.092 152.561C264.578 149.157 255.9 140.911 253.47 137.692C252.868 136.904 249.003 132.064 249.605 131.554H269.971L270.017 131.577ZM175.71 187.233C177.608 189.781 186.981 189.711 186.842 185.125L181.218 123.679C179.945 116.314 171.498 118.306 168.027 123.471C162.866 131.184 156.455 147.998 152.66 157.124C148.656 166.759 144.838 176.533 141.551 186.446C141.482 190.893 148.378 190.8 150.97 188.6C153.771 186.191 156.872 170.997 157.913 170.326L173.65 170.256C174.807 171.391 173.812 184.685 175.687 187.21L175.71 187.233ZM171.29 139.174C172.863 138.665 172.262 140.703 172.308 141.583C172.632 147.674 172.956 153.789 173.002 159.88H161.963L171.29 139.151V139.174ZM468.003 145.96C456.154 151.357 429.633 175.282 418.431 184.778C409.545 192.329 398.066 201.408 390.082 209.607C386.263 213.521 386.078 218.222 383.139 221.303C380.454 224.129 375.802 224.8 372.562 227.302C366.152 232.235 364.162 242.449 363.606 250.138C363.537 251.204 363.213 252.825 364.185 253.543L367.934 253.057C372.678 247.591 387.05 242.148 389.41 235.871C390.382 233.254 390.498 228.112 392.211 226.236C393.484 224.823 396.909 224.615 398.992 223.341C400.311 222.53 402.949 220.145 404.291 218.964C416.071 208.75 428.637 196.451 439.862 185.473C449.906 175.653 463.166 163.238 471.614 152.306C473.002 150.5 476.057 147.79 473.835 145.567C472.308 144.038 469.693 145.219 468.026 145.96H468.003ZM460.274 155.479C461.639 154.46 463.305 152.839 465.018 152.631L402.88 210.695L395.983 208.912C416.742 190.452 437.941 172.086 460.25 155.456L460.274 155.479ZM385.708 223.225C387.304 221.025 389.896 211.992 393.298 212.687L395.89 214.934C396.816 218.014 391.609 223.225 389.387 225.449C388.832 226.005 388.762 226.445 387.721 226.167L385.708 223.202V223.225ZM375.27 233.416C371.637 236.612 369.207 242.032 367.679 246.548C367.448 247.22 366.383 248.494 367.332 248.957C370.549 244.811 373.234 240.156 376.682 236.195C377.214 235.593 378.209 234.204 378.047 236.172C375.988 237.655 369.045 249.999 367.355 249.652C366.268 249.42 366.291 247.591 366.337 246.641C366.754 240.874 372.03 224.684 380.107 228.251C380.547 231.424 377.191 231.725 375.27 233.393V233.416ZM147.8 310.426C147.036 311.214 145 314.132 147.152 314.595C148.471 314.873 149.026 311.862 151.433 311.306C152.428 311.075 157.173 310.774 157.15 312.186C155.46 314.086 141.945 327.542 143.356 329.094C150.346 330.738 156.594 329.789 162.542 325.875C163.282 325.388 163.259 324.392 163.745 324.253C165.574 323.744 164.324 327.681 166.152 328.747C170.133 331.109 175.733 326.755 177.885 323.558C177.677 333.958 187.605 328.237 191.007 322.864L189.665 328.353L193.299 329.001C195.219 328.469 202.324 313.785 205.865 313.182C207.346 312.928 206.999 313.854 206.906 314.919C206.49 319.575 201.098 329.372 209.336 329.14C214.335 329.001 216.719 323.744 220.028 320.802C219.195 323.003 218.686 328.052 217.575 329.742C216.464 331.433 210.702 334.907 208.642 337.362C205.541 341.022 201.908 348.619 209.36 349.151C218.64 349.823 218.478 336.83 221.533 331.595C223.43 328.353 228.314 326.963 229.725 323.558L231.091 323.906C230.929 332.591 241.412 329.163 243.866 323.535C244.861 332.846 251.873 329.256 256.293 324.23C257.821 322.516 261.616 318.44 259.047 316.633C257.705 316.633 252.035 327.241 248.355 325.597L251.017 311.561C249.697 309.662 246.342 307.554 244.028 307.786C235.951 308.573 230.998 322.308 223.5 325.597L228.337 310.079C228.105 308.944 224.981 308.735 223.963 308.99C222.875 309.268 215.006 326.384 209.707 325.597C208.897 321.405 216.048 309.5 209.198 308.458C204.268 307.693 200.565 315.475 197.279 318L200.056 308.712L195.312 308.434C196.886 312.302 184.435 328.029 182.097 325.597L184.782 311.538C170.41 298.799 167.98 323.35 156.039 325.435C154.141 325.759 152.243 325.573 150.346 325.597C152.081 322.4 164.37 312.765 162.01 309.106C157.774 307.531 151.294 306.859 147.916 310.38L147.8 310.426ZM179.876 312.233C178.348 317.56 174.622 322.655 169.901 325.643C166.407 322.192 173.303 312.001 176.96 311.283C178.233 311.028 179.181 310.982 179.876 312.256V312.233ZM235.141 324.948C234.794 319.135 239.792 310.913 246.18 311.144C247.591 312.557 239.584 327.079 235.141 324.948ZM211.998 344.264C209.105 347.901 206.235 345.7 209.036 341.3C209.614 340.373 215.006 334.49 215.816 335.324C216.164 335.672 212.738 343.338 211.998 344.264ZM349.258 132.11C332.479 137.553 321.834 167.384 332.502 181.628C338.543 189.711 349.443 189.04 356.987 183.342C360.274 180.864 367.263 173.128 362.542 169.492C361.94 168.704 361.685 169.098 361.037 169.376C358.052 170.65 355.46 173.684 351.711 174.587C344.722 176.301 339.63 173.452 339.399 166.087C346.481 165.416 355.46 162.636 360.551 157.564C371.683 146.424 367.934 126.065 349.258 132.11ZM355.992 140.17C359.163 149.319 348.239 157.263 340.07 158.514C342.87 151.658 346.689 138.618 355.992 140.17ZM276.566 173.36C275.594 182.555 278.14 189.109 288.6 187.465C293.576 186.677 299.292 179.798 295.543 175.097L290.799 177.76C289.549 177.065 288.438 175.514 288.392 174.101C288.253 170.233 290.892 161.177 291.956 156.985C294.71 146.076 298.806 135.515 301.769 124.675C302.926 120.414 306.258 110.084 306.282 106.332C306.328 100.959 294.618 99.3142 292.604 101.352L276.566 173.383V173.36ZM125.722 297.271C122.389 297.271 121.88 301.718 121.163 304.173L115.053 304.983V306.952L119.149 307.693C118.663 314.155 114.15 317.305 110.841 322.169L109.475 321.845C110.285 318.903 107.555 315.383 107.717 312.858C107.786 311.538 110.725 307.763 110.17 307.022C104.824 304.474 103.713 311.075 99.8249 314.271C98.1355 315.661 96.3766 316.68 94.2938 317.375C94.9418 313.715 95.3815 309.291 91.2389 307.67C82.7224 304.312 80.4775 313.993 76.011 318.764C74.0439 320.872 71.6833 322.146 69.7856 324.276L72.8404 316.263C73.6736 302.992 62.6576 308.573 57.7051 315.29L59.0242 308.828C58.6539 307.601 57.0802 307.392 56.0619 307.74C54.2568 308.342 46.9437 340.373 45.3468 344.565C45.694 346.025 48.8414 345.793 50.0448 345.585C52.5674 333.657 54.5576 318.023 66.3604 311.816C70.6419 311.862 66.777 323.188 61.8707 324.67C59.7879 325.296 58.3299 324.068 56.3396 324.276C54.5113 332.915 67.6564 328.005 71.7296 325.504L75.9878 322.169C75.687 330.715 83.6712 331.549 89.1098 326.315C90.7066 324.786 91.4935 322.076 93.2292 320.779C94.7798 319.644 97.5106 319.135 99.3389 317.93C100.797 316.958 102.926 313.924 104.291 313.9C104.87 316.355 107.786 325.319 103.597 325.689C101.792 325.851 99.8712 323.651 97.742 324.276C96.9783 328.631 100.311 330.321 104.245 329.766C107.508 329.302 111.049 325.249 113.317 322.91C113.919 322.285 115.724 318.324 115.354 322.215C114.243 333.911 126.694 329.534 130.188 322.887L132.919 328.77C138.612 331.734 148.864 321.15 148.841 316.332C148.841 315.267 149.003 315.128 147.8 315.29C146.11 317.49 139.584 325.828 136.738 325.62C133.498 325.365 138.543 312.094 139.561 310.473L138.751 309.129C133.96 307.786 134.146 313.924 132.549 316.61C131.392 318.556 122.412 328.33 120.144 324.994C118.825 319.112 122.32 313.553 123.917 308.11C124.75 306.906 132.456 307.462 132.965 305.261C133.683 302.135 126.902 305.007 126.069 304.219C125.699 301.556 130.674 297.248 125.722 297.248V297.271ZM88.4155 310.426C91.4935 310.913 90.8686 315.151 90.1049 317.305C83.3241 319.204 82.7224 309.523 88.4155 310.426ZM81.195 318.046C83.787 318.672 84.921 321.474 88.0915 320.802C89.6884 322.285 77.5384 331.85 81.195 318.046ZM406.837 154.252C413.201 155.734 422.111 138.873 412.785 133.06C402.394 126.598 392.627 142.509 387.721 149.527C388.068 143.899 394.733 132.759 385.268 132.226C377.932 131.832 380.107 136.186 379.251 140.703C376.96 152.816 370.989 167.894 369.832 179.636C369.577 182.346 369.369 184.13 371.868 185.751C373.511 186.816 378.626 187.72 379.783 186.145C380.5 185.195 383.278 173.892 384.25 171.275C387.166 163.285 392.141 152.561 398.043 146.4C399.964 144.409 401.838 142.162 404.962 142.625C405.68 143.343 401.907 153.117 406.837 154.252ZM89.1329 27.2836C84.0415 27.2836 75.5944 34.5561 78.0938 40.3927C81.4727 35.2278 85.8698 32.4022 92.2572 32.7959C91.3778 41.4813 91.1695 52.7375 87.351 60.6817C86.1244 63.2062 79.8064 69.3439 84.6664 71.8221C92.1415 75.6205 94.1781 61.7239 94.9418 57.2076C96.2609 49.356 96.5155 40.7401 97.1172 32.7727H109.545C107.809 43.1257 105.611 55.0073 107.647 65.4065C110.239 78.6546 127.365 70.5483 126.809 59.7089C124.032 59.8247 123.292 64.3411 120.792 65.0823C119.404 65.4992 116.303 65.337 115.238 64.3411C111.211 60.5427 112.947 39.003 115.4 33.4213L124.634 31.9621L124.727 27.2141H89.1792L89.1329 27.2836ZM230.304 12.7848V17.6255H253.771L248.587 29.3681H230.304V34.2087H246.874L240.672 47.0167C240.093 48.9622 244.745 47.6652 245.856 48.0821L246.943 47.6189L252.382 34.2087H279.297V29.3681H255.136L259.973 17.6255H279.297V12.09C279.043 11.7426 278.418 12.7848 278.256 12.7848H262.727L268.235 0L261.963 0.0926438L256.501 12.7848H230.258H230.304ZM71.8916 397.465C80.6627 403.996 90.2669 395.589 97.4412 390.748C101.306 393.528 103.967 397.025 108.573 398.762C128.175 406.197 135.858 381.137 119.172 375.045C110.586 371.919 103.273 378.867 97.4412 384.333C92.7201 379.307 85.7078 373.331 78.3021 374.142C66.8465 375.393 62.4956 390.47 71.8916 397.465ZM93.1829 387.853C88.1609 391.235 82.491 397.396 75.8721 394.153C70.4336 391.49 69.9707 384.078 74.9696 380.511C82.2595 375.323 87.8369 382.897 93.6226 386.417L93.1829 387.83V387.853ZM120.515 393.644C113.711 398.669 106.212 392.926 101.26 388.085C103.505 384.31 109.869 379.562 114.197 378.983C121.811 377.94 127.157 388.733 120.515 393.644ZM316.788 166.643C318.223 158.305 321.695 149.851 323.546 141.56C323.546 137.831 314.682 137.182 312.993 140.054C310.818 143.691 307.67 157.958 306.721 162.775C305.495 168.982 303.25 177.089 306.328 182.948C311.535 192.838 325.721 184.871 322.111 175.097L316.65 177.112C315.354 173.916 316.21 170.048 316.788 166.643ZM250.808 382.827C246.758 380.627 242.5 381.692 238.936 384.356C228.938 391.86 231.762 423.127 230.975 435.102C230.836 437.14 229.401 449.045 227.851 449.299C225.305 449.299 224.657 446.381 222.088 446.126C220.167 445.941 217.946 448.095 218.663 450.156C225.027 456.688 231.646 450.805 234.562 444.204C242.246 426.926 236.9 406.336 240.95 389.127C242.778 381.345 248.425 383.846 248.934 390.54C250.924 391.906 256.293 385.815 250.785 382.804L250.808 382.827ZM490.22 232.397L457.01 233.717L447.406 269.686C445.161 265.957 444.12 254.562 441.366 251.899C439.607 250.208 433.035 251.389 430.489 251.018V255.164C432.549 255.118 436.205 254.956 437.733 256.554C440.533 259.495 443.31 282.401 450.484 276.218L460.922 237.979L491.933 237.214C491.863 235.362 492.65 232.652 490.197 232.374L490.22 232.397ZM339.005 383.013C341.065 385.954 345.277 381.438 347.707 380.581C358.214 376.806 369.97 387.599 381.172 388.502C385.175 388.826 396.631 387.622 397.395 382.619C398.413 375.949 390.568 382.387 387.906 382.827C373.164 385.329 363.236 372.637 348.887 374.86C346.319 375.254 336.552 379.492 339.005 383.013ZM349.165 402.097C359.626 399.526 369.646 408.698 379.829 409.833C384.134 410.319 397.95 409.879 397.395 403.348C397.048 399.272 390.892 403.742 388.693 404.344C374.252 408.304 362.125 392.161 346.596 397.442C344.097 398.299 335.974 402.468 339.561 405.595C341.759 407.494 346.18 402.815 349.165 402.097ZM380.801 72.8644L380.917 77.6123C392.905 78.2609 405.078 78.9557 417.089 78.423C421.394 78.2377 427.11 78.8399 423.268 72.8875H380.801V72.8644ZM32.8497 229.27L3.87497 274.527L8.59609 274.411L37.6866 228.251C36.0203 228.251 34.0069 227.788 32.8266 229.247L32.8497 229.27ZM19.3343 152.26C30.3503 151.496 28.36 134.334 16.8349 136.534C7.92495 138.248 9.10523 152.955 19.3343 152.26ZM29.9337 275.059C46.0411 277.7 45.4394 252.918 30.6512 254.632C19.4963 255.929 18.6632 273.207 29.9337 275.059ZM34.2846 271.47C24.6803 274.48 23.1529 260.375 29.9106 258.8C39.3528 256.623 41.158 269.316 34.2846 271.47ZM0.982119 233.3C-3.69272 244.209 9.40609 252.663 17.4366 244.603C28.1286 233.879 6.99924 219.218 0.982119 233.3ZM13.5255 243.097C5.88839 247.984 0.519264 237.631 5.5181 232.675C12.0212 226.19 21.3709 238.095 13.5255 243.097ZM319.89 132.805C330.743 134.357 333.451 115.504 319.866 118.607C314.243 119.904 311.118 131.554 319.89 132.805ZM403.62 96.7433C410.563 95.5852 408.503 84.6301 401.329 86.1124C394.71 87.4789 397.348 97.7855 403.62 96.7433ZM405.009 64.2716C410.169 62.5577 407.925 52.7606 401.352 54.3588C394.965 55.9105 396.77 66.9815 405.009 64.2716ZM198.228 251.736L202.047 247.915L201.028 245.46C200.218 244.742 199.362 244.742 198.367 244.927C194.595 245.668 193.507 251.366 198.228 251.713V251.736ZM354.257 300.096C352.382 296.414 346.087 300.096 347.753 304.126C350.554 306.35 355.877 303.27 354.257 300.096ZM230.697 299.402C227.18 296.391 223.616 302.158 225.652 304.057C228.776 307.022 233.312 301.625 230.697 299.402ZM137.455 300.073L137.224 304.126C144.722 307.392 145.023 294.932 137.455 300.073Z" fill="#EBB739"/>
</svg>
