<svg width="379" height="110" viewBox="0 0 379 110" fill="none" xmlns="http://www.w3.org/2000/svg">
<path d="M48.4326 69.9294C49.8859 70.2398 50.0765 69.2132 50.6959 68.2822C61.107 52.8596 67.206 28.6992 77.2597 13.7302C80.4521 8.97931 83.4778 7.9766 89.3147 8.69282C95.1516 9.40904 93.746 15.091 93.9127 19.7226L86.4796 107.674C83.7399 110.014 73.2811 109.632 72.5902 105.86L78.2603 40.7316L53.2451 90.7714C50.553 97.6471 42.6196 100.584 37.1877 95.0448C35.8297 77.0678 33.6379 59.0907 32.7802 41.0659C32.7326 40.2064 33.3044 37.9623 31.7081 38.583L13.721 106.003C12.4821 110.3 8.78941 110.42 4.85844 109.608C-2.4079 108.104 0.28422 100.345 1.54689 95.2119C4.11989 84.8268 8.12233 74.5133 11.1003 64.1997C15.7222 48.1326 19.7723 28.3649 25.4662 13.1095C26.5621 10.1491 26.7527 9.07481 30.2787 8.66896C46.0264 6.80679 42.9293 15.4969 44.1443 26.837C45.7167 41.1852 47.5035 55.5096 48.4088 69.9056L48.4326 69.9294ZM210.722 12.1545C214.129 10.2208 215.487 3.34506 212.962 0.838296C211.794 -0.331526 199.93 0.0265928 197.309 0.145962C189.542 0.551819 180.323 1.96038 172.532 3.08245C167.72 3.7748 133.556 9.60004 132.96 12.0113C132.269 30.824 152.734 19.6987 163.55 19.3645L152.234 98.8408C151.567 106.313 159.858 105.573 164.813 103.902L179.346 17.3591C180.561 15.664 205.838 14.9 210.722 12.1307V12.1545ZM227.875 45.7213C230.21 45.7213 230.853 35.3361 227.161 35.0496C217.56 35.742 206.767 34.1186 197.309 35.0496C191.972 35.5749 188.78 37.246 189.09 43.1907C189.376 48.419 197.786 55.4619 201.169 59.6159C202.05 60.7141 206.934 66.7065 206.815 67.3272L181.99 92.3471C179.775 94.8061 179.941 99.5809 182.705 101.586C187.541 105.048 205.123 103.019 211.437 102.637C214.748 102.446 223.921 103.687 225.517 100.369C226.494 98.3156 226.827 91.5115 224.111 90.6998L199.024 91.2489C202.312 85.7101 221.038 72.6272 221.776 67.3511C222.277 63.8416 213.343 55.3425 210.841 52.024C210.222 51.2123 206.243 46.2226 206.863 45.6974H227.828L227.875 45.7213ZM130.792 103.09C132.746 105.716 142.395 105.645 142.252 100.918L136.462 37.5803C135.152 29.9884 126.456 32.0415 122.883 37.3654C117.57 45.3154 110.971 62.6479 107.064 72.0542C102.942 81.9858 99.0111 92.0606 95.6281 102.279C95.5566 106.862 102.656 106.767 105.324 104.499C108.207 102.016 111.4 86.3547 112.472 85.6624L128.672 85.5908C129.863 86.7606 128.839 100.464 130.769 103.066L130.792 103.09ZM126.242 53.5519C127.862 53.0267 127.243 55.1276 127.29 56.0348C127.624 62.3137 127.957 68.6164 128.005 74.8952H116.641L126.242 53.5281V53.5519ZM309.449 46.2704C292.176 51.8808 281.217 82.6304 292.2 97.3128C298.418 105.645 309.639 104.953 317.406 99.0795C320.789 96.525 327.984 88.5511 323.124 84.8029C322.504 83.9912 322.242 84.397 321.575 84.6835C318.502 85.9966 315.834 89.1241 311.974 90.0552C304.779 91.8218 299.538 88.8854 299.3 81.2934C306.59 80.6011 315.834 77.7362 321.075 72.5078C332.534 61.0245 328.675 40.0393 309.449 46.2704ZM316.382 54.5785C319.646 64.0087 308.401 72.1975 299.991 73.4867C302.873 66.42 306.804 52.979 316.382 54.5785ZM234.618 88.7899C233.617 98.2678 236.238 105.024 247.006 103.329C252.128 102.517 258.013 95.4268 254.153 90.5804L249.269 93.3259C247.983 92.6097 246.839 91.0101 246.792 89.5538C246.649 85.5669 249.365 76.2322 250.461 71.911C253.296 60.6664 257.512 49.7799 260.562 38.6069C261.753 34.2141 265.184 23.5663 265.208 19.6987C265.255 14.16 253.2 12.4649 251.128 14.5658L234.618 88.8137V88.7899ZM368.723 69.0939C375.275 70.6218 384.447 53.2416 374.846 47.2492C364.149 40.5884 354.095 56.9898 349.044 64.2236C349.402 58.4222 356.263 46.9389 346.519 46.3898C338.967 45.9839 341.206 50.4722 340.325 55.1276C337.966 67.6137 331.82 83.1556 330.628 95.2597C330.366 98.0529 330.152 99.8912 332.725 101.562C334.417 102.661 339.682 103.592 340.873 101.968C341.611 100.989 344.47 89.339 345.471 86.6412C348.473 78.4047 353.595 67.3511 359.67 61.0006C361.647 58.9475 363.577 56.6317 366.793 57.1092C367.532 57.8493 363.649 67.924 368.723 69.0939ZM276.024 81.8664C277.501 73.2718 281.074 64.5578 282.98 56.011C282.98 52.1673 273.856 51.4988 272.117 54.4592C269.877 58.2074 266.637 72.9137 265.66 77.8795C264.398 84.2777 262.087 92.6336 265.255 98.6737C270.616 108.868 285.22 100.655 281.503 90.5804L275.881 92.6574C274.547 89.3628 275.428 85.3759 276.024 81.8664ZM279.216 46.9866C290.39 48.5862 293.177 29.1528 279.192 32.3519C273.403 33.6888 270.187 45.6974 279.216 46.9866Z" fill="#F7F7F7"/>
</svg>
