<svg width="22" height="23" viewBox="0 0 22 23" fill="none" xmlns="http://www.w3.org/2000/svg">
<path d="M5.46767 14.1163C6.02697 14.6721 6.71163 14.95 7.52166 14.95C8.33168 14.95 9.01635 14.6721 9.57565 14.1163L14.2044 9.51625C14.7637 8.96042 15.0433 8.28 15.0433 7.475C15.0433 6.67 14.7637 5.98958 14.2044 5.43375C13.6451 4.87792 12.9604 4.6 12.1504 4.6C11.3403 4.6 10.6557 4.87792 10.0964 5.43375C9.38279 5.18458 8.67884 5.12708 7.98453 5.26125C7.29022 5.39542 6.70199 5.70208 6.21983 6.18125C5.73768 6.66042 5.4291 7.245 5.29409 7.935C5.15909 8.625 5.21695 9.32458 5.46767 10.0338C4.90836 10.5896 4.62871 11.27 4.62871 12.075C4.62871 12.88 4.90836 13.5604 5.46767 14.1163ZM3.47153 18.055C2.37222 17.0583 1.5188 15.894 0.911278 14.5619C0.303759 13.2298 0 11.8258 0 10.35C0 7.475 1.01253 5.03125 3.03759 3.01875C5.06265 1.00625 7.52166 0 10.4146 0C12.8254 0 14.9614 0.704375 16.8225 2.11312C18.6836 3.52187 19.8938 5.35708 20.4531 7.61875L21.9575 13.5125C22.0539 13.8767 21.9864 14.2073 21.755 14.5044C21.5235 14.8015 21.2149 14.95 20.8292 14.95H18.5149V18.4C18.5149 19.0325 18.2882 19.574 17.835 20.0244C17.3818 20.4748 16.8369 20.7 16.2005 20.7H13.8861V21.85C13.8861 22.1758 13.7752 22.449 13.5535 22.6694C13.3317 22.8898 13.0568 23 12.729 23C12.4011 23 12.1263 22.8898 11.9045 22.6694C11.6827 22.449 11.5718 22.1758 11.5718 21.85V19.55C11.5718 19.2242 11.6827 18.951 11.9045 18.7306C12.1263 18.5102 12.4011 18.4 12.729 18.4H16.2005V13.8C16.2005 13.4742 16.3114 13.201 16.5332 12.9806C16.755 12.7602 17.0298 12.65 17.3577 12.65H19.3249L18.2256 8.19375C17.782 6.44958 16.8369 5.03125 15.3905 3.93875C13.944 2.84625 12.2854 2.3 10.4146 2.3C8.17739 2.3 6.26805 3.07625 4.68657 4.62875C3.1051 6.18125 2.31436 8.06917 2.31436 10.2925C2.31436 11.4425 2.55061 12.535 3.02313 13.57C3.49564 14.605 4.16584 15.525 5.03373 16.33L5.78589 17.02V21.85C5.78589 22.1758 5.675 22.449 5.4532 22.6694C5.23141 22.8898 4.95658 23 4.62871 23C4.30085 23 4.02602 22.8898 3.80422 22.6694C3.58243 22.449 3.47153 22.1758 3.47153 21.85V18.055Z" fill="white"/>
</svg>
