<svg width="24" height="9" viewBox="0 0 24 9" fill="none" xmlns="http://www.w3.org/2000/svg">
<path d="M2.32258 2.25H1.16129C0.825806 2.25 0.548387 2.14375 0.329032 1.93125C0.109677 1.71875 0 1.45 0 1.125C0 0.8 0.109677 0.53125 0.329032 0.31875C0.548387 0.10625 0.825806 0 1.16129 0H3.48387C3.81935 0 4.09677 0.10625 4.31613 0.31875C4.53548 0.53125 4.64516 0.8 4.64516 1.125V7.875C4.64516 8.2 4.53548 8.46875 4.31613 8.68125C4.09677 8.89375 3.81935 9 3.48387 9C3.14839 9 2.87097 8.89375 2.65161 8.68125C2.43226 8.46875 2.32258 8.2 2.32258 7.875V2.25ZM7.74194 7.875V5.25C7.74194 4.825 7.89032 4.46875 8.1871 4.18125C8.48387 3.89375 8.85161 3.75 9.29032 3.75H12.3871V2.25H8.90323C8.56774 2.25 8.29032 2.14375 8.07097 1.93125C7.85161 1.71875 7.74194 1.45 7.74194 1.125C7.74194 0.8 7.85161 0.53125 8.07097 0.31875C8.29032 0.10625 8.56774 0 8.90323 0H13.1613C13.6 0 13.9677 0.14375 14.2645 0.43125C14.5613 0.71875 14.7097 1.075 14.7097 1.5V3.75C14.7097 4.175 14.5613 4.53125 14.2645 4.81875C13.9677 5.10625 13.6 5.25 13.1613 5.25H10.0645V6.75H13.5484C13.8839 6.75 14.1613 6.85625 14.3806 7.06875C14.6 7.28125 14.7097 7.55 14.7097 7.875C14.7097 8.2 14.6 8.46875 14.3806 8.68125C14.1613 8.89375 13.8839 9 13.5484 9H8.90323C8.56774 9 8.29032 8.89375 8.07097 8.68125C7.85161 8.46875 7.74194 8.2 7.74194 7.875ZM22.4516 9H18.1935C17.8581 9 17.5806 8.89375 17.3613 8.68125C17.1419 8.46875 17.0323 8.2 17.0323 7.875C17.0323 7.55 17.1419 7.28125 17.3613 7.06875C17.5806 6.85625 17.8581 6.75 18.1935 6.75H21.6774V5.25H19.3548C19.1484 5.25 18.9677 5.175 18.8129 5.025C18.6581 4.875 18.5806 4.7 18.5806 4.5C18.5806 4.3 18.6581 4.125 18.8129 3.975C18.9677 3.825 19.1484 3.75 19.3548 3.75H21.6774V2.25H18.1935C17.8581 2.25 17.5806 2.14375 17.3613 1.93125C17.1419 1.71875 17.0323 1.45 17.0323 1.125C17.0323 0.8 17.1419 0.53125 17.3613 0.31875C17.5806 0.10625 17.8581 0 18.1935 0H22.4516C22.8903 0 23.2581 0.14375 23.5548 0.43125C23.8516 0.71875 24 1.075 24 1.5V7.5C24 7.925 23.8516 8.28125 23.5548 8.56875C23.2581 8.85625 22.8903 9 22.4516 9Z" fill="white"/>
</svg>
