<svg width="20" height="20" viewBox="0 0 20 20" fill="none" xmlns="http://www.w3.org/2000/svg">
<path d="M4.7905 4.44813C4.54886 4.66967 4.32509 4.9031 4.11916 5.14843C3.91324 5.39375 3.73221 5.65865 3.57608 5.94312C3.38974 6.25528 3.13729 6.4726 2.81874 6.59508C2.50019 6.71756 2.18246 6.71209 1.86556 6.57867C1.51948 6.44374 1.28641 6.21226 1.16635 5.88425C1.04628 5.55623 1.07942 5.23614 1.26576 4.92397C1.50048 4.48267 1.77442 4.06899 2.08759 3.68294C2.40076 3.29689 2.73857 2.93771 3.10101 2.6054C5.12468 0.750037 7.50097 -0.114351 10.2299 0.0122381C12.9588 0.138827 15.2666 1.23098 17.1532 3.28869L17.301 3.44993L17.3563 1.87302C17.3675 1.5518 17.5015 1.27349 17.7582 1.03811C18.015 0.802729 18.3038 0.693343 18.6248 0.709954C18.9458 0.726565 19.226 0.865396 19.4653 1.12645C19.7047 1.3875 19.8187 1.67864 19.8075 1.99986L19.6479 6.55539C19.6356 6.90582 19.5086 7.1918 19.267 7.41334C19.0254 7.63487 18.7295 7.73658 18.3793 7.71846L13.8271 7.48289C13.5061 7.46628 13.2259 7.32745 12.9866 7.06639C12.7472 6.80534 12.6332 6.5142 12.6444 6.19298C12.6557 5.87176 12.7897 5.59345 13.0464 5.35807C13.3032 5.12269 13.592 5.0133 13.913 5.02991L15.4888 5.11146L15.341 4.95022C13.9331 3.41461 12.204 2.59741 10.1538 2.49863C8.10355 2.39985 6.31579 3.04969 4.7905 4.44813ZM15.018 15.4214C15.2596 15.1999 15.4834 14.9665 15.6893 14.7211C15.8952 14.4758 16.0763 14.2109 16.2324 13.9265C16.4187 13.6143 16.6712 13.397 16.9897 13.2745C17.3083 13.152 17.626 13.1575 17.9429 13.2909C18.289 13.4258 18.5221 13.6573 18.6421 13.9853C18.7622 14.3133 18.7291 14.6334 18.5427 14.9456C18.308 15.3869 18.0341 15.8006 17.7209 16.1866C17.4077 16.5727 17.0699 16.9319 16.7075 17.2642C14.6838 19.1195 12.3075 19.9839 9.57858 19.8573C6.84965 19.7307 4.54189 18.6386 2.6553 16.5809L2.50747 16.4196L2.45223 17.9966C2.44098 18.3178 2.30699 18.5961 2.05025 18.8315C1.79352 19.0668 1.50466 19.1762 1.18367 19.1596C0.862677 19.143 0.582511 19.0042 0.343168 18.7431C0.103824 18.4821 -0.0102212 18.1909 0.00103096 17.8697L0.160612 13.3142C0.172888 12.9638 0.29984 12.6778 0.541472 12.4562C0.783104 12.2347 1.07901 12.133 1.42918 12.1511L5.98141 12.3867C6.3024 12.4033 6.58257 12.5421 6.82191 12.8032C7.06125 13.0642 7.1753 13.3554 7.16405 13.6766C7.15279 13.9978 7.0188 14.2761 6.76207 14.5115C6.50533 14.7469 6.21647 14.8563 5.89548 14.8397L4.31971 14.7581L4.46754 14.9194C5.87544 16.455 7.6045 17.2722 9.65472 17.3709C11.7049 17.4697 13.4927 16.8199 15.018 15.4214Z" fill="white"/>
</svg>
