<svg width="18" height="22" viewBox="0 0 18 22" fill="none" xmlns="http://www.w3.org/2000/svg">
<path d="M9 22C8.86875 22 8.74687 21.9907 8.63437 21.9722C8.52187 21.9536 8.40938 21.9257 8.29688 21.8886C5.76562 21.0532 3.75 19.5076 2.25 17.2519C0.75 14.9962 0 12.5688 0 9.96962V4.70633C0 4.24219 0.135937 3.82447 0.407812 3.45316C0.679688 3.08186 1.03125 2.81266 1.4625 2.64557L8.2125 0.139241C8.475 0.0464135 8.7375 0 9 0C9.2625 0 9.525 0.0464135 9.7875 0.139241L16.5375 2.64557C16.9688 2.81266 17.3203 3.08186 17.5922 3.45316C17.8641 3.82447 18 4.24219 18 4.70633V9.96962C18 12.5688 17.25 14.9962 15.75 17.2519C14.25 19.5076 12.2344 21.0532 9.70312 21.8886C9.59062 21.9257 9.47812 21.9536 9.36562 21.9722C9.25313 21.9907 9.13125 22 9 22ZM9 19.7722C10.95 19.1595 12.5625 17.9342 13.8375 16.0962C15.1125 14.2582 15.75 12.216 15.75 9.96962V4.70633L9 2.2L2.25 4.70633V9.96962C2.25 12.216 2.8875 14.2582 4.1625 16.0962C5.4375 17.9342 7.05 19.1595 9 19.7722Z" fill="white"/>
</svg>
