<svg width="16" height="24" viewBox="0 0 16 24" fill="none" xmlns="http://www.w3.org/2000/svg">
<path d="M8 0C9.02564 0 9.89744 0.35 10.6154 1.05C11.3333 1.75 11.6923 2.6 11.6923 3.6C11.6923 4.6 11.3333 5.45 10.6154 6.15C9.89744 6.85 9.02564 7.2 8 7.2C6.97436 7.2 6.10256 6.85 5.38462 6.15C4.66667 5.45 4.30769 4.6 4.30769 3.6C4.30769 2.6 4.66667 1.75 5.38462 1.05C6.10256 0.35 6.97436 0 8 0ZM8 8.4C8.9641 8.4 9.91795 8.51 10.8615 8.73C11.8051 8.95 12.6564 9.26 13.4154 9.66C14.1949 10.04 14.8205 10.49 15.2923 11.01C15.7641 11.53 16 12.1 16 12.72V19.68C16 20.32 15.8103 20.89 15.4308 21.39C15.0513 21.89 14.5538 22.14 13.9385 22.14C13.6308 22.14 13.3641 22.025 13.1385 21.795C12.9128 21.565 12.8 21.24 12.8 20.82V20.34C12.8 19.58 12.2615 18.96 11.1846 18.48C10.1077 18 9.04615 17.76 8 17.76C7.2 17.76 6.41026 17.885 5.63077 18.135C4.85128 18.385 4.2359 18.73 3.78462 19.17C3.62051 19.33 3.57949 19.535 3.66154 19.785C3.74359 20.035 3.91795 20.2 4.18462 20.28C4.84103 20.46 5.50256 20.59 6.16923 20.67C6.8359 20.75 7.52821 20.8 8.24615 20.82C8.69744 20.82 9.08205 20.975 9.4 21.285C9.71795 21.595 9.87692 21.97 9.87692 22.41C9.87692 22.85 9.71795 23.225 9.4 23.535C9.08205 23.845 8.69744 24 8.24615 24C7.52821 24 6.69744 23.92 5.75385 23.76C4.81026 23.6 3.90769 23.35 3.04615 23.01C2.18462 22.67 1.46154 22.225 0.876923 21.675C0.292308 21.125 0 20.46 0 19.68V12.72C0 12.1 0.235897 11.53 0.707692 11.01C1.17949 10.49 1.79487 10.04 2.55385 9.66C3.33333 9.26 4.19487 8.95 5.13846 8.73C6.08205 8.51 7.0359 8.4 8 8.4ZM8 15.6C8.67692 15.6 9.25641 15.365 9.73846 14.895C10.2205 14.425 10.4615 13.86 10.4615 13.2C10.4615 12.54 10.2205 11.975 9.73846 11.505C9.25641 11.035 8.67692 10.8 8 10.8C7.32308 10.8 6.74359 11.035 6.26154 11.505C5.77949 11.975 5.53846 12.54 5.53846 13.2C5.53846 13.86 5.77949 14.425 6.26154 14.895C6.74359 15.365 7.32308 15.6 8 15.6Z" fill="white"/>
</svg>
