<svg width="23" height="21" viewBox="0 0 23 21" fill="none" xmlns="http://www.w3.org/2000/svg">
<path d="M20.8095 6.92783C21.3937 6.92783 21.9048 7.14433 22.3429 7.57732C22.781 8.01031 23 8.51546 23 9.09278V11.2577C23 11.384 22.9817 11.5193 22.9452 11.6637C22.9087 11.808 22.8722 11.9433 22.8357 12.0696L19.55 19.701C19.3857 20.0619 19.1119 20.3686 18.7286 20.6211C18.3452 20.8737 17.9437 21 17.5238 21H5.47619V6.92783L12.0476 0.487113C12.3214 0.216495 12.6454 0.058634 13.0196 0.0135309C13.3938 -0.0315722 13.7544 0.0360825 14.1012 0.216495C14.448 0.396907 14.7036 0.649485 14.8679 0.974227C15.0321 1.29897 15.0687 1.63273 14.9774 1.97552L13.7452 6.92783H20.8095ZM7.66667 7.84794V18.8351H17.5238L20.8095 11.2577V9.09278H10.9524L12.431 3.13918L7.66667 7.84794ZM2.19048 21C1.5881 21 1.07242 20.788 0.643452 20.364C0.214484 19.9401 0 19.4304 0 18.8351V9.09278C0 8.49742 0.214484 7.98776 0.643452 7.56379C1.07242 7.13982 1.5881 6.92783 2.19048 6.92783H5.47619V9.09278H2.19048V18.8351H5.47619V21H2.19048Z" fill="#F7F7F7"/>
</svg>
