<svg width="247" height="62" viewBox="0 0 247 62" fill="none" xmlns="http://www.w3.org/2000/svg">
<path d="M235.819 10.2156C239.049 11.8678 240.464 16.9794 237.632 19.7624C234.484 22.8542 231.479 26.0949 228.042 28.8665C227.92 28.9629 227.622 29.225 227.26 29.5388C230.164 32.364 232.517 35.8478 235.282 38.6604C238.151 41.5793 241.362 43.8914 244.411 46.8489C247.46 49.8063 246.789 54.0644 243.721 56.59C233.187 65.2629 218.492 60.6447 206.456 59.2326C199.881 58.4589 194.263 58.0229 190.003 52.1251C186.513 47.2951 184.203 41.6305 179.827 37.6196C152.764 33.4478 125.731 30.2631 98.4741 27.6389C84.7289 26.3185 71.0335 25.2827 57.2434 24.6394C52.8582 24.4278 48.5106 24.3943 44.1501 24.4498C43.5322 32.0028 41.7036 39.1876 35.7629 40.9518C30.1092 42.6275 24.3286 38.405 19.9519 35.3329C14.1807 31.2751 7.60121 28.5144 2.07433 24.1102C-1.89928 20.9399 0.402637 15.4213 4.21538 13.6681C2.17439 14.604 4.68986 12.7653 5.20184 12.2768C6.14174 11.3925 7.10526 10.6762 8.2395 10.0773C10.6474 8.79866 13.3169 8.3584 15.9246 7.6912C21.7737 6.18984 27.7553 4.78363 33.232 2.13902L33.237 2.14678C33.7591 1.89387 34.3078 1.76855 34.8614 1.74702C38.9072 -2.63962 45.6676 1.96798 44.8803 7.48476C44.6955 8.76987 44.611 10.372 44.5616 12.1748C49.8491 12.1324 55.1016 12.3031 60.4095 12.5487C73.9585 13.1699 87.4333 14.3286 100.937 15.6269C126.858 18.1224 152.576 21.1223 178.309 24.9982C178.554 24.6121 178.856 24.2316 179.225 23.8639C185.939 17.1567 190.878 5.89708 201.176 4.3667C207.048 3.49779 213.201 5.76096 218.958 6.50707C224.715 7.25316 230.534 7.51774 235.819 10.2156ZM220.538 18.9375C219.361 18.825 218.209 18.7246 217.115 18.5936C212.899 18.0889 207.495 15.7275 203.301 16.4165C199.923 16.963 197.321 20.8735 195.285 23.406C194.805 24.0049 194.333 24.6114 193.863 25.2198C197.887 25.5328 201.947 25.3481 206 25.3844C213.687 25.4513 214.339 37.703 206.593 37.6384C202.781 37.604 198.948 37.7108 195.137 37.552C195.788 38.5766 196.423 39.6077 197.049 40.6298C198.11 42.3636 199.106 45.0437 200.888 46.1125C202.67 47.1811 205.594 46.914 207.578 47.1028C214.058 47.7233 222.276 50.389 229.344 49.503C227.27 47.5759 225.249 45.5861 223.379 43.3615C220.783 40.2722 216.496 37.3968 214.52 33.8938C212.194 29.7693 213.785 25.2502 216.952 22.2066C218.122 21.086 219.325 20.0062 220.538 18.9375Z" fill="#F7F7F7"/>
</svg>
