<svg width="296" height="122" viewBox="0 0 296 122" fill="none" xmlns="http://www.w3.org/2000/svg">
<path d="M261.324 4.0796C267.297 2.24059 277.319 -2.48772 283.483 1.64853C289.647 5.78493 285.894 13.0019 282.475 17.5117C280.219 20.4808 277.642 23.1943 275.483 26.23C275.622 26.2659 275.743 26.2941 275.84 26.3106C281.535 27.2799 287.838 27.7797 292.715 31.2834C295.633 33.3773 296.974 38.2302 293.805 40.9282C288.052 45.8392 281.327 47.9742 274.243 50.0736C266.334 52.4241 258.432 54.678 250.461 56.8126C246.631 57.8456 242.685 58.9921 239.18 60.4274C235.675 61.8627 232.132 63.6551 228.433 64.1603C224.733 64.6655 222.465 63.5549 219.121 62.1692C215.777 60.7835 212.154 60.5422 208.749 59.33C207.161 58.7628 206.079 57.7559 205.436 56.5561C192.004 60.5617 178.797 65.8476 165.545 70.3134C150.373 75.4298 135.447 81.5162 120.375 86.7022C105.303 91.8883 89.8958 95.7801 74.4456 99.577C66.5592 101.511 58.5459 102.624 50.6043 104.287C46.4827 105.147 42.427 106.266 38.3629 107.352C38.5273 108.275 38.7258 109.194 38.9712 110.108C39.917 113.619 37.9598 116.131 35.3716 117.082C34.506 120.325 31.2869 122.449 27.901 121.474C19.4513 119.043 12.5776 113.128 4.23237 110.576C0.405153 109.407 -1.04766 104.983 0.793099 101.526C6.8097 90.2193 20.275 86.6934 30.918 81.7234L30.9036 81.7058C37.8361 78.4685 43.6865 88.9222 36.9707 92.3069C37.0389 92.634 37.0913 92.9676 37.1244 93.3051C37.1801 93.8637 37.2271 94.4229 37.2703 94.9823C41.0515 93.9719 44.8332 92.9638 48.6698 92.1824C56.3008 90.6395 63.9866 89.5348 71.56 87.6695C87.0052 83.8528 102.417 79.982 117.489 74.7959C132.627 69.5827 147.476 63.5158 162.659 58.4069C176.447 53.7703 190.184 48.2381 204.174 44.1751C206.934 34.112 205.979 20.9927 216.6 15.8065C222.719 12.8249 229.878 12.8653 236.379 11.2505C244.766 9.16884 253.058 6.61527 261.324 4.0796ZM266.856 15.1696C259.451 17.3501 252.069 19.577 244.635 21.6806C238.539 23.3929 232.447 24.2306 226.28 25.5188C220.473 26.726 219.472 28.717 218.182 34.5304C217.649 36.9244 217.295 39.3651 216.888 41.7919C223.73 39.881 230.514 37.7707 237.2 35.3382C244.479 32.684 247.289 44.62 240.085 47.2447C235.542 48.897 230.958 50.3984 226.343 51.791C226.995 51.8701 227.707 51.8248 228.549 51.5878C234.999 49.7647 241.025 46.6597 247.565 44.9087C254.571 43.0397 261.526 41.2151 268.447 39.041C269.494 38.7127 270.566 38.4088 271.648 38.1073C265.923 36.9518 261.053 34.8692 261.424 28.4665C261.733 23.2634 265.814 18.6197 269.268 14.6203C268.406 14.78 267.587 14.9546 266.856 15.1696Z" fill="#F7F7F7"/>
</svg>
