<svg width="315" height="393" viewBox="0 0 315 393" fill="none" xmlns="http://www.w3.org/2000/svg">
<path d="M132.272 244.121C135.566 240.664 140.39 240.427 144.799 241.025C154.91 242.396 163.852 248.016 172.548 253.087C182.829 259.083 192.833 265.252 202.243 272.611C210.737 279.253 219.818 286.903 230.082 291.64C234.465 292.865 238.578 294.842 242.172 298.111C249.235 304.552 250.453 315.411 252.317 324.328C252.498 325.193 252.433 325.975 252.195 326.656C252.161 326.921 252.101 327.195 252.011 327.479C250.609 331.888 250.29 336.306 248.33 340.562C246.37 344.819 244.077 348.909 241.049 352.471C235.85 358.599 228.781 362.681 220.84 363.481C208.503 364.72 191.797 361.534 183.448 351.399C179.509 346.62 177.519 340.448 176.953 333.953C175.205 332.355 172.661 330.965 170.288 331.867C168.172 332.674 167.124 335.38 166.239 337.307C165.882 338.084 165.4 338.627 164.854 338.974C165.295 341.032 165.778 343.091 165.968 345.188C166.192 347.705 165.941 350.23 166.648 352.679C166.858 353.406 166.882 354.074 166.765 354.672C166.791 354.892 166.803 355.123 166.798 355.364C166.423 371.453 154.767 389.823 138.076 391.777C123.372 393.502 103.237 391.311 96.1602 375.862C92.3404 367.524 90.9343 357.474 92.0977 347.927C91.7642 347.768 91.4362 347.557 91.1191 347.288C89.2751 345.723 87.8731 343.963 85.7637 342.76C83.4026 341.41 81.2791 340.006 79.1426 338.302C74.4272 334.553 69.8752 330.602 65.085 326.95C56.3139 320.259 47.1408 314.012 37.2402 309.191C32.4976 306.889 27.5576 304.747 22.5088 303.252C18.6166 302.097 12.35 301.026 9.47852 305.005C7.62775 307.572 8.02911 311.766 8.41016 314.715C8.87968 318.311 9.89987 321.851 11.0498 325.273C12.7645 330.365 4.87789 332.549 3.17676 327.492C0.978929 320.954 -0.769251 313.664 0.34668 306.736C1.69403 298.362 9.00219 293.604 17.0859 293.875C26.4828 294.188 36.2881 299.28 44.5078 303.571C53.5919 308.322 62.0708 314.242 70.209 320.502C75.0673 324.244 79.701 328.272 84.5117 332.062C86.655 333.753 89.0027 334.865 91.2617 336.354C92.3063 337.04 93.2136 337.865 94.0947 338.72C94.9216 336.14 95.9646 333.662 97.2285 331.339C101.005 324.397 106.993 319.09 114.342 316.481C121.67 313.88 129.679 314.269 137.232 315.417C145.316 316.641 153.591 318.638 159.062 325.343C160.008 326.503 160.812 327.723 161.501 328.993C163.339 326.385 165.747 324.325 169.029 323.618C171.801 323.02 174.553 323.359 177.079 324.364C177.705 318.474 179.275 312.743 181.407 307.947C184.456 301.089 189.736 295.496 196.541 292.533C201.125 290.533 206.034 289.754 210.979 289.613C201.891 283.066 193.362 275.589 183.871 269.579C175.291 264.147 166.513 258.672 157.47 254.061C153.299 251.932 139.982 245.025 137.124 251.577C135.831 254.54 135.852 258.15 135.899 261.329C135.94 263.965 135.648 269.447 137.566 271.464C141.227 275.317 135.463 281.23 131.789 277.369C126.965 272.291 127.25 262.22 127.965 255.646C128.407 251.577 129.367 247.154 132.272 244.121ZM141.928 324.737C130.34 322.094 116.267 320.829 107.558 330.762C99.5692 339.881 98.5752 354.182 101.324 365.589C102.603 370.875 104.53 375.759 109.123 378.889C114.954 382.867 122.085 383.555 128.917 383.625C132.836 383.667 137.117 384.119 140.832 382.616C144.547 381.114 147.535 378.701 150.161 375.946C155.36 370.493 158.456 362.967 158.633 355.364C158.639 355.102 158.664 354.851 158.707 354.614C157.876 351.488 158.238 348.361 157.809 345.188C157.291 341.397 156.482 336.972 154.72 333.578C152.059 328.445 147.289 325.962 141.928 324.737ZM124.964 326.144C129.917 324.328 132.054 332.39 127.135 334.191V334.185C123.494 335.52 120.044 339.22 118.063 342.531C115.321 347.115 115.961 352.568 117.662 357.402C119.445 362.466 111.559 364.65 109.79 359.621C107.375 352.749 107.184 344.722 111.015 338.323C114.172 333.051 119.234 328.237 124.964 326.144ZM223.228 298.612C211.64 297.277 197.643 296.818 190.553 308.177C187.28 313.414 185.722 319.835 185.3 325.983C184.905 331.771 185.143 338.469 188.028 343.637C193.145 352.797 205.849 354.808 215.198 355.204C222.52 355.517 228.685 353.556 233.897 348.103C236.857 345.007 238.906 341.278 240.771 337.418C242.635 333.558 242.839 329.35 244.139 325.26C244.149 325.228 244.159 325.198 244.17 325.167C242.985 318.956 242.138 311.458 238.531 306.354C237.035 304.242 234.976 302.616 232.666 301.402C232.234 301.395 231.77 301.306 231.278 301.116H231.271C229.813 300.554 228.386 299.941 226.985 299.287C225.722 298.975 224.455 298.754 223.228 298.612ZM211.558 300.63C216.654 299.322 218.832 307.369 213.729 308.677L213.722 308.67C208.986 309.887 203.14 311.007 200.977 316.099C198.813 321.19 200.677 328.029 202.916 332.779C205.154 337.53 198.147 341.835 195.867 336.994C192.465 329.767 190.267 320.537 193.499 312.851C196.745 305.123 204.161 302.529 211.558 300.63ZM219.674 2.56738C220.578 -0.149391 224.996 -1.28841 226.572 2.06934C231.717 13.0057 238.053 23.2796 243.437 34.082C248.147 43.5325 252.927 52.7957 258.169 61.957C263.366 71.0316 268.308 80.2555 273.408 89.3838C278.454 98.4016 283.672 107.171 289.673 115.56C292.278 119.198 294.51 123.061 296.896 126.849C299.102 130.345 301.453 133.906 302.661 137.914C302.909 138.735 302.891 139.509 302.69 140.201C302.837 141.563 302.234 142.926 300.537 143.534C295.102 145.48 291.712 152.555 294.621 157.926C297.531 163.296 305.977 161.774 310.619 160.889C314.853 160.082 316.153 166.118 312.841 167.855C313.442 169.485 313.016 171.384 310.915 172.121C304.236 174.469 298.184 178.087 292.175 181.818C286.239 185.506 280.278 188.76 273.936 191.652C267.991 194.366 262.564 197.444 257.66 201.829C254.552 204.609 251.083 207.959 247.046 209.424C249.282 214.37 251.595 219.646 252.043 224.936C252.288 227.881 249.838 229.808 247.097 229.009C245.184 228.455 243.511 227.377 241.885 226.242C241.297 225.832 240.657 225.205 239.983 224.959C239.198 224.669 240.236 224.44 239.552 225.281C236.192 229.391 234.777 235.022 231.857 239.467C230.842 241.009 228.177 241.615 226.748 240.316C223.194 237.079 220.863 233.171 218.768 229.024C213.52 233.513 205.574 235.072 199.023 235.791C191.839 236.578 186.764 234.363 182.19 228.728L182.186 228.735C181.98 228.482 181.816 228.223 181.688 227.963C180.838 227.708 180.102 227.053 179.709 225.888C178.005 220.837 174.49 217.206 171.331 212.711C168.172 208.216 165.072 203.667 162.21 198.972C151.239 180.998 142.212 161.821 132.144 143.32C127.281 134.378 122.095 125.627 117.426 116.57C115.283 112.403 112.707 108.2 111.274 103.858C110.055 100.163 110.329 96.3422 109.812 92.5742C109.233 91.9177 108.866 91.0327 108.892 89.9385C109.112 80.4358 112.88 71.6646 119.101 64.6143C124.564 58.4098 131.16 53.5073 137.858 48.7881C146.235 42.8822 154.692 37.3439 163.737 32.5352C173.585 27.2988 183.641 22.4913 193.284 16.8506C198.033 14.0767 202.751 11.101 207.694 8.70801C211.707 6.76574 216.06 5.61891 219.674 2.56738ZM232.219 195.442C231.62 195.552 230.523 196.634 230.171 196.914C228.888 197.924 227.671 199.036 226.436 200.113C222.982 203.118 219.544 206.055 215.78 208.593C218.212 211.13 219.931 214.637 221.377 217.568C223.547 221.966 225.321 227.009 228.228 231.064C229.185 229.135 230.064 227.161 231.07 225.249C232.419 222.672 234.004 219.54 236.691 218.152C239.007 216.956 240.943 217.33 242.776 218.23C241.728 215.541 240.458 212.916 239.384 210.364C237.347 205.527 233.975 200.962 232.408 195.971C232.326 195.706 232.262 195.542 232.219 195.442ZM287.066 148.537C284.585 149.53 282.119 150.563 279.683 151.665C273.282 154.557 267.355 158.284 261.141 161.545C250.463 167.151 239.264 171.703 228.767 177.68C221.222 181.982 214.287 187.398 207.31 192.583C198.796 198.912 180.47 211.943 188.595 224.641L188.589 224.642C188.737 224.872 188.856 225.106 188.95 225.341C190.1 226.65 191.403 227.843 193.089 228.331C195.172 228.935 197.48 228.565 199.583 228.26C204.891 227.485 211.205 226.361 215.171 222.371C215.262 222.279 215.355 222.194 215.448 222.115C213.907 218.601 211.925 213.609 208.529 212.527L208.53 212.533C205.327 211.516 205.779 207.687 207.927 206.098C208.161 205.18 208.734 204.327 209.735 203.744C215.258 200.529 219.803 195.977 224.69 191.89C228.189 188.961 232.78 186.065 236.853 189.691C238.727 191.356 239.445 193.884 240.566 196.069C241.687 198.254 242.838 200.424 243.925 202.627C248.206 201.645 251.928 197.002 255.102 194.286C260.081 190.032 266.043 187.109 271.952 184.445C281.655 180.071 290.374 173.601 299.873 168.84C294.664 168.157 289.965 165.835 287.649 160.359C287.642 160.343 287.636 160.326 287.629 160.31C281.406 163.649 274.601 165.51 268.292 168.639C262.301 171.61 257.1 175.995 251.313 179.333C247.207 181.704 244.245 174.94 248.307 172.596C254.1 169.257 259.283 164.881 265.285 161.901C271.746 158.695 278.74 156.827 285.087 153.321C285.525 153.08 285.951 152.939 286.355 152.883C286.423 151.414 286.664 149.952 287.066 148.537ZM119.622 77.0371C117.873 80.4423 116.688 84.1794 116.287 88.3418C116.461 88.6557 116.6 89.0101 116.692 89.4082C117.276 91.9434 117.239 94.4688 117.41 97.0537C117.593 99.8754 118.415 102.271 119.593 104.802C121.871 109.682 124.538 114.441 127.091 119.175C131.865 128.025 136.852 136.489 141.697 145.561C146.543 154.632 151.24 163.791 156.068 172.871C160.933 182.027 165.782 191.286 171.513 199.915C174.063 203.757 176.719 207.676 179.433 211.252C179.728 211.641 180.023 212.029 180.317 212.417C181.055 209.812 182.28 207.245 183.94 204.768C184.761 203.544 185.646 202.367 186.584 201.23C184.06 198.846 182.374 195.692 180.955 192.493C179.054 188.204 177.19 183.959 174.858 179.887C169.922 171.259 163.812 163.29 158.447 154.934C153.17 146.707 148.312 138.67 144.091 129.345C139.87 120.02 136.26 110.53 131.827 101.196C127.954 93.0418 123.845 85.0082 119.622 77.0371ZM222.19 9.85254C218.755 12.1221 214.821 13.5114 211.104 15.2598C205.657 17.818 200.511 21.1401 195.309 24.1709C186.154 29.505 176.601 34.0604 167.246 39.0146C158.46 43.6615 150.268 49.0045 142.143 54.7373C135.702 59.2852 129.158 64.1627 124.245 70.1045C124.322 70.2194 124.395 70.3412 124.464 70.4697C129.897 80.6237 135.171 90.8731 140.03 101.323C144.164 110.204 147.536 119.438 151.726 128.278C155.898 137.09 160.979 145.405 166.302 153.529C171.372 161.262 176.946 168.729 181.545 176.772C183.658 180.467 185.455 184.284 187.131 188.195C188.301 190.925 189.489 193.832 191.688 195.835C194.911 192.809 198.419 190.067 201.884 187.469C209.175 182 216.482 176.359 224.333 171.762C235.716 165.094 247.998 160.255 259.603 154.025C265.641 150.781 271.441 147.231 277.718 144.454C283.29 141.984 289.002 139.858 294.699 137.704C293.188 134.449 291.103 131.462 289.225 128.431C286.488 124.023 283.587 119.831 280.593 115.598C274.63 107.178 269.78 98.0205 264.714 88.874C259.648 79.7274 254.69 70.5192 249.425 61.4873C244.125 52.392 239.777 42.8746 234.911 33.5439C230.761 25.5896 226.235 17.8603 222.19 9.85254ZM269.402 173.782C273.207 170.966 277.831 176.68 274.021 179.498C269.579 182.783 264.443 185.477 258.979 186.335L258.974 186.336C254.322 187.065 253.197 179.742 257.842 179.014C262.011 178.358 266.012 176.292 269.402 173.782ZM213.203 32.0879C215.323 31.7045 216.703 33.0248 217.14 34.6514C220.981 38.2828 223.296 43.6673 225.699 48.2578C229.366 55.2594 233.821 61.8033 237.479 68.8252C237.709 69.2678 237.84 69.6982 237.892 70.1084C238.989 71.5327 239.129 73.5679 237.213 74.874C231.618 78.6993 225.167 81.0529 219.438 84.25C213.71 87.4471 207.992 91.075 202.34 93.9717C196.688 96.8684 191.476 100.386 186.619 104.521C181.98 108.469 177.443 112.324 171.492 113.926L171.486 113.927C170.103 114.299 169.04 113.88 168.356 113.082C167.13 113.482 165.742 113.22 164.718 111.858C160.791 106.646 157.321 101.076 153.582 95.7197C150.224 90.9111 148.027 85.3729 144.569 80.6465C140.609 80.4898 139.878 73.985 144.239 73.2783C146.758 72.8724 149.045 70.447 150.946 68.874C153.262 66.957 155.597 65.3184 158.159 63.7607C164.79 59.7384 170.75 55.2076 177.844 51.9902C181.46 50.3513 184.907 48.6156 188.152 46.2939C191.169 44.129 194.107 41.8839 197.229 39.8828C202.174 36.7158 207.353 33.1471 213.203 32.0879ZM212.015 39.9951C207.159 41.5584 202.434 45.047 198.41 47.8799C195.359 50.0254 192.443 52.3616 189.288 54.3555C185.943 56.4748 182.35 58.0223 178.773 59.6797C171.953 62.8329 165.678 67.3972 159.413 71.5527C156.708 73.3493 154.268 75.8695 151.554 77.8184C154.309 82.0891 156.344 86.7976 159.253 90.9717C162.893 96.1856 166.278 101.602 170.078 106.693C170.168 106.663 170.26 106.634 170.354 106.608C175.986 105.091 180.186 100.134 184.733 96.5449C189.28 92.9562 194.193 89.8633 199.326 87.2344C205 84.3216 210.387 80.9438 215.933 77.7959C220.539 75.1781 225.563 73.3458 230.146 70.6953C226.856 64.5841 223.018 58.8166 219.735 52.7148C217.541 48.6345 215.599 43.1549 212.015 39.9951ZM179.718 62.1787C182.769 58.5397 188.666 62.8936 185.632 66.5234C182.598 70.1531 180.384 74.5692 179.239 79.1963C178.209 83.3653 177.74 87.6867 175.194 91.2793C172.424 95.1788 166.515 90.8323 169.279 86.9336C171.626 83.6126 171.621 78.8948 172.816 75.0811C174.274 70.4394 176.667 65.8177 179.718 62.1787ZM200.884 61.2725C203.235 57.1041 209.123 61.4895 206.797 65.6162C205.416 68.0671 204.954 70.9551 203.7 73.4727C202.294 76.2854 200.285 78.7095 198.75 81.4434L198.756 81.4424C196.411 85.6091 190.523 81.2293 192.843 77.0977C194.348 74.4065 196.478 72.0442 197.625 69.1553C198.698 66.4672 199.454 63.8066 200.884 61.2725Z" fill="#264653"/>
</svg>
