<svg width="243" height="169" viewBox="0 0 243 169" fill="none" xmlns="http://www.w3.org/2000/svg">
<path d="M168.317 26.3599C168.446 25.1766 169.745 24.021 171.171 24.7046C173.68 25.9068 175.822 27.791 178.192 29.145C179.229 27.5614 180.747 26.3002 182.573 25.7798C184.73 25.1672 187.051 25.8519 188.561 27.5571C190.157 29.3589 190.541 31.6617 190.258 33.9888C190.194 34.5187 189.82 34.9284 189.352 35.1694C190.014 35.5604 190.675 35.9553 191.333 36.3521C192.139 35.3091 193.113 34.4889 194.257 34.0454C198.395 32.441 201.75 36.4905 201.333 40.4956C201.261 41.1853 200.907 41.6832 200.441 41.9878C201.029 42.3497 201.617 42.7086 202.206 43.0649C203.203 41.5733 204.555 40.4381 206.349 40.0366C210.981 38.9972 212.741 45.1575 212.139 48.6548C212.122 48.7505 212.098 48.8401 212.072 48.9253C212.111 48.9483 212.149 48.9716 212.188 48.9946C212.461 49.159 212.734 49.3263 213.008 49.4927C213.924 48.1492 215.137 46.9526 216.646 46.5815C220.852 45.5525 223.074 50.9499 222.757 54.3657C222.712 54.846 222.528 55.2324 222.267 55.5269C222.72 55.8476 223.169 56.1689 223.611 56.4917C224.562 55.0112 225.852 53.871 227.686 53.4321C232.846 52.1974 234.32 59.4475 233.189 63.104C233.169 63.1707 233.144 63.234 233.119 63.2954C234.536 64.132 236.006 64.8672 237.556 65.4312C237.684 65.478 237.802 65.5363 237.91 65.6001C238.996 65.2255 240.5 65.8025 240.607 67.3325C240.757 69.4056 241.99 71.2568 242.207 73.3481C242.443 75.6241 241.729 77.5011 240.563 79.3882C237.813 83.8397 235.623 88.685 232.601 92.9565C229.607 97.1896 226.509 101.225 223.922 105.748C221.327 110.285 219.002 114.972 216.62 119.626C216.611 119.886 216.548 120.157 216.419 120.431C214.442 124.622 211.953 128.709 209.759 132.592C207.564 136.476 205.398 140.543 203.213 144.26C201.028 147.977 198.473 151.587 196.095 154.966C193.717 158.345 191.532 161.843 190.45 165.895C190.247 166.655 189.735 167.07 189.154 167.21C189.129 167.337 189.103 167.464 189.072 167.589C188.811 168.644 187.769 169.151 186.771 168.947C179.762 167.509 173.533 163.447 167.365 159.942C161.107 156.383 155.174 152.375 149.087 148.539C143.191 144.823 137.049 141.794 131.657 137.285C129.065 135.117 126.566 132.811 123.742 130.954C121.851 129.709 119.79 128.827 117.82 127.726C116.116 126.773 114.204 125.675 114.069 123.496C113.896 120.675 115.847 118.499 116.337 115.852L116.335 115.858C116.368 115.681 116.419 115.523 116.483 115.382C116.456 115.055 116.512 114.705 116.683 114.348C118.25 111.062 121.051 108.641 122.883 105.526C124.907 102.081 126.768 98.572 128.614 95.0259C131.904 88.7048 135.774 82.7094 138.965 76.3384C140.583 73.1092 142.093 69.7877 143.816 66.6499C145.539 63.5121 147.619 60.6801 149.537 57.6118C151.456 54.5435 153.278 51.4153 155.193 48.3462C156.838 45.7089 158.531 43.1543 159.94 40.3735C162.388 35.544 164.535 30.2903 168.317 26.3599ZM119.096 119.482C118.867 119.997 118.632 120.51 118.415 121.03C118.158 121.644 118.036 122.255 117.854 122.885C117.81 123.032 117.806 123.142 117.81 123.212C117.863 123.264 117.918 123.312 117.968 123.345C119.72 124.496 121.589 125.362 123.434 126.34C128.75 129.156 132.835 133.777 137.705 137.245C143.136 141.111 149.191 144.047 154.749 147.733C160.198 151.347 165.81 154.644 171.466 157.905C175.967 160.501 180.544 163.252 185.542 164.704C185.376 162.494 184.239 160.105 183.157 158.438C183.055 158.281 182.983 158.123 182.931 157.969C177.673 155.456 172.431 152.877 167.299 150.103C162.706 147.621 158.283 144.823 153.947 141.906C149.658 139.021 145.542 135.83 141.171 133.079C133.845 128.467 125.624 125.288 119.096 119.482ZM237.346 69.8413C233.128 76.0946 228.983 82.4169 224.938 88.7847C221.403 94.349 219.325 100.55 216.051 106.42C212.777 112.291 210.119 118.467 207.068 124.455C204.023 130.433 200.899 136.733 197.646 142.264C194.535 147.551 190.445 152.115 186.642 156.881C187.301 157.95 187.908 159.168 188.376 160.453C191.252 154.132 196.082 148.771 199.604 142.833C201.982 138.822 204.165 134.7 206.457 130.64C208.709 126.646 211.102 122.731 213.07 118.577C213.077 118.299 213.146 118.007 213.298 117.71C215.593 113.226 217.835 108.706 220.317 104.325C222.788 99.9638 225.607 96.0424 228.604 91.9663C231.6 87.8901 233.687 83.2718 236.31 78.9585C237.38 77.2018 238.742 75.6138 238.4 73.4058C238.206 72.1622 237.731 71.017 237.346 69.8413ZM171.105 29.021C166.848 33.4282 164.833 39.6451 161.858 44.9272C160.214 47.8471 158.365 50.47 156.545 53.4751C154.724 56.4802 153.003 59.3926 150.987 62.4312C148.971 65.4698 147.088 68.5113 145.449 71.7847C143.916 74.8476 142.489 77.9695 140.866 80.9849C137.487 87.2551 133.769 93.3107 130.542 99.6685C128.987 102.726 127.32 105.813 125.446 108.677C123.886 111.061 121.788 113.022 120.389 115.505C124.132 119.204 128.669 121.825 133.251 124.295C137.312 126.485 141.446 128.573 145.243 131.225C149.434 134.149 153.58 137.133 157.849 139.943C166.15 145.409 174.953 149.922 183.878 154.211C185.981 151.575 188.178 149.011 190.236 146.335C192.456 143.452 194.346 140.382 196.105 137.191C199.297 131.401 202.343 125.499 205.23 119.547C206.678 116.564 208.029 113.611 209.526 110.575C211.023 107.538 212.747 104.63 214.256 101.6C215.663 98.7754 216.907 95.8695 218.273 93.0239C219.744 89.9641 221.452 87.115 223.301 84.2837C226.849 78.8546 230.344 73.3895 233.964 68.0103C230.832 66.498 228.002 64.4862 225.204 62.394C224.821 63.9114 224.582 65.4818 224.264 66.7671H224.261C223.664 69.1716 219.994 68.1706 220.589 65.772C221.011 64.0703 221.401 61.9886 222.033 60.0142C219.602 58.2083 217.092 56.5304 214.541 54.9185C214.001 56.6091 213.707 58.4243 213.396 60.0171L213.393 60.0161C212.916 62.4503 209.248 61.4397 209.721 59.021C210.127 56.951 210.551 54.8737 211.285 52.9038C208.86 51.4321 206.413 49.9951 203.971 48.5493C203.673 49.7981 203.575 51.1113 203.581 52.3413C203.594 54.828 199.803 54.8483 199.79 52.3716C199.78 50.6429 200.021 48.537 200.619 46.5503C198.956 45.5463 197.303 44.5267 195.669 43.4751C194.727 42.8692 193.78 42.2732 192.829 41.6831C192.353 43.2739 192.191 45.0046 192.29 46.3784L192.287 46.3774C192.467 48.8632 188.673 48.8694 188.496 46.4077C188.352 44.421 188.7 41.9302 189.538 39.6802C187.148 38.2527 184.733 36.8669 182.296 35.519C181.615 35.1424 180.92 34.7922 180.222 34.4478C179.905 36.3492 179.893 38.4165 179.392 40.0522C178.67 42.4094 174.997 41.4214 175.721 39.0581C176.349 37.0107 176.364 34.7759 176.779 32.7085C176.333 32.465 175.89 32.2138 175.457 31.9448C173.969 31.0201 172.584 29.9466 171.105 29.021ZM60.5957 23.4966C69.0239 20.798 78.3721 23.2322 86.1162 26.8901C89.8528 28.657 93.4514 30.8602 96.3232 33.9028C99.3603 37.1189 101.883 40.9978 104.114 44.8276C108.667 52.6466 111.783 61.0871 110.011 70.3013C108.311 79.1388 103.427 86.4207 98.665 93.8462C96.2028 97.6806 93.2525 100.983 90.8057 105.001C90.1364 106.101 89.5723 107.264 89.1094 108.469C90.1184 108.05 91.3736 108.251 92.0078 109.508C92.8446 111.167 93.8827 112.836 94.0781 114.696C94.9901 114.737 95.8041 115.308 95.9033 116.537C96.1817 119.979 96.064 123.456 93.6494 126.039C93.7573 126.254 93.8365 126.503 93.8779 126.788C94.6806 132.295 89.7745 136.74 84.9727 139.446C85.0736 139.649 85.1509 139.881 85.1953 140.144C85.5693 142.383 85.8488 144.845 84.8975 146.992C83.8233 149.409 81.4694 150.848 78.9805 151.363C76.7258 151.829 74.4888 151.028 73.6963 148.714C73.0393 146.797 73.4607 144.658 73.8398 142.715L73.8457 142.708C73.8643 142.614 73.8866 142.521 73.9121 142.429C72.2952 142.318 70.6921 141.954 69.1523 141.314C66.9274 140.386 64.8799 139.015 63.542 137.049C62.2041 135.083 61.5421 132.756 60.3613 130.698L60.3672 130.7C59.9557 129.981 59.9751 129.302 60.249 128.75C58.2922 126.962 56.8582 124.572 55.6436 122.154L55.2744 121.406C54.6777 120.175 55.213 119.071 56.0957 118.488C55.9193 117.213 56.3402 115.888 57.7002 114.665L57.7031 114.663C57.9948 114.4 58.301 114.233 58.6064 114.142C57.3418 112.959 55.843 111.976 54.4883 111.123C51.1416 109.014 47.5342 107.382 44.0703 105.485C39.5579 103.009 35.1881 100.339 31.4443 96.5845C27.7006 92.8297 25.44 87.8335 23.6455 82.8579C20.7166 74.7413 18.8359 65.8087 21.5967 57.3169C24.1963 49.3297 29.9433 41.8227 36.3662 36.6304C40.0532 33.6512 44.2873 31.209 48.3096 29.1401C52.3317 27.0713 56.2878 24.874 60.5957 23.4966ZM77.9951 147.066C78.0124 147.229 78.0345 147.378 78.0459 147.193C78.0401 147.152 78.0264 147.116 78.0088 147.082C78.0048 147.077 78.0004 147.072 77.9951 147.066ZM77.9941 147.064C77.9991 147.07 78.004 147.074 78.0078 147.079C78.0031 147.07 77.9986 147.061 77.9932 147.052C77.9936 147.056 77.9937 147.06 77.9941 147.064ZM80.7217 141.432C79.9476 141.714 79.16 141.94 78.3643 142.108C78.4677 142.397 78.5034 142.704 78.4434 143.012C78.213 144.193 77.9025 145.647 77.9688 146.75C78.1505 146.724 78.3585 146.703 78.4961 146.664C81.2092 145.89 81.1001 143.79 80.7217 141.432ZM89.2393 129.024C86.1618 130.396 82.6382 130.92 79.2256 131.199C74.9183 131.551 70.2205 132.499 65.9082 131.596C66.2529 132.399 66.6086 133.195 67.0527 133.944C67.9839 135.511 69.5187 136.451 71.1816 137.068C73.885 138.071 76.8373 138.038 79.5195 136.919C81.9448 135.91 84.2759 134.535 86.2754 132.793C87.3398 131.867 88.7892 130.531 89.2393 129.024ZM136.377 106.364C136.22 103.892 139.999 103.881 140.155 106.333C140.275 108.257 141.968 108.415 143.562 108.628C145.305 108.862 147.125 109.008 148.837 109.428C149.834 109.671 150.599 110.25 150.975 111.258C151.11 111.621 151.158 111.987 151.141 112.375C151.142 112.362 151.128 112.583 151.102 112.801C151.413 112.893 151.94 113.176 152.145 113.232C152.596 113.354 153.055 113.448 153.514 113.54C154.252 113.686 155.004 113.791 155.724 114.022C156.64 114.316 157.53 114.735 158.228 115.427C158.74 115.935 159.041 116.596 159.516 117.126C160.773 118.538 163.35 117.849 164.952 118.866C165.825 119.418 165.955 120.291 166.603 120.96C167.072 121.447 168.203 121.469 168.862 121.594C169.973 121.802 171.132 121.958 172.03 122.731C172.736 123.337 172.851 124.07 173.318 124.806C174.134 126.097 176.836 126.297 178.207 126.813C180.736 127.76 183.273 128.749 185.666 130.012C187.832 131.155 185.947 134.458 183.787 133.318C181.078 131.89 178.169 130.745 175.247 129.856C174.059 129.492 172.809 129.181 171.696 128.495C170.584 127.808 170.411 126.986 169.746 125.976C169.293 125.287 168.182 125.346 167.362 125.187C166.369 124.994 165.394 124.777 164.545 124.195C164.062 123.863 163.682 123.425 163.376 122.923C163.224 122.675 163.135 122.242 162.902 122.057C162.24 121.535 160.72 121.71 159.93 121.549C158.774 121.313 157.734 120.752 156.916 119.881C156.449 119.386 156.155 118.696 155.675 118.227C154.526 117.106 152.101 117.252 150.64 116.771C149.149 116.279 146.867 114.986 147.206 113.041C146.928 113.001 146.634 112.929 146.381 112.887C145.643 112.767 144.915 112.613 144.173 112.521C142.431 112.301 140.594 112.17 139.036 111.249C137.254 110.197 136.504 108.365 136.378 106.36L136.377 106.364ZM91.4268 119.788C90.6248 120.294 89.7294 120.703 88.8662 121.108C86.0685 122.42 83.3875 123.868 80.4287 124.792C77.6145 125.668 74.6499 125.922 71.7266 126.001C68.5558 126.09 65.7168 125.899 62.9531 124.896C63.8181 125.757 64.836 126.435 66.0771 126.795C69.7957 127.874 73.758 126.954 77.6836 126.653C81.6092 126.352 86.0067 125.916 89.3916 123.61C90.8362 122.627 91.3211 121.289 91.4268 119.788ZM67.0381 26.9878C62.7702 27.2251 58.7884 29.0032 54.998 30.9194C47.0093 34.9591 38.9735 39.0799 33.2109 46.2681C28.6054 52.0103 24.7666 58.7013 24.7861 66.2778C24.796 70.7001 25.954 75.2669 27.3281 79.4233C28.7022 83.5797 30.4286 88.1541 33.1973 91.5542C38.1689 97.6616 45.7028 101.052 52.4971 104.604C57.8728 107.417 65.4041 111.527 66.0215 118.459L66.0234 118.463C66.1132 119.464 65.6611 120.233 65.0127 120.702C66.1665 121.092 67.3742 121.273 68.6309 121.34C68.5655 121.122 68.5264 120.884 68.5225 120.625C68.4337 115.093 67.7365 109.503 66.0322 104.25C64.9226 100.831 63.3996 97.4615 61.8301 94.1558C59.503 95.08 57.0169 95.4961 54.4902 95.2261C49.9728 94.7401 46.3916 91.9655 44.2646 87.9604C42.5398 84.7099 40.0863 80.553 41.6162 76.7388C43.4934 72.0552 49.1129 71.1404 53.0381 73.3696C56.4352 75.2986 58.9854 78.6423 61.0156 82.1245C60.0997 79.7646 59.632 77.2247 59.7305 74.8081C59.9075 70.4433 62.3483 66.6801 65.8262 64.1948C69.4599 61.5956 73.5766 62.3286 74.9854 66.8335C76.1087 70.4159 75.8097 74.7428 75.0117 78.3989C74.3567 81.3995 72.9316 84.3701 70.9727 86.9653C71.8359 87.3905 72.7632 87.6867 73.7383 87.8403C73.9261 85.7432 74.236 83.6363 74.6982 81.5161C76.1882 74.6891 80.044 62.2729 88.958 62.9575C93.4063 63.2999 95.0496 68.1218 95.0713 72.0239C95.0988 77.1259 92.1986 82.2683 88.9258 85.9741C86.0026 89.2839 82.0512 91.5566 77.957 92.2925C77.8785 96.678 78.4286 101.037 79.1328 105.349C79.5277 107.776 79.9813 110.191 80.4209 112.613C80.8208 114.829 81.0088 117.162 81.9893 119.2C82.2942 119.076 82.5989 118.949 82.9033 118.817C82.8631 118.645 82.8385 118.461 82.834 118.266C82.7233 113.42 83.9209 108.11 86.0938 103.969C88.2667 99.8287 91.4925 96.3563 94.0498 92.4692C99.1768 84.6756 104.871 76.6147 105.851 67.0405C106.722 58.5104 102.378 50.2759 97.8135 43.478C95.5702 40.1422 93.2092 36.8746 89.8604 34.4575C86.5115 32.0406 82.7228 30.3263 78.8164 29.0552C75.0933 27.8434 70.9965 26.7684 67.0381 26.9878ZM67.7021 90.4976C67.0985 91.0285 66.4693 91.5259 65.8174 91.9839C66.1444 92.7287 66.4713 93.4733 66.8027 94.2153C68.0622 97.0356 69.4103 99.772 70.3711 102.722C72.281 108.589 73.0198 114.729 73.1162 120.912L73.124 120.929C73.1258 121.05 73.1179 121.165 73.1055 121.275C74.6418 121.186 76.1115 120.967 77.543 120.63C76.4836 118.081 76.1991 115.253 75.7041 112.542C74.4704 105.799 73.4525 99.1603 73.5137 92.4653C71.4979 92.2486 69.5252 91.6133 67.7021 90.4976ZM61.1221 117.733C61.0248 117.868 60.9088 117.998 60.7725 118.124C60.9331 118.311 61.1389 118.548 61.3145 118.7C61.3428 118.724 61.3735 118.746 61.4023 118.77C61.3362 118.412 61.2417 118.067 61.1221 117.733ZM172.69 106.445C175.335 105.017 178.705 104.315 181.705 104.582C182.916 104.691 183.893 105.702 183.57 106.999C183.055 109.065 185.582 110.654 187.212 111.234C188.638 111.742 189.999 112.058 191.206 113.044C192.126 113.799 192.759 114.726 193.845 115.251C196.049 116.314 194.157 119.619 191.964 118.563C190.412 117.816 189.525 116.163 187.998 115.486C186.471 114.808 184.9 114.551 183.483 113.58C181.637 112.314 180.149 110.516 179.806 108.397C177.999 108.498 176.152 108.947 174.619 109.774L174.614 109.769C172.476 110.921 170.545 107.601 172.69 106.445ZM88.0664 111.958C87.7118 113.563 87.5095 115.203 87.4482 116.836C88.4046 116.428 89.308 115.955 89.4922 115.477C89.8286 114.598 88.6463 112.923 88.0664 111.958ZM151.057 113.079C151.043 113.134 151.03 113.177 151.014 113.197C151.052 113.151 151.062 113.112 151.057 113.079ZM147.885 113.141C147.931 113.189 147.983 113.203 148.049 113.157C148.027 113.173 147.961 113.16 147.885 113.141ZM153.83 90.0435C153.365 87.6201 157.001 86.5949 157.468 89.0249C157.704 90.2659 159.006 90.4867 159.767 91.4497C160.135 91.9131 160.522 92.5736 160.529 93.187C160.532 93.1938 160.533 93.2009 160.535 93.2075C160.574 93.2225 160.62 93.2369 160.668 93.2573C160.907 93.2528 161.217 93.3435 161.451 93.397C163.077 93.7746 164.734 94.4838 166.079 95.4927C166.981 96.1668 167.906 97.8592 168.984 98.1216C171.362 98.7025 170.411 102.412 168.043 101.833C166.224 101.391 165.434 99.8769 164.094 98.7437C162.624 97.5027 160.88 97.3807 159.161 96.8159C158.279 96.5274 157.629 95.9915 157.207 95.147C156.92 94.5699 156.949 94.0019 156.51 93.5591C156.042 93.0889 155.348 92.8675 154.889 92.353C154.301 91.7012 153.992 90.8972 153.83 90.0435ZM176.548 78.0874C177.696 76.5967 179.547 77.8888 179.657 79.437C180.086 79.5576 180.515 79.6727 180.948 79.7769C182.07 80.0443 183.261 80.2613 184.288 80.8267C185.395 81.4369 185.999 82.4762 186.188 83.7202C186.235 84.022 186.269 84.3557 186.263 84.6772C186.294 84.682 186.329 84.6861 186.37 84.688C186.741 84.7057 187.344 85.077 187.75 85.187C189.689 85.7186 191.158 86.3571 192.25 88.146C192.611 88.7394 192.645 88.9269 193.257 89.1255C193.974 89.3591 194.824 89.2459 195.562 89.4458C197.154 89.8801 198.14 91.1225 198.253 92.7983C198.304 93.5587 198.12 93.7598 198.819 94.1011C199.519 94.4423 200.24 94.7075 200.981 94.9478C203.3 95.7044 202.365 99.4156 200.04 98.6577C198.314 98.0947 196.104 97.433 195.057 95.7915C194.66 95.1686 194.255 93.9257 194.48 93.1675C194.478 93.152 194.476 93.137 194.474 93.1226L194.454 93.1177C194.04 93.1574 193.479 92.999 193.06 92.9448C192.105 92.8252 191.254 92.6343 190.481 92.0024C189.761 91.411 189.46 90.6192 188.898 89.9155C188.244 89.0907 187.29 89.0697 186.31 88.7681C185.33 88.4665 184.256 88.0339 183.493 87.3022C182.459 86.3153 182.717 85.3448 182.429 84.1577C182.421 84.1543 182.413 84.1506 182.405 84.147C182.384 84.1404 181.972 83.9897 181.836 83.9497C181.234 83.7637 180.618 83.6365 180.006 83.4907C178.797 83.2032 177.367 82.9278 176.449 81.9956C175.259 80.7879 175.631 79.2828 176.546 78.0933L176.548 78.0874ZM146.745 88.271C146.917 87.2081 148.12 86.6998 149.05 86.9087C149.486 87.0081 149.921 87.3588 150.166 87.7427C150.791 87.7542 151.377 88.0664 151.766 88.6772C152.295 89.5127 151.987 90.8666 151.099 91.3081C150.677 91.5151 150.262 91.6715 149.8 91.7417C149.094 91.8484 148.429 91.9435 147.759 91.5864C147.049 91.2054 146.668 90.2607 146.611 89.4937C146.581 89.0848 146.683 88.6715 146.748 88.272L146.745 88.271ZM51.2969 77.8354C50.031 76.9662 48.6452 76.3496 47.1357 77.2339C45.6266 78.1181 45.5873 79.3411 46.0645 80.8853C46.9038 83.592 48.6058 87.0894 50.7949 88.8667C53.201 90.8172 56.4054 90.9687 59.2803 90.0708C59.454 90.0165 59.6253 89.9564 59.7959 89.896C59.7235 89.7436 59.65 89.592 59.5781 89.4399C57.5957 85.2437 55.1989 80.5078 51.2969 77.8354ZM15.4736 80.9214C18.2981 80.001 19.1188 84.6045 16.3203 85.5171C12.8125 86.6588 9.16351 87.2773 5.80566 88.8813C3.11444 90.1689 1.09589 85.9814 3.78711 84.6938C7.52573 82.9096 11.5684 82.1909 15.4736 80.9214ZM63.1582 86.1606C63.4058 86.6648 63.649 87.1711 63.8867 87.6802C63.9807 87.6089 64.0717 87.5338 64.1641 87.4604C63.8108 87.0476 63.475 86.6133 63.1582 86.1606ZM88.3311 67.6294C85.7631 67.5304 83.7545 70.5938 82.6631 72.5425C80.1816 76.9683 78.8246 82.3566 78.2607 87.563C84.2349 85.9554 89.2017 79.746 90.3154 73.812C90.6304 72.1443 90.8988 67.7286 88.3311 67.6294ZM70.0518 67.2524C69.1641 66.9276 67.2713 69.0167 66.7988 69.5181C66.0519 70.3157 65.3003 71.2467 64.8643 72.2612C63.3296 75.8251 64.9716 80.5994 67.0381 83.5415C67.1585 83.713 67.283 83.8805 67.4111 84.0435C69.4413 81.2275 70.6903 77.8066 70.959 74.3521C71.0846 72.7021 71.1297 71.0181 70.8545 69.3843C70.7715 68.8903 70.6047 67.4557 70.0518 67.2524ZM174.452 54.5845C175.617 54.1804 176.834 55.2449 176.858 56.4194C176.881 57.4584 176.659 58.425 176.36 59.4067C176.337 59.4861 176.28 59.6717 176.226 59.8579C176.971 59.8855 177.758 60.1802 178.524 60.2261C179.35 60.2745 180.177 60.2643 181.004 60.27C182.537 60.2788 184.04 60.3517 185.552 60.6353C186.579 60.8272 187.132 62.0363 186.911 62.9829C186.542 64.5789 189.433 65.8988 190.52 66.4468C192.302 67.3479 194.194 68.0447 196.099 68.606C197.382 68.9827 198.884 69.3925 199.667 70.5972C200.276 71.5372 199.838 73.1582 200.619 73.729C201.658 74.4881 203.612 74.3531 204.828 74.7876C205.554 75.0467 206.207 75.3924 206.779 75.9233C207.167 76.2825 207.606 77.0437 207.95 77.0083C210.374 76.7565 210.41 80.5943 208.016 80.8442C207.008 80.9479 206.134 80.6286 205.369 79.9565C204.829 79.4804 204.451 78.8007 203.812 78.4663C202.391 77.7253 200.549 77.8637 199.088 77.188C197.627 76.5122 196.25 75.0147 196.469 73.2427C196.467 73.0735 196.466 72.9049 196.465 72.7358C196.203 72.5627 195.823 72.5071 195.537 72.4204C194.947 72.2411 194.355 72.0834 193.771 71.8794C190.259 70.6529 183.974 68.4506 183.183 64.1802C179.985 64.0048 176.119 64.7535 173.57 62.73C172.388 61.7897 172.296 60.7642 172.484 59.6851C171.93 59.9312 171.367 60.1427 170.818 60.2563C168.699 60.696 166.779 59.4905 166.908 57.1333L166.907 57.1362C167.025 54.9922 169.924 54.6936 170.564 56.2925C170.9 56.1648 171.263 56.0651 171.578 55.9185C172.534 55.4777 173.452 54.9308 174.452 54.5845ZM161.814 67.5894C163.351 65.686 166.03 68.43 164.502 70.3228C164.248 70.6384 164.026 70.9801 163.82 71.3325C165.227 72.2098 167.155 72.9196 168.489 72.9819C169.096 73.0102 169.556 73.2711 169.866 73.645C170.449 72.8603 171.465 72.6462 172.347 73.1157C173.233 73.5882 173.57 74.8991 173.047 75.7515C172.757 76.2232 172.427 76.6674 172.068 77.0874C171.747 77.4644 171.226 77.6218 170.753 77.646C170.243 77.6734 169.755 77.4212 169.388 77.0767C169.295 76.9895 169.212 76.8843 169.14 76.769C168.964 76.8154 168.769 76.8386 168.555 76.8286C165.742 76.6955 162.113 75.176 160.045 73.2026C159.422 72.6071 159.347 71.6036 159.734 70.8745C160.352 69.7116 160.984 68.6118 161.812 67.5884L161.814 67.5894ZM115.049 69.8608C119.797 68.9291 124.462 70.1848 129.17 70.6401C132.112 70.9258 131.779 75.6121 128.823 75.3247C124.56 74.9092 120.189 73.6215 115.896 74.4653C112.977 75.0379 112.126 70.4359 115.049 69.8608ZM1.08691 59.6919C-1.52337 58.2548 1.06333 54.3312 3.64453 55.7524C7.17165 57.6912 10.9815 59.0459 14.5752 60.855C17.2276 62.1921 14.6358 66.1147 12.0176 64.7954C8.42214 62.9828 4.62261 61.6395 1.08691 59.6919ZM229.698 61.0474C229.875 59.0921 229.512 56.0111 227.493 57.8403C227.184 58.12 226.913 58.4403 226.672 58.7915C227.67 59.5523 228.674 60.3149 229.698 61.0474ZM126.927 47.0747C129.592 45.7272 131.604 49.9091 128.944 51.2583C124.474 53.5216 120.028 56.2545 115.032 57.0444C112.109 57.5074 111.251 52.9178 114.187 52.4526C118.769 51.7294 122.825 49.1509 126.927 47.0747ZM169.688 56.5483C169.687 56.5561 169.697 56.5591 169.714 56.5601L169.688 56.5483ZM218.938 53.2485C218.792 51.6773 218.214 49.5513 216.85 50.8618C216.638 51.0653 216.44 51.2819 216.257 51.5103C217.157 52.0822 218.053 52.6614 218.938 53.2485ZM207.983 44.6011C207.472 43.6405 207.163 43.6363 206.38 44.2993C206.092 44.5422 205.832 44.8071 205.598 45.0903C206.572 45.6669 207.549 46.2422 208.528 46.8198C208.516 46.0517 208.328 45.2515 207.983 44.6011ZM197.561 40.1919C197.594 38.578 196.723 36.571 194.947 38.0688C194.837 38.1616 194.731 38.2606 194.629 38.3647C195.613 38.9731 196.59 39.5843 197.561 40.1919ZM16.3809 26.3989C13.7953 24.9113 16.3798 20.9815 18.9414 22.4546C21.1588 23.7322 22.6909 25.7772 24.5947 27.4409C26.7429 29.3165 29.0885 31.1358 31.4756 32.6851C33.9804 34.3096 31.3199 38.1906 28.9141 36.6294C26.5081 35.0679 24.2465 33.2143 22.0342 31.3843C20.0937 29.7785 18.5794 27.6644 16.3809 26.3989ZM112.094 20.2114C114.3 18.1577 117.335 21.6511 115.14 23.6909C111.047 27.4925 107.478 31.8542 102.411 34.3735L102.412 34.3774C99.7377 35.7082 97.7227 31.5186 100.394 30.189C105.052 27.8726 108.328 23.7124 112.094 20.2114ZM185.372 29.7642C184.239 28.9731 182.942 29.6254 182.039 30.4517C181.876 30.6014 181.727 30.7613 181.59 30.9292C182.981 31.6289 184.376 32.3225 185.736 33.0854C186.016 33.2422 186.293 33.4025 186.572 33.561C186.558 33.3757 186.564 33.1851 186.587 32.9937C186.723 31.8504 186.352 30.4508 185.372 29.7642ZM80.9951 1.54248C82.0005 -1.31662 86.3637 0.16225 85.3604 3.0249C83.7224 7.68702 81.8808 12.4442 81.6016 17.4272L81.5986 17.4292C81.4291 20.4523 76.8265 20.1486 76.9961 17.1255C77.298 11.7431 79.2247 6.58134 80.9951 1.54248ZM47.9648 5.22803C46.6806 2.50256 50.8444 0.394755 52.127 3.1167C54.1235 7.35496 55.4837 11.8854 57.749 15.9917C59.2066 18.6291 55.0327 20.7244 53.5869 18.103C51.3216 13.9968 49.9613 9.46623 47.9648 5.22803Z" fill="#264653"/>
</svg>
