<svg width="331" height="390" viewBox="0 0 331 390" fill="none" xmlns="http://www.w3.org/2000/svg">
<path d="M213.797 165.23C213.998 163.368 216.042 161.549 218.286 162.625C222.233 164.515 225.603 167.478 229.331 169.609C230.962 167.117 233.356 165.135 236.23 164.316C239.624 163.352 243.277 164.43 245.652 167.114C248.165 169.949 248.768 173.573 248.323 177.235C248.223 178.069 247.635 178.715 246.897 179.094C247.94 179.709 248.979 180.329 250.015 180.954C251.283 179.312 252.817 178.023 254.617 177.325C261.129 174.8 266.409 181.171 265.752 187.474C265.639 188.56 265.082 189.343 264.349 189.823C265.272 190.392 266.196 190.956 267.123 191.516C268.692 189.169 270.822 187.384 273.645 186.752C280.934 185.117 283.704 194.81 282.756 200.314C282.73 200.465 282.695 200.607 282.654 200.742C282.714 200.777 282.773 200.813 282.833 200.849C283.264 201.108 283.693 201.371 284.125 201.633C285.566 199.519 287.476 197.636 289.851 197.052C296.468 195.432 299.966 203.926 299.467 209.301C299.396 210.057 299.107 210.665 298.695 211.128C299.408 211.633 300.113 212.138 300.809 212.645C302.305 210.316 304.336 208.523 307.222 207.833C315.342 205.889 317.662 217.299 315.884 223.053C315.851 223.159 315.814 223.26 315.773 223.358C318.003 224.674 320.316 225.828 322.755 226.715C322.958 226.789 323.143 226.878 323.314 226.979C325.024 226.391 327.388 227.3 327.558 229.707C327.793 232.969 329.733 235.883 330.074 239.174C330.445 242.756 329.323 245.709 327.488 248.678C323.161 255.684 319.714 263.309 314.957 270.031C310.246 276.692 305.372 283.043 301.3 290.16C297.217 297.3 293.557 304.675 289.81 312C289.795 312.409 289.696 312.835 289.492 313.267C286.38 319.863 282.464 326.293 279.011 332.405C275.557 338.516 272.148 344.917 268.71 350.766C265.272 356.615 261.251 362.296 257.509 367.614C253.766 372.931 250.328 378.436 248.625 384.812C248.305 386.007 247.502 386.663 246.588 386.883C246.549 387.083 246.507 387.281 246.458 387.478C246.047 389.138 244.407 389.937 242.837 389.616C231.807 387.353 222.005 380.96 212.299 375.445C202.45 369.844 193.113 363.535 183.534 357.499C174.256 351.652 164.59 346.886 156.105 339.79C152.026 336.379 148.095 332.748 143.65 329.826C140.675 327.867 137.43 326.48 134.33 324.748C131.648 323.248 128.64 321.518 128.429 318.089C128.155 313.651 131.226 310.227 131.996 306.061L131.993 306.071C132.045 305.792 132.124 305.542 132.226 305.319C132.183 304.805 132.274 304.255 132.541 303.695C135.007 298.523 139.415 294.713 142.298 289.811C145.483 284.39 148.411 278.868 151.316 273.288C156.494 263.34 162.584 253.906 167.605 243.88C170.152 238.799 172.529 233.571 175.24 228.633C177.952 223.695 181.223 219.238 184.242 214.41C187.261 209.581 190.129 204.659 193.144 199.83C195.732 195.679 198.396 191.659 200.613 187.283C204.465 179.683 207.844 171.415 213.797 165.23ZM136.342 311.78C135.983 312.589 135.608 313.393 135.268 314.209C134.863 315.176 134.67 316.137 134.382 317.129C134.314 317.36 134.307 317.532 134.312 317.643C134.397 317.725 134.484 317.801 134.562 317.853C137.319 319.664 140.262 321.027 143.165 322.566C151.531 326.996 157.959 334.269 165.623 339.725C174.169 345.81 183.698 350.43 192.444 356.231C201.02 361.918 209.85 367.108 218.751 372.239C225.835 376.324 233.038 380.654 240.902 382.939C240.641 379.462 238.854 375.702 237.15 373.078C236.989 372.829 236.87 372.581 236.788 372.338C228.516 368.385 220.267 364.327 212.192 359.961C204.964 356.056 198.006 351.651 191.183 347.061C184.433 342.522 177.955 337.501 171.076 333.17C159.55 325.914 146.614 320.913 136.342 311.78ZM322.423 233.659C315.786 243.498 309.263 253.446 302.897 263.465C297.335 272.222 294.066 281.98 288.913 291.218C283.761 300.457 279.58 310.177 274.778 319.599C269.985 329.008 265.069 338.922 259.949 347.625C255.055 355.945 248.62 363.126 242.636 370.625C243.674 372.307 244.626 374.227 245.362 376.248C249.888 366.301 257.489 357.864 263.032 348.52C266.774 342.209 270.209 335.721 273.815 329.333C277.359 323.049 281.122 316.892 284.22 310.356C284.229 309.916 284.34 309.454 284.58 308.985C288.193 301.927 291.721 294.815 295.628 287.92C299.516 281.058 303.952 274.887 308.667 268.472C313.382 262.058 316.666 254.79 320.794 248.002C322.478 245.238 324.621 242.739 324.084 239.264C323.778 237.308 323.03 235.508 322.423 233.659ZM218.187 169.416C211.484 176.351 208.314 186.135 203.632 194.449C201.044 199.044 198.135 203.171 195.271 207.9C192.406 212.629 189.697 217.212 186.524 221.994C183.352 226.775 180.389 231.562 177.81 236.713C175.397 241.533 173.152 246.446 170.598 251.191C165.28 261.059 159.429 270.589 154.351 280.594C151.904 285.405 149.28 290.262 146.332 294.77C143.876 298.521 140.571 301.604 138.369 305.512C144.261 311.334 151.401 315.46 158.613 319.348C165.005 322.794 171.509 326.079 177.484 330.253C184.079 334.855 190.604 339.552 197.321 343.973C210.385 352.575 224.235 359.682 238.28 366.431C241.591 362.28 245.05 358.244 248.29 354.033C251.783 349.494 254.756 344.664 257.525 339.642C262.548 330.531 267.341 321.242 271.886 311.875C274.163 307.181 276.29 302.534 278.646 297.756C281.001 292.978 283.714 288.401 286.088 283.633C288.302 279.188 290.26 274.616 292.41 270.138C294.724 265.323 297.413 260.838 300.322 256.382C305.906 247.838 311.407 239.238 317.104 230.773C312.176 228.393 307.721 225.228 303.318 221.936C302.716 224.324 302.339 226.795 301.838 228.818L301.833 228.817C300.894 232.601 295.117 231.026 296.054 227.251C296.719 224.574 297.334 221.298 298.328 218.191C294.501 215.348 290.552 212.704 286.536 210.167C285.685 212.828 285.226 215.687 284.735 218.195L284.73 218.193C283.98 222.023 278.207 220.434 278.951 216.627C279.59 213.37 280.259 210.102 281.414 207.002C277.597 204.686 273.746 202.424 269.903 200.149C269.435 202.114 269.28 204.18 269.29 206.116C269.311 210.029 263.344 210.061 263.324 206.164C263.309 203.443 263.686 200.13 264.628 197.003C262.011 195.424 259.41 193.818 256.839 192.164C255.356 191.209 253.864 190.271 252.367 189.341C251.618 191.845 251.367 194.57 251.522 196.732L251.518 196.73C251.802 200.642 245.83 200.653 245.552 196.779C245.326 193.652 245.874 189.732 247.192 186.191C243.43 183.944 239.63 181.764 235.794 179.643C234.722 179.05 233.628 178.499 232.529 177.957C232.03 180.949 232.012 184.203 231.224 186.777C230.087 190.486 224.308 188.931 225.446 185.212C226.434 181.992 226.459 178.477 227.112 175.225C226.409 174.842 225.714 174.443 225.032 174.019C222.69 172.564 220.514 170.872 218.187 169.416ZM163.533 291.128C163.287 287.239 169.232 287.223 169.478 291.081C169.667 294.109 172.332 294.358 174.841 294.694C177.583 295.062 180.447 295.291 183.141 295.952C184.71 296.334 185.913 297.246 186.505 298.832C186.719 299.403 186.793 299.978 186.767 300.588C186.766 300.607 186.746 300.935 186.707 301.258C187.197 301.403 188.024 301.852 188.346 301.939C189.056 302.131 189.778 302.279 190.5 302.422C191.662 302.653 192.845 302.818 193.979 303.181C195.42 303.643 196.821 304.302 197.918 305.392C198.725 306.191 199.199 307.232 199.945 308.067C201.924 310.288 205.979 309.205 208.5 310.804C209.874 311.673 210.078 313.047 211.098 314.1C211.836 314.865 213.617 314.9 214.654 315.097C216.402 315.424 218.226 315.669 219.64 316.886C220.751 317.84 220.93 318.993 221.666 320.152C222.949 322.184 227.202 322.499 229.359 323.31C233.339 324.801 237.333 326.357 241.099 328.345C244.507 330.143 241.539 335.343 238.14 333.547C233.876 331.3 229.299 329.497 224.701 328.099C222.832 327.526 220.864 327.036 219.113 325.956C217.363 324.875 217.091 323.584 216.044 321.994C215.33 320.909 213.584 321.002 212.294 320.751C210.73 320.448 209.197 320.106 207.86 319.19C207.101 318.668 206.502 317.978 206.021 317.189C205.782 316.798 205.642 316.116 205.275 315.825C204.233 315.004 201.84 315.28 200.597 315.027C198.779 314.655 197.142 313.772 195.854 312.402C195.119 311.622 194.656 310.538 193.9 309.799C192.093 308.035 188.276 308.264 185.977 307.507C183.631 306.734 180.042 304.698 180.573 301.639C180.136 301.578 179.672 301.461 179.274 301.396C178.113 301.206 176.969 300.964 175.801 300.82C173.059 300.473 170.168 300.267 167.717 298.816C164.912 297.161 163.732 294.279 163.534 291.124L163.533 291.128ZM220.678 291.257C224.84 289.011 230.143 287.905 234.864 288.326C236.77 288.498 238.306 290.088 237.799 292.128C236.989 295.381 240.966 297.881 243.53 298.793C245.775 299.593 247.916 300.09 249.815 301.643C251.264 302.83 252.259 304.289 253.968 305.116C257.437 306.788 254.46 311.989 251.008 310.328C248.566 309.152 247.169 306.55 244.767 305.484C242.364 304.418 239.891 304.014 237.662 302.486C234.756 300.494 232.415 297.664 231.875 294.33C229.032 294.489 226.127 295.196 223.714 296.497L223.705 296.489C220.341 298.302 217.301 293.077 220.678 291.257ZM186.634 301.696C186.613 301.784 186.592 301.851 186.565 301.882C186.627 301.81 186.642 301.749 186.634 301.696ZM181.633 301.792C181.708 301.872 181.795 301.895 181.9 301.82C181.865 301.846 181.757 301.823 181.633 301.792ZM190.998 265.447C190.267 261.633 195.989 260.019 196.723 263.844C197.095 265.797 199.142 266.143 200.339 267.659C200.919 268.388 201.527 269.427 201.539 270.393C201.542 270.402 201.545 270.411 201.548 270.419C201.611 270.443 201.681 270.471 201.758 270.503C202.134 270.496 202.622 270.639 202.99 270.723C205.55 271.317 208.157 272.434 210.274 274.022C211.694 275.083 213.149 277.746 214.846 278.159C218.587 279.073 217.09 284.91 213.363 284C210.502 283.302 209.257 280.921 207.148 279.138C204.836 277.185 202.092 276.994 199.387 276.105C197.998 275.651 196.975 274.806 196.312 273.477C195.859 272.569 195.906 271.677 195.215 270.98C194.479 270.24 193.387 269.891 192.663 269.082C191.738 268.056 191.253 266.79 190.998 265.447ZM226.747 246.631C228.554 244.285 231.467 246.319 231.641 248.755C232.315 248.945 232.99 249.127 233.673 249.291C235.439 249.711 237.312 250.053 238.929 250.943C240.671 251.903 241.621 253.538 241.92 255.496C241.993 255.971 242.048 256.496 242.037 257.002C242.086 257.01 242.142 257.016 242.206 257.019C242.789 257.047 243.738 257.631 244.377 257.804C247.428 258.641 249.739 259.646 251.457 262.461C252.026 263.395 252.08 263.69 253.042 264.002C254.17 264.37 255.509 264.192 256.671 264.506C259.176 265.19 260.727 267.145 260.904 269.782C260.985 270.979 260.696 271.294 261.796 271.832C262.896 272.369 264.032 272.785 265.198 273.164C268.847 274.354 267.376 280.196 263.717 279.002C261.001 278.116 257.525 277.076 255.876 274.493C255.252 273.513 254.615 271.557 254.969 270.364C254.964 270.339 254.962 270.315 254.958 270.292L254.927 270.285C254.275 270.347 253.393 270.098 252.732 270.013C251.23 269.825 249.89 269.524 248.675 268.53C247.541 267.599 247.067 266.352 246.184 265.245C245.153 263.947 243.652 263.915 242.11 263.44C240.568 262.965 238.878 262.284 237.677 261.132C236.049 259.579 236.457 258.052 236.003 256.183C235.991 256.178 235.979 256.172 235.966 256.167C235.998 256.18 235.295 255.923 235.07 255.857C234.123 255.564 233.152 255.364 232.189 255.134C230.288 254.682 228.037 254.249 226.593 252.782C224.72 250.881 225.305 248.513 226.745 246.641L226.747 246.631ZM179.848 262.658C180.118 260.985 182.011 260.184 183.475 260.513C184.161 260.669 184.845 261.222 185.231 261.826C186.215 261.844 187.137 262.336 187.749 263.297C188.582 264.612 188.097 266.743 186.698 267.437C186.035 267.763 185.382 268.008 184.655 268.119C183.544 268.287 182.498 268.436 181.443 267.874C180.326 267.274 179.727 265.788 179.638 264.581C179.59 263.937 179.75 263.287 179.853 262.659L179.848 262.658ZM223.451 209.646C225.285 209.01 227.198 210.685 227.236 212.534C227.272 214.169 226.923 215.689 226.453 217.234C226.417 217.358 226.329 217.649 226.243 217.941C226.246 217.943 226.246 217.943 226.242 217.943V217.944C227.415 217.987 228.654 218.452 229.859 218.524C231.158 218.6 232.46 218.583 233.761 218.592C236.173 218.606 238.539 218.722 240.918 219.168C242.534 219.471 243.405 221.373 243.058 222.863C242.477 225.374 247.026 227.451 248.735 228.313C251.54 229.731 254.519 230.828 257.516 231.711C259.535 232.304 261.899 232.949 263.131 234.845C264.088 236.325 263.4 238.875 264.628 239.773C266.263 240.968 269.338 240.756 271.252 241.44C272.395 241.848 273.422 242.39 274.322 243.225C274.933 243.79 275.624 244.99 276.166 244.934C279.98 244.538 280.036 250.576 276.269 250.969C274.683 251.132 273.308 250.63 272.104 249.573C271.254 248.823 270.658 247.754 269.653 247.228C267.416 246.062 264.519 246.28 262.22 245.217C259.92 244.154 257.753 241.797 258.098 239.008C258.094 238.742 258.093 238.477 258.091 238.21C257.679 237.938 257.082 237.85 256.632 237.713C255.703 237.431 254.771 237.184 253.853 236.863C248.325 234.933 238.435 231.466 237.189 224.746C232.158 224.47 226.073 225.649 222.062 222.464C220.202 220.985 220.057 219.371 220.354 217.673C219.481 218.061 218.595 218.393 217.732 218.572C214.397 219.264 211.375 217.366 211.579 213.657L211.578 213.662C211.764 210.288 216.325 209.817 217.333 212.333C217.861 212.133 218.433 211.976 218.928 211.746C220.432 211.052 221.877 210.191 223.451 209.646ZM203.562 230.111C205.981 227.116 210.197 231.435 207.793 234.414C207.394 234.91 207.045 235.447 206.721 236.001C208.934 237.382 211.967 238.499 214.066 238.597C215.022 238.642 215.745 239.053 216.233 239.641C217.15 238.406 218.748 238.069 220.137 238.808C221.532 239.552 222.063 241.614 221.239 242.956C220.784 243.698 220.262 244.397 219.698 245.058C219.193 245.651 218.374 245.898 217.629 245.936C216.826 245.979 216.057 245.584 215.479 245.042C215.334 244.905 215.204 244.74 215.091 244.559C214.814 244.632 214.508 244.667 214.17 244.651C209.744 244.441 204.032 242.05 200.777 238.945C199.798 238.008 199.68 236.428 200.289 235.281C201.262 233.451 202.255 231.72 203.558 230.11L203.562 230.111ZM95.3584 36.9761C108.622 32.7295 123.332 36.5596 135.519 42.3159C141.399 45.0965 147.063 48.5637 151.582 53.3521C156.361 58.4131 160.33 64.5175 163.842 70.5444C171.007 82.8489 175.909 96.1313 173.12 110.631C170.445 124.539 162.761 135.998 155.267 147.683C151.392 153.717 146.748 158.915 142.897 165.239C141.844 166.968 140.958 168.798 140.229 170.695C141.817 170.035 143.793 170.352 144.791 172.331C146.108 174.941 147.742 177.568 148.049 180.495C149.484 180.56 150.764 181.457 150.92 183.39C151.358 188.808 151.173 194.279 147.374 198.343C147.544 198.682 147.668 199.074 147.733 199.522C148.996 208.189 141.277 215.184 133.721 219.442C133.879 219.762 134 220.128 134.069 220.542C134.658 224.065 135.097 227.94 133.6 231.317C131.909 235.121 128.206 237.385 124.289 238.196C120.741 238.929 117.22 237.669 115.973 234.027C114.939 231.01 115.603 227.644 116.199 224.587L116.208 224.577C116.237 224.428 116.273 224.281 116.313 224.136C113.769 223.962 111.245 223.39 108.822 222.382C105.321 220.922 102.099 218.764 99.9941 215.67C97.8888 212.577 96.8473 208.915 94.9893 205.675L94.998 205.678C94.3504 204.547 94.3801 203.479 94.8115 202.61C91.7326 199.795 89.4758 196.035 87.5645 192.23L86.9834 191.053C86.0452 189.119 86.8857 187.383 88.2725 186.464C87.9938 184.458 88.6597 182.37 90.8008 180.445L90.8066 180.442C91.265 180.029 91.7447 179.764 92.2246 179.621C90.2349 177.76 87.8772 176.213 85.7461 174.871C80.4795 171.552 74.8026 168.983 69.3516 165.999C62.2505 162.103 55.3739 157.9 49.4824 151.992C43.5912 146.083 40.0339 138.221 37.21 130.391C32.6009 117.618 29.641 103.562 33.9854 90.1987C38.0762 77.6294 47.1199 65.8151 57.2275 57.644C63.0297 52.9556 69.6927 49.1127 76.0225 45.8569C82.3523 42.6011 88.5788 39.1437 95.3584 36.9761ZM122.737 231.433C122.765 231.691 122.8 231.925 122.818 231.633C122.809 231.57 122.788 231.512 122.761 231.458C122.754 231.451 122.746 231.443 122.737 231.433ZM122.737 231.429C122.746 231.439 122.753 231.447 122.759 231.455C122.751 231.439 122.745 231.423 122.735 231.409C122.736 231.416 122.737 231.422 122.737 231.429ZM127.034 222.567C125.814 223.011 124.573 223.367 123.319 223.631C123.482 224.086 123.538 224.569 123.443 225.054C123.081 226.913 122.592 229.2 122.696 230.936C122.982 230.895 123.31 230.863 123.526 230.8C127.796 229.582 127.63 226.277 127.034 222.567ZM310.392 219.816C310.67 216.739 310.096 211.891 306.919 214.769C306.432 215.21 306.006 215.715 305.626 216.269C307.197 217.466 308.78 218.663 310.392 219.816ZM140.434 203.041C135.591 205.199 130.045 206.026 124.675 206.464C117.897 207.018 110.504 208.511 103.718 207.09C104.26 208.353 104.821 209.606 105.52 210.784C106.985 213.251 109.4 214.728 112.018 215.7C116.272 217.278 120.917 217.226 125.138 215.466C128.954 213.877 132.623 211.714 135.77 208.973C137.445 207.515 139.726 205.412 140.434 203.041ZM215.952 212.737C215.951 212.749 215.966 212.753 215.992 212.754L215.952 212.737ZM293.459 207.543C293.229 205.071 292.316 201.725 290.17 203.788C289.837 204.107 289.529 204.448 289.241 204.806C290.658 205.706 292.066 206.62 293.459 207.543ZM143.878 188.504C142.615 189.302 141.205 189.947 139.846 190.584C135.443 192.649 131.225 194.927 126.568 196.381C122.14 197.761 117.474 198.159 112.873 198.285C107.883 198.424 103.415 198.124 99.0654 196.545C100.427 197.9 102.03 198.967 103.983 199.535C109.835 201.232 116.07 199.784 122.248 199.31C128.426 198.836 135.346 198.15 140.673 194.521C142.947 192.973 143.712 190.868 143.878 188.504ZM276.218 193.936C275.413 192.424 274.925 192.417 273.693 193.46C273.241 193.843 272.832 194.259 272.463 194.705C273.997 195.612 275.535 196.517 277.075 197.426C277.056 196.218 276.759 194.959 276.218 193.936ZM124.03 45.7231C118.171 43.8162 111.725 42.125 105.496 42.4702C98.7796 42.8436 92.5137 45.6421 86.5488 48.6577C73.9771 55.0149 61.3312 61.499 52.2627 72.811C45.0151 81.8474 38.9741 92.3763 39.0049 104.299C39.0204 111.259 40.8435 118.445 43.0059 124.986C45.1683 131.527 47.885 138.726 52.2422 144.077C60.0659 153.688 71.9205 159.023 82.6123 164.613C91.0722 169.039 102.925 175.507 103.896 186.417L103.898 186.422C104.04 188 103.327 189.212 102.304 189.95C104.12 190.565 106.023 190.845 108.001 190.951C107.898 190.607 107.838 190.232 107.832 189.826C107.692 181.119 106.595 172.322 103.913 164.056C102.167 158.674 99.7707 153.372 97.3008 148.17C93.6386 149.625 89.7264 150.28 85.75 149.855C78.6409 149.09 73.0054 144.724 69.6582 138.421C66.9438 133.306 63.0822 126.764 65.4902 120.761C68.4443 113.391 77.287 111.951 83.4639 115.459C88.8082 118.494 92.8211 123.753 96.0156 129.231C94.5759 125.519 93.8402 121.524 93.9951 117.723C94.2738 110.854 98.1158 104.932 103.589 101.021C109.307 96.9308 115.785 98.0849 118.002 105.174C119.77 110.812 119.3 117.62 118.044 123.374C117.013 128.095 114.771 132.771 111.688 136.855C113.047 137.524 114.505 137.991 116.039 138.233C116.335 134.932 116.823 131.618 117.551 128.281C119.895 117.538 125.962 97.9976 139.99 99.0747C146.991 99.6134 149.576 107.202 149.61 113.342C149.654 121.371 145.091 129.463 139.94 135.294C135.34 140.504 129.121 144.08 122.678 145.238C122.554 152.139 123.421 158.999 124.529 165.786C125.151 169.605 125.865 173.405 126.557 177.216C127.186 180.704 127.482 184.374 129.024 187.581C129.504 187.387 129.983 187.187 130.462 186.979C130.399 186.708 130.361 186.419 130.354 186.113C130.179 178.487 132.063 170.131 135.482 163.615C138.902 157.099 143.978 151.633 148.003 145.516C156.071 133.252 165.034 120.567 166.575 105.5C167.947 92.0767 161.109 79.1181 153.926 68.4204C150.396 63.1709 146.681 58.0287 141.411 54.2251C136.141 50.4214 130.178 47.7235 124.03 45.7231ZM106.541 142.413C105.591 143.248 104.601 144.032 103.575 144.752C104.09 145.925 104.604 147.096 105.126 148.264C107.108 152.702 109.229 157.008 110.741 161.651C113.747 170.884 114.909 180.547 115.061 190.276L115.073 190.303C115.076 190.494 115.066 190.677 115.046 190.851C117.462 190.711 119.773 190.363 122.023 189.834C120.356 185.823 119.912 181.37 119.133 177.105C117.191 166.492 115.591 156.045 115.688 145.509C112.515 145.168 109.41 144.169 106.541 142.413ZM259.818 186.998C259.871 184.458 258.498 181.298 255.703 183.656C255.53 183.802 255.364 183.958 255.203 184.122C256.753 185.079 258.291 186.041 259.818 186.998ZM96.1875 185.276C96.0344 185.488 95.8512 185.693 95.6367 185.89C95.8892 186.185 96.2126 186.557 96.4883 186.794C96.5351 186.835 96.5832 186.874 96.6309 186.914C96.527 186.348 96.3762 185.803 96.1875 185.276ZM138.587 176.186C138.029 178.711 137.712 181.293 137.615 183.863C139.12 183.221 140.542 182.475 140.832 181.723C141.361 180.339 139.5 177.705 138.587 176.186ZM240.635 170.586C238.851 169.341 236.81 170.369 235.39 171.669C235.132 171.906 234.896 172.157 234.681 172.422C236.87 173.524 239.067 174.613 241.208 175.814C241.647 176.06 242.085 176.307 242.523 176.556C242.502 176.266 242.51 175.969 242.546 175.669C242.76 173.87 242.177 171.667 240.635 170.586ZM80.7246 122.488C78.7325 121.12 76.5521 120.149 74.1768 121.541C71.8014 122.932 71.7403 124.856 72.4912 127.287C73.8121 131.546 76.4904 137.05 79.9355 139.847C83.7218 142.916 88.7631 143.154 93.2871 141.741C93.5606 141.655 93.831 141.563 94.0996 141.468C93.9854 141.228 93.8702 140.988 93.7568 140.749C90.6371 134.145 86.8649 126.693 80.7246 122.488ZM24.3496 127.344C28.795 125.895 30.0865 133.141 25.6816 134.577C20.1613 136.373 14.419 137.346 9.13477 139.871C4.89998 141.896 1.72381 135.307 5.95801 133.281C11.8415 130.473 18.2038 129.342 24.3496 127.344ZM99.3916 135.591C99.7807 136.384 100.162 137.18 100.536 137.98C100.684 137.868 100.831 137.753 100.977 137.637C100.42 136.987 99.8906 136.304 99.3916 135.591ZM139.004 106.427C134.963 106.271 131.802 111.092 130.085 114.159C126.18 121.124 124.041 129.603 123.154 137.796C132.557 135.268 140.374 125.495 142.127 116.156C142.623 113.531 143.045 106.583 139.004 106.427ZM110.237 105.833C108.84 105.322 105.864 108.61 105.12 109.399C103.945 110.654 102.761 112.119 102.075 113.715C99.66 119.324 102.244 126.837 105.496 131.467C105.686 131.737 105.881 132.001 106.083 132.257C109.278 127.826 111.243 122.442 111.666 117.005C111.864 114.409 111.935 111.759 111.502 109.188C111.371 108.41 111.108 106.151 110.237 105.833ZM181.049 109.938C188.521 108.472 195.862 110.449 203.271 111.166C207.901 111.615 207.377 118.989 202.726 118.537C196.016 117.883 189.138 115.856 182.383 117.184C177.789 118.085 176.449 110.843 181.049 109.938ZM1.70996 93.936C-2.39761 91.6745 1.67343 85.4994 5.73535 87.7358C11.286 90.7869 17.2811 92.9201 22.9365 95.7671C27.1106 97.8714 23.0314 104.043 18.9111 101.966C13.2531 99.1139 7.27394 97.0008 1.70996 93.936ZM199.741 74.0796C203.935 71.9591 207.102 78.5413 202.917 80.6646C195.882 84.2262 188.886 88.526 181.023 89.769C176.422 90.498 175.072 83.2747 179.691 82.5425C186.903 81.4044 193.287 77.3469 199.741 74.0796ZM25.7773 41.5425C21.7083 39.2013 25.7763 33.0173 29.8076 35.3364C33.2971 37.347 35.708 40.564 38.7041 43.1821C42.0846 46.1337 45.7748 48.997 49.5312 51.4351C53.4735 53.9915 49.287 60.0989 45.501 57.6421C41.7149 55.1848 38.1552 52.2689 34.6738 49.3892C31.6199 46.8621 29.2373 43.5339 25.7773 41.5425ZM176.397 31.8052C179.87 28.5733 184.647 34.0718 181.191 37.2817C174.751 43.2643 169.134 50.1287 161.16 54.0933L161.163 54.0981C156.954 56.1933 153.783 49.5997 157.986 47.5073C165.317 43.8622 170.472 37.3145 176.397 31.8052ZM127.459 2.42725C129.041 -2.07207 135.908 0.255383 134.329 4.76025C131.751 12.097 128.853 19.5835 128.414 27.4253L128.408 27.4282C128.141 32.1854 120.9 31.7071 121.167 26.9497C121.642 18.4796 124.673 10.3567 127.459 2.42725ZM75.4805 8.22705C73.4595 3.93804 80.012 0.621302 82.0303 4.90479C85.1721 11.5744 87.3131 18.7036 90.8779 25.1655C93.1717 29.316 86.6033 32.6133 84.3281 28.4878C80.7633 22.0259 78.6223 14.8966 75.4805 8.22705Z" fill="#264653"/>
</svg>
