<svg width="1703" height="505" viewBox="0 0 1703 505" fill="none" xmlns="http://www.w3.org/2000/svg">
<path d="M16.2109 500.433C20.3783 488.028 18.4534 474.295 17.7191 461.505C16.8162 445.803 17.5604 429.879 18.0863 414.168C18.6221 398 17.8878 382.633 15.3973 366.638C12.9167 350.714 11.4085 335.357 12.2618 319.2C13.1151 303.143 14.9706 287.158 15.7049 271.082C16.4391 255.005 16.707 237.407 16.6773 220.57C16.6177 186.855 15.4866 153.15 15.4271 119.425C15.3576 81.5413 20.0906 43.759 18.4534 5.86514C18.116 -1.93475 6.20914 -1.97532 6.5465 5.86514C7.98525 39.1643 4.38342 72.3519 3.63924 105.621C2.89506 138.95 4.35365 172.341 4.68109 205.68C5.00853 238.99 4.45287 272.279 1.38685 305.456C-0.0320526 320.823 -0.746466 336.372 1.14871 351.738C3.08358 367.378 6.57627 382.755 6.64573 398.598C6.73503 416.927 5.40543 435.255 5.53442 453.603C5.63364 467.813 9.36446 483.413 4.74062 497.197C2.2501 504.622 13.7402 507.807 16.2208 500.433H16.2109Z" fill="#264653"/>
<path d="M13.1638 260.32C67.36 260.32 121.546 259.61 175.742 259.762C202.801 259.843 229.859 260.127 256.918 260.837C283.976 261.547 311.005 263.129 338.063 263.941C392.249 265.574 446.465 264.286 500.642 262.815C554.679 261.344 608.875 259.062 662.933 260.898C690.16 261.821 717.357 263.616 744.584 264.529C771.811 265.442 797.441 264.732 823.914 263.413C877.713 260.736 931.532 257.906 985.421 258.301C1039.31 258.697 1092.91 261.649 1146.64 263.748C1200.31 265.838 1253.85 266.497 1307.53 264.093C1416.61 259.204 1525.79 264.235 1634.91 264.458C1646.91 264.478 1658.95 265.107 1670.71 262.176C1678.15 260.32 1675 248.585 1667.55 250.441C1655.06 253.555 1641.75 252.317 1629.01 252.277C1615.23 252.236 1601.43 252.124 1587.65 251.962C1560.69 251.648 1533.73 251.171 1506.77 250.735C1452.84 249.873 1398.88 249.234 1344.95 250.613C1317.54 251.313 1290.17 253.027 1262.76 253.494C1235.36 253.96 1209.45 253.585 1182.81 252.814C1129.03 251.272 1075.3 248.108 1021.51 246.739C967.719 245.369 914.307 246.83 860.706 249.416C834.292 250.694 807.839 252.611 781.386 252.875C754.516 253.139 727.676 251.739 700.846 250.41C646.878 247.722 593.099 248.209 539.101 249.609C484.567 251.019 430.034 252.905 375.48 252.469C321.929 252.043 268.457 248.534 214.896 247.875C160.7 247.205 106.494 247.793 52.2879 248.047C39.2498 248.108 26.2019 248.148 13.1638 248.148C5.50374 248.148 5.49381 260.32 13.1638 260.32Z" fill="#264653"/>
<path d="M20.6862 78.2243C55.2063 84.452 90.8178 88.215 121.597 106.777C136.56 115.794 150.144 126.941 163.321 138.433C176.498 149.924 189.526 161.609 202.356 173.517C229.692 198.894 256.056 225.357 281.665 252.54C305.36 277.695 327.656 304.289 352.134 328.653C395.813 372.135 447.171 410.597 506.08 428.976C567.163 448.034 633.534 440.934 688.553 407.311C702.971 398.497 716.515 388.283 729.89 377.917C743.117 367.672 756.869 358.27 770.473 348.583C783.898 339.029 797.134 328.987 808.714 317.12C821.494 304.036 832.795 289.237 844.216 274.936C866.948 246.465 888.42 216.797 915.399 192.301C928.398 180.505 942.061 169.531 955.486 158.262C968.226 147.551 980.6 136.455 993.955 126.525C1019.15 107.801 1046.62 92.1099 1076.27 82.0989C1105.92 72.0878 1137.76 66.4078 1168.7 71.4691C1200.43 76.6724 1230.38 90.3146 1257.35 107.882C1286.23 126.697 1309.84 150.908 1333.86 175.616C1360.84 203.367 1387.6 231.331 1414.13 259.529C1438.39 285.312 1461.98 311.805 1486.75 337.081C1509.45 360.258 1533.43 382.308 1559.64 401.286C1584.66 419.391 1612.45 435.153 1642.54 442.253C1659.78 446.31 1677.64 446.067 1694.83 450.266C1702.29 452.082 1705.46 440.346 1698 438.531C1680.56 434.271 1662.44 434.544 1644.98 430.345C1630.31 426.805 1616.24 421.105 1602.83 414.086C1574.13 399.054 1548.33 378.708 1524.37 356.799C1500.07 334.586 1477.86 310.294 1455.45 286.144C1429.12 257.784 1402.56 229.648 1375.78 201.734C1362.36 187.757 1348.9 173.831 1335.39 159.966C1323.38 147.642 1311.55 135.126 1298.53 123.908C1273.97 102.74 1246.49 85.0606 1216.65 72.7775C1187.22 60.6568 1155.7 54.8246 1124.06 58.8311C1092.42 62.8375 1062.77 72.2805 1034.67 86.6936C1006.16 101.32 980.689 120.703 956.429 141.709C930.303 164.317 902.302 184.968 879.718 211.502C855.488 239.983 833.48 270.371 809.13 298.751C786.775 324.808 757.673 341.717 730.734 362.134C703.536 382.745 676.805 403.72 644.458 415.222C614.81 425.761 583.426 429.686 552.18 426.379C491.078 419.908 435.433 386.609 389.284 346.778C364.746 325.6 342.996 301.845 321.246 277.786C296.46 250.359 271.068 223.501 244.794 197.556C219.095 172.178 192.602 147.51 165.117 124.172C152.148 113.156 138.664 102.547 123.909 94.1385C108.757 85.5069 92.2168 79.8877 75.3488 75.9523C58.4807 72.0168 41.0073 69.613 23.8316 66.5194C16.3402 65.1704 13.1254 76.8956 20.6664 78.2547L20.6862 78.2243Z" fill="#264653"/>
<path d="M554.184 300.659C554.125 308.621 553.609 316.492 555.405 324.322C557.151 331.95 568.641 328.714 566.885 321.087C565.347 314.402 566.041 307.465 566.091 300.659C566.141 292.828 554.234 292.818 554.184 300.659Z" fill="#264653"/>
<path d="M573.394 302.038C573.423 311.957 574.019 321.816 575.963 331.553C577.501 339.221 588.982 335.976 587.444 328.318C585.707 319.636 585.33 310.872 585.3 302.038C585.271 294.207 573.364 294.187 573.394 302.038Z" fill="#264653"/>
<path d="M544.063 304.452C548.508 305.334 552.844 304.776 557.319 304.675C563.134 304.533 568.949 304.523 574.753 304.127C580.558 303.732 586.412 303.752 592.256 303.569C596.93 303.427 601.653 303.671 606.197 302.383C613.58 300.303 610.444 288.558 603.032 290.647C599.261 291.712 595.154 291.296 591.274 291.438C585.757 291.631 580.26 291.58 574.753 291.956C569.861 292.29 564.97 292.382 560.068 292.453C556 292.524 551.237 293.518 547.228 292.716C539.747 291.225 536.542 302.951 544.063 304.452Z" fill="#264653"/>
<path d="M1098.99 295.556C1099.43 293.822 1103.08 293.021 1103.2 292.108C1100.73 290.13 1099.81 289.816 1100.41 291.154C1100.63 291.692 1100.79 292.25 1100.88 292.818C1101.12 293.923 1101.19 295.039 1101.22 296.165C1101.36 301.064 1100.14 305.253 1097.45 309.32C1092.05 317.516 1084.69 323.267 1080.93 332.679C1079.73 335.682 1082.26 339.435 1085.09 340.165C1091.09 341.717 1097.12 341.23 1103.25 341.311C1109.92 341.392 1116.6 342.214 1123.24 342.741C1130.88 343.36 1130.84 331.178 1123.24 330.57C1117.1 330.073 1110.94 329.393 1104.78 329.17C1099.28 328.977 1093.64 329.809 1088.26 328.419L1092.41 335.905C1095.09 329.211 1100.95 324.443 1105.23 318.885C1110.06 312.637 1113.02 305.649 1113.12 297.605C1113.2 291.175 1111.76 280.839 1103.92 279.936C1097.07 279.145 1089.13 285.789 1087.5 292.311C1085.61 299.908 1097.09 303.143 1098.98 295.546L1098.99 295.556Z" fill="#264653"/>
<path d="M1145.47 303.823C1146.74 308.276 1145.77 313.134 1145.62 317.699C1145.42 323.561 1145.31 329.404 1146.48 335.175C1148.04 342.843 1159.52 339.597 1157.96 331.939C1155.87 321.644 1159.85 310.751 1156.95 300.588C1154.81 293.082 1143.32 296.277 1145.47 303.823Z" fill="#264653"/>
<path d="M1166.16 305.994C1165.98 312.09 1167.32 317.993 1167.76 324.038C1168.19 330.083 1168.28 335.814 1169.07 341.717C1169.5 345.003 1173.58 346.728 1176.39 345.967C1179.83 345.034 1180.98 341.717 1180.55 338.482C1179.83 333.096 1180.03 327.649 1179.5 322.243C1178.98 316.837 1177.91 311.491 1178.07 305.994C1178.3 298.164 1166.39 298.164 1166.16 305.994Z" fill="#264653"/>
<path d="M1144.37 308.763C1150.9 307.444 1157.54 307.759 1164.15 307.505C1170.77 307.252 1177.28 306.105 1183.9 306.227C1191.56 306.359 1191.57 294.187 1183.9 294.056C1176.7 293.934 1169.56 295.202 1162.37 295.394C1155.17 295.587 1148.24 295.618 1141.2 297.038C1133.69 298.549 1136.87 310.284 1144.37 308.773V308.763Z" fill="#264653"/>
</svg>
