<svg width="37" height="33" viewBox="0 0 37 33" fill="none" xmlns="http://www.w3.org/2000/svg">
<path d="M24.0661 13.7117C21.3293 16.4426 17.3892 22.3468 16.4985 25.5938C16.2622 26.4553 16.3983 27.4547 16.5443 28.102C16.6902 28.7494 16.9822 29.0414 17.6679 29.1918C19.3896 29.5694 21.403 29.1475 23.0707 28.6093C26.7095 27.435 28.6785 22.3822 28.9823 19.4728C29.1527 17.8409 28.0032 15.9825 26.8766 14.216C24.7071 10.814 19.1764 10.1786 14.4002 10.0237C12.1509 9.95083 10.3112 11.4438 8.8396 12.9139C7.35524 14.3968 6.66902 16.3571 6.22665 18.1221C5.79599 19.8404 6.46553 21.5682 7.34732 22.9912C8.99109 25.6437 12.7472 25.7029 16.1373 25.4139C18.9689 25.1725 20.6215 22.8599 21.4546 21.2939C22.6393 19.067 22.8864 15.9884 22.7404 13.1911C22.6278 11.0332 21.4177 9.3941 20.1924 7.92248C19.0159 6.50961 16.9999 5.7519 14.9384 5.45551C13.4485 5.2413 12.2754 6.72512 11.1473 8.24394C9.90496 9.91663 9.22593 13.4905 8.6361 17.7608C8.22401 20.7444 8.53288 22.8452 8.87499 24.6103C9.23185 26.4515 11.37 28.251 14.5551 29.7256C17.9179 31.2824 21.4974 29.7403 23.9496 28.6624C26.322 27.6195 28.0887 25.9094 29.8036 23.9998C31.9934 21.5615 33.5948 17.7638 34.627 14.0818C35.2862 11.7303 34.8806 9.88661 34.3925 8.12155C33.8421 6.13113 31.7427 4.67546 29.8803 3.30116C28.0452 1.94695 25.4551 1.91506 22.7596 2.06104C19.7446 2.22432 16.6106 3.38373 13.57 4.80375C10.4663 6.25328 8.24976 8.98122 6.23844 11.3833C4.29086 13.7093 3.23031 16.2568 2.44436 18.9494C1.38409 22.5817 2.43404 25.8917 3.41463 27.6582C4.23517 29.1364 5.57783 29.929 7.38861 30.4687C9.99803 31.2465 12.6528 30.625 14.4681 29.5958C17.4487 27.9057 18.6514 24.8359 19.2973 21.8351C19.8214 19.3998 18.6662 16.7699 17.4393 15.0019C16.9345 14.2744 16.5044 14.0125 16.1093 13.9594C14.3455 13.7225 12.9655 17.3332 11.7814 20.5316C11.485 22.2465 11.3847 23.8302 11.482 25.2517C11.5794 25.9919 11.774 26.7705 12.2695 28.1625" stroke="#264653" stroke-width="4" stroke-linecap="round"/>
</svg>
