<svg width="30" height="31" viewBox="0 0 30 31" fill="none" xmlns="http://www.w3.org/2000/svg">
<path d="M6.96799 10.1375C6.06844 10.5872 4.40563 13.6675 2.58836 18.2834C1.90252 20.0254 1.97049 20.6504 2.04546 21.1467C2.12042 21.6431 2.27034 22.0179 2.57246 22.3234C3.21945 22.9777 4.08761 23.1605 4.8043 23.2741C5.73505 23.4216 6.88621 23.1628 8.43202 22.4109C10.9205 21.2004 12.94 17.6542 14.4165 14.0628C15.0423 12.5406 14.9185 11.4459 14.7686 10.6804C14.5196 9.40868 13.6351 8.77679 12.8423 8.39857C12.0325 8.01222 10.9864 8.09304 9.89152 8.28045C7.14858 8.74994 5.91397 12.2455 5.03941 14.6716C4.6277 15.8136 5.14844 16.9477 5.67659 17.7791C6.19207 18.5906 7.1906 18.8445 8.05948 18.958C8.84764 19.0611 9.91424 18.9217 11.1988 18.6207C13.8832 17.9918 15.0639 14.3899 15.7499 11.9263C16.1049 10.6517 15.6023 9.16069 15.0741 7.91245C14.6878 6.99925 13.6351 6.80732 12.8798 6.61765C11.243 6.20659 9.47582 9.44237 8.22077 12.4727C7.54888 14.0949 8.02655 15.8846 8.47859 17.3952C8.96234 19.0118 10.2936 20.1279 11.5396 20.9218C13.9071 22.4304 17.2492 21.4227 20.284 19.7997C23.4347 18.1147 24.1503 13.7902 24.3468 10.6031C24.442 9.05827 23.178 7.79547 21.8946 6.77552C20.5505 5.70738 18.7893 5.21721 16.6018 4.95257C13.6798 4.59908 10.6162 5.13544 8.15943 6.15424C6.03702 7.03441 4.85314 8.7677 3.98312 10.1647C3.16212 11.483 3.40841 13.0088 3.85932 14.1798C4.40489 15.5966 6.42962 16.1913 8.20373 16.7966C10.1176 17.4497 12.3335 17.1044 15.0105 16.4661C19.0274 15.5083 21.8015 12.9474 23.0497 11.2858C24.1382 9.83672 24.0799 8.09986 24.081 6.74031C24.0822 5.34834 23.1008 4.23589 22.1195 3.40449C19.8439 1.47657 15.6182 1.7326 12.4312 2.97516C10.6942 3.65237 9.32362 6.18491 8.03677 9.43101C6.66042 12.9029 7.87208 16.1095 9.15325 18.1482C10.7419 20.6762 12.9445 21.7203 14.002 22.0985C15.0205 22.4628 16.2747 22.2541 17.6717 21.7646C19.2827 21.2001 21.2654 19.0853 23.5722 16.8171C26.5343 13.9046 27.2578 10.301 27.2624 7.15828C27.2643 5.82935 25.9789 4.91736 24.809 4.12344C23.5626 3.27756 21.8923 3.32271 20.2693 3.39767C18.4097 3.48356 16.068 4.60161 13.199 6.48817C11.6499 7.50678 10.0301 8.82449 8.35593 10.4555C4.85706 13.8642 2.95863 17.243 2.35326 19.6225C1.78008 21.8754 2.27034 23.9851 3.02451 25.6104C3.71288 27.0939 5.59595 27.7764 7.40867 28.3817C9.15231 28.964 11.2726 28.6146 13.651 28.0876C16.3656 27.486 18.9188 25.5934 21.3369 23.6307C23.7434 21.6775 24.6841 18.8581 24.9874 16.365C25.2703 14.039 24.3138 12.0388 23.0304 10.5645C21.8442 9.20203 19.7752 8.5519 17.6229 7.79546C15.4779 7.0416 13.4125 7.18441 11.7883 7.37181C10.1511 7.56072 9.09192 8.76998 8.44906 9.71382C8.18101 10.2079 8.03109 10.7326 7.95386 11.1529C7.87662 11.5731 7.87662 11.873 7.87662 12.1819" stroke="#264653" stroke-width="4" stroke-linecap="round"/>
</svg>
