<svg width="36" height="30" viewBox="0 0 36 30" fill="none" xmlns="http://www.w3.org/2000/svg">
<path d="M13.4633 19.2203C13.2046 20.5083 13.2026 22.9753 13.656 24.0483C13.8483 24.5037 14.4322 24.7964 15.2085 24.9589C15.969 25.118 17.7943 23.8995 20.1912 22.1514C23.1687 19.9799 23.7089 16.9595 23.7429 15.3729C23.7689 14.1625 22.5474 13.5158 21.4491 12.9983C20.0278 12.3285 17.3721 12.2161 14.3924 12.3445C11.0785 12.4874 9.19468 15.1268 8.08276 17.2338C7.57598 18.1942 7.88529 19.2806 8.14308 20.1863C8.42825 21.1882 9.43788 21.8761 10.2794 22.3946C10.926 22.793 12.0294 22.7866 13.4526 22.8197C14.8844 22.853 17.5297 21.629 20.8333 19.9139C23.17 18.7009 24.7381 16.3155 26.3257 13.8232C27.5211 11.9467 27.5359 9.95534 27.5048 8.20818C27.4753 6.55184 26.3102 5.28199 25.0173 4.31114C23.6069 3.25197 21.7088 3.07178 19.8011 3.16809C17.6838 3.27499 15.6774 4.16911 13.8019 5.42889C11.6154 6.89748 10.0974 9.09343 8.96412 11.1305C7.81042 13.2042 7.75688 15.5781 7.82011 17.7125C7.88842 20.0182 9.30558 22.1932 11.0177 24.167C12.9187 26.3586 15.979 27.1292 18.7281 27.5835C21.5047 28.0423 24.0883 27.137 26.1915 26.1671C28.1927 25.2442 29.6702 23.703 30.8356 22.1183C31.951 20.6016 32.0769 17.7475 31.7871 14.6053C31.6017 12.5969 30.1372 11.3795 28.6507 10.1178C26.9567 8.67989 24.2439 7.74707 21.3965 6.77524C18.8828 5.91728 16.0724 5.99019 13.0966 6.21491C10.054 6.44467 7.25102 8.12258 4.63029 9.99619C3.26033 10.9756 2.20217 12.5119 2.02415 14.4594C1.84613 16.407 2.68079 18.8468 3.59231 20.2641C4.97517 22.4144 7.61485 22.4617 10.1685 22.6241C11.564 22.7129 13.1715 22.594 14.833 22.3041C16.4946 22.0142 18.1639 21.5006 19.8585 20.8828C21.5532 20.2651 23.2225 19.5588 24.7566 18.7135C27.7368 17.0712 29.9913 14.8855 31.6752 12.8475C33.1368 11.0785 33.3727 9.11094 33.3095 7.39784C33.2327 5.31628 31.8882 3.78971 30.4339 2.94824C28.7779 1.99009 26.639 1.90442 24.4725 2.06493C22.0714 2.24283 19.7009 3.71189 17.5326 5.45807C15.4827 7.1088 14.3116 9.28799 13.4692 11.1645C12.7291 12.813 12.9439 14.4147 13.2338 15.5801C13.4981 16.6426 14.691 17.1424 15.9819 17.5636C17.9536 18.207 19.878 17.73 20.914 17.407C21.7737 17.139 22.2166 16.37 22.5406 15.7552C22.8129 15.2383 22.8022 14.6832 22.738 14.1977C22.7069 13.9623 22.5454 13.7765 22.2867 13.6773C22.0279 13.5781 21.6427 13.5781 21.3158 13.7065C20.6649 13.9622 20.3391 14.6131 20.1445 15.2591C20.0784 15.6482 20.0784 16.1618 20.1105 16.5227C20.1426 16.8836 20.2068 17.0763 20.273 17.2747" stroke="#264653" stroke-width="4" stroke-linecap="round"/>
</svg>
