<svg width="36" height="30" viewBox="0 0 36 30" fill="none" xmlns="http://www.w3.org/2000/svg">
<path d="M8.56635 7.37117C8.21209 7.68114 7.85784 7.99111 7.09968 9.12499C6.34153 10.2589 5.1902 12.2073 4.53067 13.6317C3.52213 15.8098 3.60142 17.3842 3.6457 18.6114C3.68863 19.8009 4.17977 20.8301 4.80441 21.6339C5.34734 22.3326 6.23552 22.7114 7.68206 23.0462C10.0145 23.5861 12.2713 23.3851 13.9875 22.9409C16.2422 22.3574 17.7313 20.9281 18.8451 19.6822C20.6041 17.7144 21.6241 15.5633 22.1823 14.1362C22.7869 12.5906 22.7459 11.0009 22.5681 9.75098C22.409 8.63223 21.7637 7.95488 21.3396 7.57513C20.6428 6.95104 19.041 7.41411 17.1617 8.12798C16.0751 8.54076 14.8812 10.2226 13.5628 12.1657C12.6891 13.4533 12.592 14.6562 12.6584 15.7277C12.7151 16.6422 13.2602 17.2983 13.8178 17.7452C14.3324 18.1576 15.0932 18.1061 15.9178 18.0176C16.9908 17.9023 18.6639 16.7723 20.5184 15.2989C21.7983 14.2821 22.2508 12.7024 22.6533 11.2284C22.9274 10.2249 22.6131 9.388 22.1454 8.58489C21.6129 7.67043 20.6029 7.14976 19.622 6.77001C18.5178 6.34253 16.7625 6.47614 14.5987 6.67608C13.4915 6.77839 12.3907 7.09743 11.2447 7.47785C10.0988 7.85827 8.94744 8.34537 7.88937 9.01697C5.78018 10.3558 4.32335 12.1053 3.20691 13.5995C2.10795 15.0703 1.9469 16.7133 2.01265 17.9847C2.08331 19.3512 3.14921 20.339 4.17507 21.0086C5.22752 21.6956 6.50255 21.9962 7.81826 22.1754C8.50918 22.2694 9.26681 22.1774 11.138 21.3132C13.0093 20.449 15.9762 18.7663 18.2131 17.191C20.45 15.6156 21.867 14.1986 22.7741 13.2029C24.108 11.7388 24.5776 10.2428 24.8459 8.59093C25.0687 7.21975 24.8043 6.07894 24.4481 5.18593C24.1173 4.35673 23.4182 4.06211 23.0612 3.92792C22.7244 3.8013 21.8576 4.63509 19.6334 7.65766C18.0011 9.87594 15.638 13.6914 14.2284 16.0732C12.8187 18.455 12.5088 19.3407 12.3269 20.4168C12.1451 21.493 12.1008 22.7329 12.853 23.903C13.6051 25.0731 15.1549 26.1359 16.3076 26.6834C18.06 27.5157 19.9615 26.8766 22.6345 25.8085C24.2702 25.1549 26.3703 24.0318 27.8638 23.1744C29.3573 22.3169 30.1544 21.697 30.9193 20.8462C32.5339 19.0503 33.2112 17.0407 33.3011 15.4123C33.3469 14.5823 33.2139 13.7397 32.7476 12.5313C32.2813 11.323 31.4399 9.77312 30.6079 8.59831C29.776 7.4235 28.9789 6.67071 28.059 5.92866C27.1392 5.1866 26.1207 4.47809 25.0425 3.89169C22.9206 2.73763 20.8311 2.2734 19.0021 2.07212C17.0948 1.86222 15.1066 2.13653 13.2763 2.55921C11.593 2.94797 10.4061 4.27949 9.33457 5.39459C8.29558 6.47587 7.67535 7.94549 7.07217 9.32896C6.53264 10.5665 6.55354 11.6611 6.6421 12.4864C6.73912 13.3904 7.3117 14.0336 7.80215 14.4576C8.32596 14.9105 9.09907 15.1084 9.94646 15.2426C10.872 15.3891 12.8899 15.0668 15.4146 14.6649C16.934 14.4231 17.9984 13.9047 18.937 13.4129C19.2966 13.2245 19.4328 13.1868 19.0363 14.0275C17.8034 16.6414 16.6632 18.8173 16.529 19.6211C16.4256 20.2409 16.5277 20.6986 16.6833 20.9892C17.0443 21.6628 18.7565 21.1039 21.2591 20.1015C22.6217 19.5558 23.8127 18.6026 24.9513 17.7546C25.9063 17.0432 26.6333 16.0987 27.1036 15.4486C27.6237 14.7297 26.8158 17.564 26.9936 18.5724C27.0322 18.7911 27.2157 18.9086 27.417 18.9992C27.8602 19.1986 28.3348 19.1796 28.7139 19.0247C29.2959 18.7867 29.4096 17.9304 29.4546 17.2614C29.5055 16.5044 29.0554 15.6948 28.4307 14.936C27.8485 14.2286 27.0439 13.7249 25.9302 13.3673C24.4382 12.8883 23.1069 13.2298 22.2602 13.6518C20.9744 14.2927 20.2433 15.7297 19.8408 16.7126C19.7039 17.1199 19.7039 17.3413 19.8146 17.5218C19.9253 17.7022 20.1467 17.8351 20.3748 17.972" stroke="#264653" stroke-width="4" stroke-linecap="round"/>
</svg>
