<svg width="325" height="139" viewBox="0 0 325 139" fill="none" xmlns="http://www.w3.org/2000/svg">
<path d="M53.2327 35.2088C32.8824 25.1705 8.76027 37.7955 4.74999 60.2776C3.07199 69.6967 5.68967 81.2895 14.3546 86.4263C24.5836 92.4932 36.0031 85.5686 42.8584 77.6532C51.9188 67.1965 55.2802 53.2593 58.3123 40.0078L48.6902 38.7233C44.067 59.1087 40.5611 85.4225 60.2219 99.3238C65.3565 102.953 71.2675 95.1601 66.1258 91.5219C49.6059 79.8392 54.5259 56.724 58.3203 40.0089C59.7203 33.8279 50.0991 32.6015 48.6982 38.7244C46.1861 49.6821 43.447 61.1569 36.4065 70.1088C31.0587 76.9071 19.2991 84.1429 15.0037 72.2763C11.8386 63.5289 15.846 52.9366 22.5925 47.1542C30.1504 40.6759 40.7423 39.9839 49.507 44.3131C55.1455 47.0973 58.8401 37.9805 53.2317 35.2169L53.2327 35.2088Z" fill="#264653"/>
<path d="M105.983 53.6314C102.666 69.0001 101.324 84.5733 101.691 100.307C101.839 106.649 111.488 105.249 111.344 98.9413C111.002 84.1326 112.54 69.358 115.659 54.9185C117.004 48.7085 107.314 47.4612 105.983 53.6314Z" fill="#264653"/>
<path d="M94.1001 77.1858C107.514 77.0397 120.132 81.8663 133.398 77.5881C139.323 75.6768 135.49 66.6193 129.589 68.5257C117.832 72.3193 104.747 67.315 92.7112 67.4463C86.51 67.5124 87.9319 77.248 94.1001 77.1858Z" fill="#264653"/>
<path d="M157.069 23.8541C153.423 48.777 149.776 73.6999 146.129 98.631L155.761 98.5879C155.672 90.8561 157.826 81.7633 165.103 77.9115C172.495 74 179.326 79.4355 183.606 85.4271C187.656 91.0976 191.567 100.012 186.806 106.416C181.32 113.802 170.025 109.606 163.145 107.144C157.258 105.03 153.503 114.133 159.413 116.25C170.633 120.271 185.411 123.902 194.154 112.958C202.229 102.854 198.104 88.947 191.275 79.4028C184.446 69.8586 172.678 63.0755 161.283 68.7936C149.888 74.5118 146.004 87.5656 146.138 99.9438C146.198 105.663 154.99 105.209 155.77 99.9007C159.416 74.9778 163.063 50.0549 166.71 25.1238C167.627 18.8296 157.988 17.5517 157.071 23.8378L157.069 23.8541Z" fill="#264653"/>
<path d="M213.825 89.777C222.784 90.3757 231.745 90.9663 240.705 91.5651C246.896 91.9768 248.145 82.2291 241.913 81.8121C232.954 81.2133 223.993 80.6227 215.033 80.0239C208.842 79.6122 207.593 89.3599 213.825 89.777Z" fill="#264653"/>
<path d="M211.256 110.202C219.728 111.776 228.264 112.831 236.856 113.372C243.041 113.766 244.299 104.015 238.065 103.623C229.473 103.081 220.937 102.019 212.464 100.453C206.323 99.3129 205.131 109.064 211.256 110.202Z" fill="#264653"/>
<path d="M297.075 76.9892C287.612 71.341 275.94 69.9818 266.498 76.4219C257.963 82.2455 253.982 93.6173 257.671 103.518C265.517 124.559 293.564 130.757 312.136 122.974C317.894 120.56 314.098 111.457 308.323 113.877C295.225 119.365 277.846 116.25 269.028 104.197C264.776 98.3905 265.014 91.1859 270.17 86.0635C275.716 80.5538 284.789 80.9858 291.171 84.797C293.448 86.1537 296.205 86.1985 297.97 83.9224C299.424 82.0443 299.336 78.3438 297.074 76.9974L297.075 76.9892Z" fill="#264653"/>
</svg>
