<svg width="535" height="385" viewBox="0 0 535 385" fill="none" xmlns="http://www.w3.org/2000/svg">
<path d="M108.702 142.729C118.469 140.955 129.035 141.557 138.897 142.277C148.796 142.998 158.676 144.885 167.628 148.903C176.58 152.922 185.044 159.298 192.627 165.483C200.502 171.901 206.788 180.23 212.091 188.851C222.418 205.627 228.393 226.25 226.548 246.027C225.333 259.023 220.011 271.747 212.566 282.793C218.273 285.944 226.647 288.827 228.09 295.721C229.625 303.073 220.424 308.949 215.799 313.068C211.429 316.959 207.5 321.249 203.198 325.171C210.565 329.306 218.806 331.702 226.732 331.16C231.143 330.856 242.809 326.339 242.993 334.572C243.154 341.502 236.452 348.52 231.679 352.741C218.656 364.249 202.394 370.882 187.169 378.8C182.86 381.044 178.032 384.598 172.973 384.562C165.408 384.509 167.051 376.21 168.818 371.53C171.878 363.44 173.937 354.058 173.949 345.39C173.95 344.635 173.934 343.883 173.902 343.136C167.86 345.763 161.68 347.991 155.533 350.36C148.117 353.218 140.898 356.159 132.916 356.969C125.529 357.713 118.006 357.231 110.619 356.684C102.465 356.076 94.3404 355.052 86.2754 353.707C79.0436 352.504 71.6269 351.384 64.7344 348.807C57.9969 346.288 51.7175 342.758 46.0156 338.377C42.0981 335.363 38.5431 332.017 35.3652 328.297C35.2447 328.167 35.1286 328.032 35.0195 327.891C33.8903 326.547 32.8083 325.156 31.7773 323.713C29.5456 320.588 27.5997 317.379 25.3857 314.141C23.1716 310.902 20.6715 307.877 18.4395 304.65C1.22602 279.729 -4.19642 248.653 3.27344 219.309C6.82085 205.372 13.9692 193.114 22.5342 181.689C27.1649 175.51 31.915 169.24 37.123 163.537C41.8966 158.31 48.3429 155.018 53.2295 149.91L53.2236 149.903C53.8211 149.28 54.4834 148.951 55.1445 148.85C55.6173 148.329 56.2151 147.936 56.8359 147.772C58.8595 147.237 60.4964 148.47 61.2285 150.268C62.901 154.387 65.2817 158.257 68.3945 161.633C68.5675 161.82 68.7145 162.014 68.8389 162.21C73.2979 159.447 78.1167 157.174 82.9004 154.66C91.4891 150.148 98.9172 144.51 108.702 142.729ZM174.199 378.552C174.189 378.601 174.187 378.627 174.193 378.627C174.221 378.627 174.219 378.599 174.199 378.552ZM173.271 377.361C172.608 376.578 172.575 377.993 173.182 377.431C173.208 377.406 173.238 377.384 173.271 377.361ZM197.511 329.868C192.256 333.708 186.634 337.013 180.812 339.914C180.891 340.6 180.955 341.296 180.996 342.002C181.55 351.485 179.538 361.308 176.818 370.363C176.643 370.938 175.423 374.605 174.708 376.856C175.29 376.718 175.884 376.599 176.229 376.454C181.014 374.418 185.61 371.656 190.294 369.394C197.793 365.768 205.222 361.969 212.358 357.665C218.929 353.7 225.566 349.425 230.708 343.65C232.166 342.013 233.464 340.234 234.494 338.287C234.618 338.049 234.765 337.569 234.927 337.032C233.551 337.287 232.181 337.615 230.798 337.828C223.852 338.9 216.941 338.114 210.299 335.852C205.874 334.343 201.564 332.328 197.511 329.868ZM104.353 344.784C105.191 345.843 105.848 347.211 106.923 347.866C108.851 349.039 111.28 347.193 113 346.461C114.418 345.855 115.839 345.486 117.302 345.343C113.015 345.113 108.685 344.976 104.353 344.784ZM133.103 345.307C129.273 345.562 125.414 345.625 121.497 345.518C123.878 345.932 126.301 346.799 128.696 346.651C130.169 346.56 131.651 345.997 133.103 345.307ZM87.6455 343.422C88.092 343.878 88.562 344.254 89.085 344.461C90.2557 344.921 91.6649 344.569 93.0566 344.051C91.2464 343.879 89.4418 343.673 87.6455 343.422ZM70.3643 342.909C70.5183 342.957 70.6719 343.006 70.8262 343.053C70.7864 342.965 70.7468 342.877 70.71 342.787C70.5952 342.83 70.4794 342.869 70.3643 342.909ZM37.6904 201.296C37.3908 201.73 37.0907 202.164 36.7842 202.592C29.6001 212.617 25.6113 224.446 23.8555 236.585C22.2901 247.39 21.2193 259.464 24.3203 270.062C25.8202 275.181 28.0341 280.046 30.1113 284.951C32.1409 289.737 34.2721 294.398 37.0635 298.798C42.3846 307.186 49.5275 314.384 56.7891 321.1C64.741 328.452 73.3002 333.483 83.9961 335.597C95.3347 337.835 107.233 337.674 118.744 338.275C124.53 338.579 130.339 338.739 136.112 338.186C141.695 337.65 147.29 336.275 152.688 334.78C158.516 333.165 164.459 330.989 170.01 328.163C169.049 326.197 168.006 324.266 167.022 322.323C162.024 325.353 156.81 327.955 151.117 329.738C140.761 332.983 129.464 334.316 118.637 333.697C113.167 333.388 107.821 332.435 102.429 331.506C97.2209 330.607 91.9653 329.899 86.8408 328.56C76.9068 325.964 69.3832 320.57 62.7764 312.824C56.3184 305.252 50.039 297.34 44.0869 289.374C37.8313 281.004 33.0036 271.537 30.6406 261.685C28.2777 251.832 27.653 241.503 28.6172 231.43C29.6231 220.928 33.9083 211.664 37.4795 201.871C37.5493 201.679 37.6202 201.488 37.6904 201.296ZM237.583 336.703C237.576 336.712 237.471 336.723 237.325 336.734C237.434 336.769 237.524 336.764 237.583 336.703ZM57.2988 330.855C57.4111 330.978 57.5196 331.102 57.6172 331.23C57.6411 331.206 57.6656 331.181 57.6904 331.157C57.5598 331.057 57.4289 330.957 57.2988 330.855ZM122.398 148.934C113.232 148.91 104.834 150.095 96.7686 154.732C92.8999 156.959 89.1563 159.471 85.2578 161.478C81.3592 163.484 77.4188 165.335 73.6035 167.604C69.7882 169.872 66.4721 172.467 63.4961 175.866C61.2972 178.378 59.2988 181.022 57.0059 183.438C57.0364 184.558 56.5533 185.692 55.3359 186.458C51.8958 188.619 49.6103 191.774 47.7949 195.376C45.9796 198.978 44.7416 202.829 43.3311 206.598C41.6109 211.188 39.6467 215.683 38.1289 220.339C35.2065 229.311 34.8733 239.05 35.6709 248.319C36.4685 257.589 38.8014 266.912 43.2832 275.104C48.0984 283.909 54.8002 291.399 60.9844 299.233C66.1746 305.818 71.2883 313.164 78.5498 317.629C86.7755 322.689 97.1201 323.302 106.405 324.993C126.416 328.637 147.73 326.428 165.104 315.266C169.223 312.616 173.14 309.681 177.116 306.835C180.866 304.15 184.788 301.703 188.383 298.798C195.061 293.398 200.978 287.04 205.793 279.938C210.608 272.835 214.674 264.971 217.245 256.768C219.971 248.064 220.198 238.728 219.114 229.721C216.852 210.95 208.394 193.441 196.294 179.04C190.389 172.009 183.193 167.175 175.39 161.751C167.587 156.327 159.397 152.642 150.04 150.832C140.951 149.076 131.565 148.957 122.398 148.934ZM179.015 314.224C177.032 315.654 175.047 317.063 173.045 318.428C173.047 318.431 173.049 318.435 173.051 318.438C174.11 320.547 175.145 322.612 176.103 324.678C177.464 323.802 178.786 322.881 180.057 321.909C181.365 320.91 182.585 319.808 183.771 318.668C182.325 317.093 180.967 315.444 179.711 313.725C179.479 313.891 179.246 314.056 179.015 314.224ZM41.0713 315.465C41.6064 317.632 41.5185 320.954 40.8193 322.951C40.7942 323.021 40.7769 323.084 40.7656 323.139C41.1322 323.046 41.6898 322.979 41.7656 322.969C43.2119 322.784 44.5928 322.6 46.0391 322.892C47.3596 323.158 48.625 323.668 49.8184 324.327C46.8204 321.472 43.8708 318.535 41.0713 315.465ZM145.576 156.888C145.731 152.298 152.874 152.292 152.719 156.888C152.487 163.779 151.045 170.493 149.021 177.061C150.706 178.056 152.425 179.019 154.206 179.909C162.923 184.266 169.859 189.804 175.16 197.735C175.659 196.305 176.096 194.873 176.449 193.447C177.741 188.226 178.164 182.832 180.068 177.766C181.676 173.497 188.574 175.355 186.955 179.665C184.675 185.732 184.413 192.298 182.455 198.46C181.711 200.8 180.831 203.14 179.845 205.444C183.826 211.959 188.01 218.366 191.813 224.982C194.609 217.82 196.601 210.333 198.264 202.835C199.258 198.341 206.144 200.258 205.15 204.734C203.006 214.404 200.246 224.005 196.138 233.01C198.987 238.745 201.477 244.755 204.521 250.422C206.362 246.443 208.036 242.394 209.584 238.425C211.239 234.18 218.143 236.038 216.471 240.324C214.223 246.085 211.765 251.989 208.94 257.651C209.38 258.272 209.831 258.886 210.299 259.488C213.078 263.084 208.06 268.167 205.245 264.542C205.242 264.538 205.239 264.534 205.235 264.529C204.59 265.633 203.928 266.72 203.245 267.787C202.815 268.46 202.371 269.122 201.918 269.777C202.858 270.478 203.77 271.221 204.639 272.026C208.013 275.164 202.954 280.206 199.585 277.081C198.951 276.492 198.286 275.944 197.599 275.427C193.851 279.898 189.649 283.989 185.3 287.88C179.619 292.961 173.856 297.977 168.058 302.936C168.951 305.052 167.905 308.061 164.92 308.05C163.975 308.046 163.032 308.03 162.089 308.005C155.2 313.761 147.991 319.131 140.034 323.338L140.04 323.332C135.975 325.481 132.368 319.313 136.433 317.164C141.817 314.319 146.911 310.944 151.815 307.265C144.789 306.426 137.878 304.881 131.197 302.462C118.223 310.632 103.117 316.042 88.1025 316.141L88.0957 316.135C83.4893 316.164 83.5012 309.02 88.0957 308.99C99.3749 308.919 110.452 305.329 120.422 300.215C121.251 299.79 122.069 299.352 122.876 298.904C116.321 295.616 110.35 291.375 104.708 286.548C94.6234 292.515 83.7034 297.103 72.4727 300.239C68.0325 301.478 66.1511 294.583 70.5732 293.351C80.5488 290.565 90.1354 286.613 99.1309 281.502C98.8354 281.221 98.5382 280.941 98.2441 280.658C91.6001 274.258 84.8985 267.865 78.9209 260.835C77.4547 261.427 75.9796 261.985 74.4961 262.501C69.7405 264.156 65.2524 265.805 60.7705 268.103C56.9255 270.079 52.7473 272.079 48.3369 271.127V271.139C43.8372 270.168 45.7535 263.287 50.2354 264.251C53.7233 265.001 58.4496 261.137 61.4316 259.738C65.5675 257.795 69.9829 256.576 74.2598 254.996C74.1718 254.878 74.0826 254.761 73.9951 254.643C69.72 248.855 65.9087 242.469 62.9404 235.728C62.9392 235.728 62.9378 235.728 62.9365 235.729C57.2523 236.693 49.4252 238.21 44.2529 234.775L44.2471 234.77C40.432 232.233 44.0154 226.049 47.8545 228.603C50.5388 230.388 54.8655 229.644 57.8711 229.299C58.6799 229.205 59.4905 229.096 60.3008 228.975C57.7706 221.562 56.3438 213.835 56.4844 206.089C55.4278 206.123 54.3752 206.141 53.3301 206.146L53.3359 206.14C48.7295 206.157 48.7414 199.013 53.3359 198.995C54.5672 198.99 55.8166 198.968 57.0752 198.923C57.3836 196.853 57.8143 194.787 58.377 192.732H58.3828C59.5972 188.297 66.4837 190.191 65.2695 194.632C64.9343 195.856 64.6562 197.086 64.4268 198.317C70.2201 197.517 75.8763 195.826 80.5967 192.346C81.1118 191.966 81.6147 191.567 82.1064 191.154C79.981 189.685 77.8659 188.197 75.7871 186.654L75.7812 186.648C72.133 183.934 75.6985 177.736 79.3887 180.48C81.9125 182.354 84.4707 184.165 87.0352 185.96C90.2354 181.733 92.4207 176.71 93.1523 171.503C90.9212 171.561 88.6964 171.54 86.4834 171.372L86.4775 171.365C81.9182 171.02 81.8944 163.87 86.4775 164.222C89.3757 164.443 92.2907 164.437 95.2129 164.332C96.1646 163.86 97.3427 163.814 98.3516 164.187C104.319 163.86 110.302 163.312 116.218 163.615C116.444 162.397 116.699 161.182 116.999 159.972C118.106 155.507 124.993 157.405 123.886 161.87C123.672 162.732 123.482 163.596 123.308 164.461C124.327 164.664 125.344 164.906 126.356 165.192C132.358 166.892 137.531 169.963 142.719 173.188C144.277 167.876 145.388 162.457 145.576 156.888ZM192.966 304.047C190.535 305.962 188.035 307.786 185.508 309.592C186.522 310.993 187.635 312.366 188.832 313.697C189.627 312.95 190.44 312.224 191.288 311.539C192.27 310.747 195.413 309.199 195.734 307.919C195.972 306.985 193.946 305.018 192.966 304.047ZM34.7646 307.921C34.9144 308.624 35.0044 309.342 35.0576 310.05C35.0858 310.459 35.2131 311.731 35.2197 312.815C35.8384 312.706 36.4475 312.599 36.5693 312.568C37.2561 312.402 37.939 312.432 38.5596 312.625C37.2483 311.093 35.9801 309.527 34.7646 307.921ZM213.252 297.463C212.484 297.91 211.771 298.375 211.174 298.721C208.692 300.161 206.228 301.745 203.442 302.549C202.59 302.793 201.502 302.649 200.644 302.179C201.596 303.563 202.341 305.041 202.657 306.552C203.524 305.852 204.393 305.154 205.228 304.418C207.817 302.132 210.501 299.941 213.066 297.637C213.13 297.579 213.192 297.521 213.252 297.463ZM30.5742 301.854C30.6212 302.005 30.6752 302.143 30.7422 302.263C30.844 302.445 30.9834 302.606 31.1436 302.754C30.9515 302.456 30.7622 302.156 30.5742 301.854ZM176.425 261.926C166.772 272.669 155.729 282.344 145.177 291.88C143.079 293.775 140.872 295.604 138.571 297.352C145.559 299.358 152.691 300.432 159.96 300.779C166.666 295.161 173.096 289.18 179.526 283.474C183.722 279.754 187.837 275.88 191.497 271.623C190.054 270.822 188.604 270.033 187.198 269.192C183.482 266.969 179.95 264.444 176.425 261.926ZM199.05 299.955C199.017 299.977 198.983 299.998 198.949 300.019C199.014 300.093 199.08 300.167 199.145 300.242C199.111 300.146 199.079 300.05 199.05 299.955ZM24.1484 289.016C24.1963 290.181 24.1877 291.352 24.2842 292.458C24.3734 293.481 24.5455 294.422 24.8369 295.403C24.8628 295.388 24.8903 295.372 24.9209 295.356C25.4921 295.069 26.1455 294.931 26.7939 294.941C25.8661 293.003 25.0064 291.032 24.1484 289.016ZM151.088 244.104C143.763 252.345 136.168 260.493 128.398 268.27C123.096 273.578 117.263 278.339 111.042 282.541C116.867 287.31 123.218 291.468 130.143 294.408C135.271 290.895 140.022 286.913 144.653 282.563C152.349 275.33 160.26 268.316 167.604 260.726C168.568 259.729 169.52 258.721 170.461 257.703C164.008 253.165 157.528 248.662 151.088 244.104ZM208.335 288.607C207.401 289.799 206.443 290.964 205.466 292.103C205.611 292.466 205.702 292.847 205.728 293.231C205.739 293.4 205.731 293.592 205.714 293.801C207.714 292.676 209.675 291.352 211.708 290.357C210.57 289.799 209.433 289.239 208.335 288.607ZM20.083 279.35C19.8434 280.162 19.4945 280.971 19.0967 281.77C19.8996 281.776 20.6644 281.991 21.3369 282.385C20.9115 281.377 20.4914 280.365 20.083 279.35ZM126.029 225.603C120.613 233.057 114.204 239.763 106.417 245.343C99.9631 249.965 93.0054 254.271 85.7451 257.798C91.8273 264.865 98.6228 271.387 105.451 277.652C113.254 272.559 120.386 266.569 126.702 259.69C132.809 253.04 139.067 246.538 145.172 239.888C138.705 235.244 132.3 230.515 126.029 225.603ZM16.2441 266.862C15.8121 268.237 14.7896 271.2 15.5469 272.216C15.3327 271.93 16.6359 272.187 17.0645 272.312C17.2578 272.369 17.4474 272.438 17.6309 272.521C17.1947 271.091 16.8104 269.643 16.499 268.174C16.4066 267.737 16.3228 267.3 16.2441 266.862ZM192.074 240.904C191.726 241.506 191.372 242.105 191.008 242.699C188.045 247.533 184.699 252.118 181.088 256.512C181.535 256.827 181.983 257.142 182.431 257.458C186.174 260.101 189.978 262.591 193.972 264.835C194.62 265.199 195.268 265.565 195.912 265.935C196.219 265.491 196.522 265.043 196.817 264.59C198.21 262.455 199.518 260.227 200.759 257.942C197.474 252.48 194.837 246.67 192.074 240.904ZM7.57422 255.071C7.93059 258.56 8.47876 262.02 9.21094 265.439C9.41578 264.723 9.63531 264.027 9.85645 263.363C10.1957 262.339 10.5289 261.315 10.8682 260.291C11.1062 259.577 11.4161 258.845 11.6006 258.143C11.6278 258.039 11.6434 257.927 11.6562 257.815C10.9539 257.563 9.90742 256.963 9.56445 256.761C8.79906 256.307 8.13651 255.737 7.57422 255.071ZM176.135 213.031C175.662 213.886 175.179 214.73 174.682 215.558C169.549 224.111 162.504 231.365 155.835 238.761C156.131 238.97 156.427 239.181 156.724 239.39C162.868 243.719 169.03 248.029 175.183 252.353C179.594 247.104 183.605 241.535 186.925 235.508C187.356 234.726 187.77 233.937 188.174 233.143C184.481 226.257 180.266 219.667 176.135 213.031ZM107.26 210.163C101.298 217.277 93.9113 223.219 85.7568 227.751C80.7466 230.538 75.5231 232.661 70.0752 234.153C73.0297 240.551 76.7871 246.471 81.0537 252.038C89.8686 247.8 98.5302 242.785 106.138 236.681C111.664 232.249 116.471 226.966 120.585 221.26C116.1 217.618 111.626 213.841 107.26 210.163ZM15.8184 245.41C15.7705 245.444 15.7233 245.478 15.6748 245.511C14.13 246.823 12.3621 248.626 12.7793 250.027C13.0471 250.932 14.3565 251.099 15.1064 251.427C15.2395 251.485 15.3706 251.544 15.5 251.604C15.5134 251.222 15.5257 250.84 15.541 250.457C15.6084 248.775 15.6996 247.092 15.8184 245.41ZM16.584 237.576C16.3155 237.839 16.0398 238.092 15.7617 238.344C16.003 238.414 16.235 238.509 16.4561 238.623C16.4974 238.274 16.5399 237.925 16.584 237.576ZM7.61426 235.296C7.57531 235.662 7.53954 236.028 7.50488 236.395C7.73241 236.141 7.97409 235.902 8.22461 235.672C8.01751 235.552 7.81374 235.427 7.61426 235.296ZM146.662 184.036C145.25 187.905 143.709 191.724 142.172 195.501C138.762 203.874 134.868 211.98 130.154 219.49C136.669 224.627 143.262 229.662 149.988 234.562C150.176 234.351 150.365 234.141 150.552 233.93C157.575 225.994 165.283 218.427 170.205 208.92C170.727 207.91 171.242 206.883 171.743 205.846C171.393 205.256 171.044 204.666 170.699 204.073C168.271 199.9 165.479 196.198 161.818 193.024C157.622 189.387 152.688 187.244 147.831 184.672C147.438 184.464 147.05 184.251 146.662 184.036ZM503.882 6.69434C511.058 1.9973 525.14 -4.48024 531.533 4.47461C534.372 8.45187 534.913 13.3764 532.999 17.8691C530.893 22.8124 526.383 26.2854 522.23 29.7568C518.078 33.2282 513.885 36.3133 508.867 38.4053C503.672 40.5687 498.074 42.2239 492.529 43.2441C492.97 43.8708 493.424 44.4944 493.894 45.1211C495.91 47.815 497.133 51.3003 499.277 53.8457C501.393 56.3549 499.739 59.7018 497.453 60.5176C497.207 61.1788 496.764 61.7997 496.083 62.3125C493.537 64.232 490.793 65.7883 488.266 67.7715C485.584 69.8769 482.565 71.5329 479.759 73.4639C474.232 77.273 468.802 80.9793 462.633 83.6992C458.494 85.522 454.176 86.7265 449.812 87.2314C449.65 87.7858 449.33 88.335 448.814 88.8457C440.266 97.3038 432.201 106.405 424.139 115.327C420.326 119.546 416.639 123.906 412.463 127.788C408.338 131.623 403.84 135.013 399.75 138.896C391.277 146.948 383.92 155.964 376.092 164.617C375.772 164.971 375.446 165.321 375.123 165.672C375.533 165.347 375.945 165.026 376.361 164.71C380.594 161.489 385.834 159.574 389.928 156.241C392.069 154.498 393.491 152.433 396.056 151.165C398.62 149.9 401.342 148.991 403.934 147.768C403.895 145.88 405.066 144.032 407.569 144.038C412.681 144.05 417.374 146.884 420.576 150.774C423.18 153.95 424.636 159.03 421.595 162.412C420.245 163.913 418.46 164.538 416.581 164.603C416.273 165.145 415.767 165.626 415.021 165.985C410.261 168.27 406.201 171.718 401.772 174.562C397.618 177.227 393.071 179.059 388.831 181.552C384.522 184.088 381.204 187.749 377.452 190.978C373.652 194.257 369.333 196.851 365.264 199.774C365.365 201.928 363.522 204.219 361.14 204.074C360.042 205.479 359.029 207.113 357.935 208.66C359.407 209.884 360.741 211.264 362.187 211.972C364.066 212.889 364.689 215.441 363.725 217.21C362.7 219.097 360.359 219.664 358.486 218.748C357.146 218.096 355.954 217.155 354.848 216.155C353.871 215.278 353.162 214.55 352.297 214.043C352.221 213.999 352.148 213.951 352.076 213.902C351.457 214.126 350.795 214.278 350.081 214.34C347.242 214.585 344.637 212.903 342.22 211.661C341.997 211.547 341.774 211.431 341.553 211.315C341.275 211.951 340.782 212.535 340.021 212.99C336.163 215.295 332.086 217.151 328.277 219.554C324.693 221.817 320.614 223.595 316.767 225.348C312.017 227.509 307.152 229.399 302.336 231.393C299.108 232.729 293.654 235.749 290.482 232.797C287.311 229.845 290.38 225.274 292.792 223.052C295.981 220.107 299.552 217.649 302.783 214.668C306.014 211.687 309.334 208.946 313.029 206.55C316.975 203.988 321.926 202.065 325.425 198.929L325.431 198.931C325.737 198.656 326.056 198.442 326.383 198.28C324.98 196.095 323.861 193.746 323.143 191.301C322.107 187.78 323.848 185.626 325.828 182.88C327.427 180.659 329.08 178.629 331.31 177.012L331.314 177.02C332.102 176.45 332.89 176.242 333.618 176.299C335.074 175.352 337.124 175.219 338.569 176.642C345.606 168.413 353.146 160.28 359.455 151.915C366.182 142.996 374.124 135.604 381.952 127.538C389.78 119.473 397.315 111.139 404.428 102.437C410.75 94.7045 418.239 87.9641 426.626 82.5283C423.443 80.4859 420.568 77.6544 418.74 74.5244C417.774 72.8721 417.099 71.0736 416.64 69.2031C412.859 71.1021 409.097 72.657 404.929 74.2754C399.585 76.3501 394.515 79.1696 389.228 81.3965C370.337 89.3543 352.018 98.7017 333.945 108.325C324.468 113.367 314.747 117.876 305.067 122.514C300.652 124.628 296.384 127.101 291.73 128.684C288.342 129.836 284.863 130.633 281.479 131.756C281.995 132.649 282.506 133.502 282.652 134.589C283.057 137.617 280.798 139.723 278.261 140.878C275.48 142.141 272.443 142.888 269.608 144.039C266.516 145.296 263.497 146.334 260.238 146.942C258.634 149.199 254.382 149.475 253.271 146.019C252.872 144.78 252.338 143.631 251.804 142.476C251.595 142.541 251.374 142.594 251.142 142.629C244.934 143.569 238.666 144.065 232.43 144.959C230.099 145.29 227.742 142.444 228.522 140.216C229.913 136.267 233.268 133.739 236.459 130.986C239.476 128.384 242.516 125.225 245.955 123.152C245.564 121.478 245.292 119.808 245.275 118.173C245.274 118.067 245.278 117.962 245.284 117.86C244.974 116.118 245.639 114.125 247.693 113.26C251.484 111.666 255.294 110.525 259.35 109.826C262.862 109.218 266.876 107.154 270.457 107.744C273.324 108.217 274.164 110.417 274.822 112.785C278.862 110.832 282.415 107.916 286.651 106.252C292.315 104.028 297.841 101.764 303.312 99.0918C322.836 89.5647 342.408 80.1147 361.902 70.5146C371.055 66.011 380.281 62.3178 389.923 59.0195C395.038 57.2741 399.871 55.0392 404.757 52.751C408.604 50.9456 412.254 48.1493 416.439 47.2363C417.167 47.0772 417.836 47.1097 418.433 47.2822C419.393 45.523 420.699 43.8878 422.479 42.3516C426.995 38.457 431.915 35.2913 437.137 32.4414C442.76 29.375 448.566 26.7148 454.257 23.7832C459.61 21.0234 464.61 17.8238 470.099 15.3008L470.101 15.2949C471.156 14.8105 472.192 14.8062 473.099 15.1094C474.428 14.8883 475.841 15.352 476.751 16.8643C478.884 20.4114 480.598 24.1702 483.01 27.5449C483.116 27.6931 483.218 27.8442 483.323 27.9932C484.77 26.5072 485.602 24.6932 486.645 22.8574C487.979 20.4949 489.632 18.4112 491.608 16.5498C495.381 13.009 499.555 9.53002 503.882 6.69434ZM18.0566 228.641C17.9138 228.765 17.771 228.889 17.6289 229.015C17.7469 229.82 17.618 230.662 17.2402 231.375C17.3254 231.45 17.4072 231.53 17.4854 231.615C17.5254 231.389 17.565 231.162 17.6064 230.936C17.7467 230.169 17.8968 229.404 18.0566 228.641ZM88.1279 195.291C87.3251 196.039 86.4927 196.754 85.6318 197.43C79.3139 202.389 71.5581 204.643 63.6494 205.571C63.4206 213.01 64.864 220.444 67.3877 227.56C67.6024 227.506 67.8174 227.455 68.0312 227.399C77.8403 224.857 87.1082 219.446 94.709 212.808C97.2534 210.586 99.6425 208.18 101.822 205.603C101.222 205.101 100.625 204.603 100.03 204.11C96.2138 200.948 92.1909 198.092 88.1279 195.291ZM13.9697 220.485C14.0549 221.208 14.0834 221.945 14.0693 222.701C14.3369 222.49 14.605 222.279 14.8711 222.065C14.5244 221.568 14.2259 221.039 13.9697 220.485ZM331.026 204.249C325.371 209.31 317.834 211.887 311.967 216.779C310.307 218.167 308.732 219.652 307.143 221.122C310.421 219.78 313.684 218.41 316.849 216.816C320.049 215.203 323.024 213.675 326.14 211.665C328.849 209.917 331.866 208.684 334.696 207.141C334.588 207.06 334.48 206.979 334.372 206.896C333.263 206.049 332.187 205.119 331.164 204.119C331.119 204.162 331.074 204.206 331.026 204.249ZM16.9932 220.07C16.8593 220.068 16.8048 220.141 16.8018 220.261C16.9049 220.149 16.9815 220.07 16.9932 220.07ZM24.9336 204.44C24.5154 206.179 24.2222 207.986 23.6475 209.491C22.9708 211.256 20.9467 212.544 19.1729 212.045C19.2662 213.381 19.4833 214.692 19.8486 215.881C20.0464 215.941 20.244 216.016 20.4395 216.105C20.809 216.274 21.1479 216.465 21.4561 216.674C22.9528 212.567 24.7747 208.582 26.9395 204.793C26.2507 204.848 25.5436 204.738 24.9336 204.44ZM12.4502 214.146C12.2824 214.607 12.1184 215.071 11.958 215.536C12.2955 215.801 12.5798 216.128 12.7793 216.516C12.7807 216.518 12.7818 216.522 12.7832 216.524C12.6395 215.734 12.5342 214.935 12.4502 214.146ZM122.17 171.519C121.225 178.634 120.606 185.76 117.862 192.596C116.182 196.784 114.057 200.742 111.565 204.443C115.912 208.039 120.27 211.601 124.658 215.12C124.748 214.972 124.839 214.825 124.929 214.677C129.875 206.473 133.755 197.686 137.201 188.762C138.286 185.953 139.373 183.123 140.393 180.269C134.646 176.659 129.002 173.029 122.17 171.519ZM334.467 184.36C333.418 185.382 332.548 186.681 331.733 187.835C331.449 188.257 331.16 188.672 330.865 189.085C330.163 189.911 330.041 190.12 330.486 189.716C330.865 189.283 331.064 189.562 331.076 190.549C331.293 191.089 331.538 191.621 331.82 192.137C333.746 195.919 336.635 199.149 340.106 201.583C341.939 202.866 343.939 203.864 345.919 204.885C346.71 205.289 347.666 206.055 348.513 206.221C349.68 206.455 348.832 206.745 350.003 206.062C351.768 205.035 352.98 203.021 354.176 201.037C350.16 199.13 346.186 197.115 342.916 194.11C340.763 192.138 338.77 190.044 336.89 187.812C335.971 186.721 335.209 185.548 334.467 184.36ZM19.3359 199.36C19.1215 199.737 18.9098 200.115 18.7002 200.493C18.765 200.542 18.8283 200.592 18.8906 200.646C19.0301 200.214 19.1764 199.785 19.3359 199.36ZM115.163 170.627C110.276 170.375 105.336 170.768 100.399 171.113C99.7167 177.94 96.9869 184.516 92.8535 190.026C97.3556 193.184 101.818 196.395 106.095 199.904C107.925 197.13 109.516 194.196 110.81 191.113C113.589 184.495 114.276 177.563 115.163 170.627ZM403.906 156.115C402.622 156.65 401.337 157.182 400.075 157.766C397.739 158.849 396.39 160.964 394.387 162.516C390.317 165.663 385.421 167.658 381.236 170.679C376.31 174.239 371.907 178.662 367.17 182.485C363.048 185.818 358.25 188.91 354.519 192.701C356.044 193.489 357.62 194.208 359.177 194.92C359.412 194.597 359.708 194.295 360.072 194.023C364.494 190.728 369.458 188.022 373.462 184.198C376.961 180.864 380.571 177.45 384.764 174.986C389.003 172.494 393.551 170.662 397.705 167.997C401.045 165.855 404.178 163.364 407.559 161.288C405.942 159.878 404.742 158.088 403.906 156.115ZM26.417 188.401C24.9795 190.394 23.6068 192.407 22.3047 194.446C23.4921 193.678 25.3607 193.788 26.4463 194.702C26.6765 192.658 26.496 190.178 26.417 188.401ZM44.0088 174.84C43.8263 175.518 43.6981 176.208 43.5449 176.783C42.9855 178.885 42.4261 181.093 41.1406 182.885C40.5444 183.716 39.5684 184.272 38.5479 184.471C38.4782 185.565 38.3833 186.655 38.2441 187.741C39.292 186.2 40.3671 184.697 41.5039 183.272C42.8811 181.547 44.3795 179.92 45.8711 178.289C45.8196 178.204 45.7703 178.115 45.7236 178.021C45.178 176.93 44.6292 175.859 44.0088 174.84ZM433.926 85.8047C433.741 86.682 433.206 87.5122 432.218 88.126C423.33 93.6432 415.871 100.639 409.26 108.7C402.138 117.388 394.552 125.682 386.716 133.726C382.773 137.768 378.587 141.833 374.736 145.68C370.886 149.526 367.633 153.836 364.362 158.169C357.759 166.909 350.182 174.881 343.099 183.232C343.14 183.281 343.181 183.331 343.224 183.38C343.844 184.09 344.477 184.782 345.122 185.46C345.224 185.315 345.339 185.171 345.467 185.029C353.511 176.156 362.471 168.171 370.495 159.299C378.323 150.645 385.681 141.629 394.154 133.576C398.24 129.686 402.742 126.297 406.866 122.469C411.041 118.593 414.729 114.233 418.543 110.008C425.482 102.329 432.425 94.5251 439.672 87.1025C437.742 86.8223 435.823 86.3944 433.926 85.8047ZM31.7236 181.275C31.2084 181.946 30.6963 182.619 30.1875 183.293C30.6659 183.28 31.1398 183.365 31.5752 183.568C31.636 182.806 31.685 182.042 31.7236 181.275ZM56.4385 156.739C55.659 157.446 54.8527 158.121 54.0322 158.779C54.5849 161.929 54.6975 165.033 54.3916 168.101C56.1385 167.449 58.2696 168.471 59.0361 170.146C59.0507 170.129 59.0655 170.114 59.0801 170.098C60.323 168.73 61.6447 167.487 63.0293 166.34C60.4045 163.437 58.2284 160.196 56.4385 156.739ZM47.4463 163.83C46.6835 164.43 45.9304 165.041 45.1982 165.676C45.6607 165.838 46.0992 166.103 46.4912 166.483C46.7742 166.759 47.0469 167.041 47.3096 167.33C47.4354 166.172 47.4845 165.006 47.4463 163.83ZM410.671 152.399C411.067 153.578 411.716 154.706 412.612 155.478C413.243 156.029 414.067 156.375 414.849 156.618C414.905 156.637 414.963 156.653 415.021 156.67C413.912 154.959 412.511 153.284 410.671 152.399ZM267.471 115.782C267.169 115.875 266.869 115.972 266.57 116.075C262.071 117.409 257.573 118.062 253.147 119.467C253.46 121.25 254.169 123.002 254.6 124.751C255.118 126.848 255.643 128.947 256.166 131.052C256.894 133.981 257.993 136.668 259.058 139.389C259.115 139.377 259.173 139.364 259.231 139.354C264.133 138.544 268.677 135.964 273.393 134.455C273.629 134.386 273.866 134.31 274.102 134.232C274.075 134.17 274.056 134.124 274.045 134.1C272.869 131.623 271.98 128.995 271.051 126.425C270.05 123.653 269.121 120.857 268.285 118.031C268.114 117.455 267.721 116.594 267.471 115.782ZM248.194 131.004C246.363 132.433 244.674 134.129 242.92 135.576C242.754 135.714 242.589 135.852 242.426 135.992C244.702 135.734 246.976 135.466 249.242 135.147C248.992 134.173 248.758 133.195 248.517 132.222C248.417 131.819 248.308 131.413 248.194 131.004ZM262.326 129.686C257.486 128.548 259.252 121.035 264.092 122.172C268.932 123.309 267.16 130.821 262.326 129.686ZM416.083 55.5352C414.632 56.2171 413.277 57.0988 411.775 57.8896C409.415 59.1323 406.941 60.1833 404.528 61.3145C399.22 63.8005 393.869 65.8467 388.307 67.6982C378.531 70.9454 369.411 75.398 360.19 79.9385C350.349 84.7889 340.334 89.4206 330.521 94.2051C320.708 98.9896 311.034 104.051 301.138 108.657C296.486 110.822 291.453 112.223 286.868 114.496C283.447 116.193 280.476 118.527 277.054 120.181C277.543 121.655 278.054 123.122 278.584 124.582C282.886 123.102 287.374 122.219 291.604 120.507C296.686 118.45 301.56 115.703 306.529 113.368C315.982 108.935 325.422 104.361 334.498 99.1982C343.244 94.2292 352.29 90.2351 361.452 85.7734C370.614 81.3118 379.85 77.158 389.172 73.0576C393.688 71.0727 398.054 68.6621 402.659 66.8896C407.271 65.1187 411.452 63.3527 415.785 60.9414L415.787 60.9395C415.794 59.8921 415.832 58.8545 415.894 57.8389C415.94 57.0509 416.002 56.2833 416.083 55.5352ZM471.479 23.166C467.013 25.4365 462.791 28.0447 458.325 30.3428C452.974 33.0963 447.5 35.5832 442.206 38.4561C437.716 40.89 433.349 43.4191 429.359 46.6182C427.349 48.2272 425.121 49.9503 424.338 52.4951C423.61 54.8349 423.549 57.457 423.526 59.8896C423.477 64.827 423.89 69.6486 427.533 73.293C430.781 76.5404 434.617 78.1558 439.07 79.0566C449.365 81.1382 458.518 77.9291 467.307 72.5537C471.667 69.8845 475.74 66.7778 480.053 64.0312C482.401 62.5282 484.51 60.8631 486.722 59.1826C488.269 58.0083 490.009 57.1664 491.587 56.0576C490.352 54.0286 489.253 51.8969 487.902 49.9512C485.962 47.1563 484.021 44.8436 482.506 41.7588C480.743 38.1797 478.858 34.9817 476.452 31.6084C474.547 28.9373 473.07 26.0246 471.479 23.166ZM448.207 64.3486C443.367 63.2114 445.132 55.6968 449.973 56.834C454.813 57.9714 453.041 65.4842 448.207 64.3486ZM463.108 33.2178C463.896 32.1499 465.208 31.5068 466.893 31.9326C470.853 32.9357 475.66 34.3296 478.583 37.3555C480.971 39.8194 481.848 43.5078 482.295 46.8105C483.301 54.1698 478.813 62.3926 470.327 60.9941C462.58 59.7158 454.562 54.9445 454.35 46.2852C454.202 40.4388 457.885 35.1553 463.108 33.2178ZM467.474 40.0957C467.295 40.1311 467.108 40.1575 466.913 40.1709C463.811 40.3804 461.675 43.8234 462.12 46.8486C462.708 50.8452 467.727 52.8242 471.252 53.3154C475.449 53.8983 474.996 48.7365 474.34 46.0186C473.904 44.2182 473.534 42.8962 471.876 41.9385C470.489 41.1354 468.998 40.5628 467.474 40.0957ZM524.936 8.54102C522.517 6.26157 516.323 8.94322 513.72 10.0693C510.166 11.613 506.852 13.8209 503.84 16.2383C500.591 18.8449 496.71 21.5815 494.324 25.0449C492.248 28.059 491.132 31.5162 488.249 33.9443L488.242 33.9434C487.971 34.1713 487.689 34.354 487.402 34.498C487.746 35.1187 488.076 35.742 488.395 36.3652C488.715 36.1999 489.088 36.0746 489.517 36C498.005 34.5186 506.893 31.9025 513.825 26.666C517.735 23.7192 531.331 14.5631 524.936 8.54102Z" fill="#264653"/>
</svg>
