<svg width="626" height="436" viewBox="0 0 626 436" fill="none" xmlns="http://www.w3.org/2000/svg">
<path d="M87.9727 37.9241C89.3143 34.8668 94.4991 33.8025 96.3994 37.7971C106.859 59.7767 118.477 81.158 130.74 102.148C152.542 139.479 176.181 175.629 198.317 212.747C208.894 230.479 218.79 248.554 228.834 266.599C238.613 284.186 249.32 301.609 263.852 315.546C265.55 317.173 265.675 319.351 264.943 321.097C270.287 346.905 257.375 371.634 238.543 388.717C219.744 405.753 196.546 417.636 172.037 425.526C147.528 433.415 121.786 436.774 96.126 435.188C72.2475 433.709 47.3772 427.851 28.085 412.694C10.0595 398.532 -1.85127 376.047 0.237305 352.496L0.225586 352.488C0.364694 350.929 1.08822 349.866 2.06836 349.254C1.3127 348.156 0.980075 346.727 1.45312 345.129C8.12615 322.617 14.7365 300.084 21.2725 277.53C44.2549 198.26 66.3425 118.726 87.5801 38.9514C87.6818 38.5679 87.8146 38.2261 87.9727 37.9241ZM93.3262 52.0989C88.1231 71.5775 82.8704 91.0422 77.5674 110.49C55.8467 190.126 33.2335 269.508 9.77637 348.628C9.49748 349.569 9.03392 350.254 8.46582 350.72C8.97914 351.506 9.25687 352.499 9.15234 353.682C6.93731 378.675 23.3977 401.048 44.1719 412.413C63.3084 422.876 85.5768 426.175 107.035 426.419C130.131 426.678 153.429 422.635 175.194 414.765C196.441 407.092 218.27 395.24 234.209 380.335C246.929 368.441 257.094 351.533 257.363 333.77C218.362 339.691 179.331 345.394 140.269 350.869C138.009 351.187 136.448 349.971 135.733 348.328C135.344 353.51 127.24 354.414 126.819 348.792L125.278 328.019C125.163 326.476 125.691 325.249 126.541 324.385C125.967 321.967 127.038 319.208 130.15 318.953L144.688 317.759C148.233 317.471 152.328 316.546 155.771 317.8C158.735 318.884 160.533 321.26 161.392 324.296C162.32 327.549 160.496 333.052 162.507 335.656C163.179 336.524 163.478 337.428 163.499 338.294C192.074 334.218 220.632 330.021 249.175 325.707C245.076 322.232 240.976 318.757 236.877 315.282C232.425 311.51 237.833 304.155 242.298 307.946C245.379 310.557 248.46 313.169 251.541 315.781C238.624 301.505 228.669 284.902 219.293 267.938C198.218 229.791 175.741 192.907 152.7 155.742C131.734 121.924 111.08 87.8122 93.3262 52.0989ZM577.377 319.737C586.819 313.296 598.491 314.656 607.954 320.304L607.953 320.312C610.215 321.658 610.303 325.358 608.849 327.237C607.084 329.512 604.328 329.468 602.051 328.112C595.669 324.3 586.596 323.868 581.05 329.378C575.894 334.501 575.655 341.705 579.908 347.511C588.726 359.564 606.105 362.68 619.202 357.192C624.977 354.771 628.774 363.874 623.016 366.288C604.444 374.071 576.396 367.873 568.551 346.832C564.861 336.932 568.842 325.56 577.377 319.737ZM467.95 267.153C468.867 260.867 478.506 262.144 477.589 268.438C475.432 283.182 473.275 297.923 471.118 312.663C471.459 312.471 471.807 312.286 472.162 312.108C483.557 306.39 495.324 313.173 502.153 322.717C508.982 332.261 513.108 346.168 505.032 356.272C496.289 367.216 481.511 363.585 470.292 359.565C464.381 357.448 468.137 348.345 474.023 350.458C480.904 352.92 492.2 357.116 497.686 349.73C502.445 343.326 498.535 334.412 494.484 328.741C490.204 322.75 483.374 317.315 475.982 321.226C472.367 323.14 470.016 326.347 468.576 330.038C467.934 334.431 467.291 338.823 466.648 343.215C465.869 348.523 457.077 348.977 457.017 343.258C457.012 342.821 457.013 342.383 457.019 341.945L457.008 341.946C457.012 341.916 457.016 341.886 457.021 341.857C457.082 337.461 457.661 333.017 458.918 328.883C461.928 308.308 464.939 287.738 467.948 267.168L467.95 267.153ZM522.135 353.517C516.01 352.379 517.202 342.627 523.344 343.767C531.817 345.333 540.352 346.395 548.944 346.937C555.178 347.33 553.92 357.081 547.735 356.687C539.143 356.145 530.607 355.091 522.135 353.517ZM33.7324 327.803C39.0212 325.346 42.5583 333.811 37.2979 336.253C31.2004 339.073 26.2559 343.39 22.46 349.019C19.1685 353.905 11.9989 348.343 15.2832 343.478C19.9361 336.581 26.278 331.26 33.7324 327.803ZM416.861 296.946C418.193 290.776 427.882 292.023 426.538 298.233C425.491 303.08 424.622 307.966 423.942 312.877C429.576 313.47 435.158 313.554 440.469 311.84C446.369 309.934 450.202 318.991 444.277 320.903C437.036 323.238 429.989 322.859 422.899 322.058C422.303 328.764 422.066 335.507 422.223 342.256C422.366 348.564 412.717 349.964 412.569 343.622C412.392 336.019 412.615 328.453 413.266 320.93C410.529 320.656 407.772 320.47 404.979 320.5C398.811 320.562 397.39 310.827 403.591 310.761C407.09 310.723 410.678 311.121 414.296 311.609C414.959 306.701 415.811 301.813 416.861 296.946ZM152.105 326.611C150.34 325.51 144.454 326.999 142.307 327.171C139.629 327.393 136.951 327.61 134.272 327.829L135.521 344.663C135.974 343.221 137.112 342.027 139.026 341.758C144.114 341.045 149.201 340.327 154.287 339.607C153.317 337.841 152.877 335.986 152.779 333.77C152.686 331.678 153.871 327.711 152.105 326.611ZM315.629 303.592C319.591 281.379 343.186 268.789 363.379 278.173C366.469 277.436 370.096 279.364 369.199 283.323C365.405 300.039 360.485 323.154 377.005 334.836C382.146 338.474 376.235 346.267 371.101 342.638C362.064 336.249 357.924 327.238 356.534 317.385C355.666 318.618 354.737 319.814 353.737 320.968C346.882 328.883 335.462 335.807 325.233 329.74C316.568 324.604 313.951 313.011 315.629 303.592ZM525.911 323.338C534.871 323.937 543.832 324.527 552.792 325.126C559.023 325.543 557.775 335.29 551.584 334.879C542.624 334.28 533.663 333.69 524.703 333.091C518.472 332.674 519.72 322.927 525.911 323.338ZM256.35 323.365C256.218 323.839 256.02 324.293 255.766 324.71C256.041 324.668 256.316 324.628 256.592 324.586C256.516 324.179 256.437 323.772 256.35 323.365ZM58.4922 305.686C63.9711 303.883 67.5549 312.32 62.0576 314.136C56.7924 315.877 52.1471 318.686 48.4209 322.902L48.4199 322.892C44.5645 327.27 37.3604 321.754 41.2422 317.351C45.982 311.979 51.7291 307.919 58.4922 305.686ZM358.469 286.773C350.114 283.428 340.485 284.456 333.471 290.469C326.724 296.251 322.717 306.844 325.882 315.591C330.177 327.457 341.937 320.221 347.285 313.423C353.317 305.754 356.189 296.233 358.469 286.773ZM121.122 297.029C120.004 291.202 128.924 289.972 130.036 295.758L132.389 308.045C133.506 313.872 124.587 315.102 123.475 309.316L121.122 297.029ZM203.545 290.68C211.274 291.24 218.73 293.49 225.479 297.379C230.465 300.25 227.096 308.791 222.056 305.887C215.897 302.337 209.423 300.318 202.376 299.805C196.595 299.39 197.783 290.263 203.545 290.68ZM93.8496 288.427C96.1812 287.682 98.7241 288.341 99.7695 290.823C100.663 292.936 99.7466 296.132 97.4248 296.876C94.803 297.714 92.1708 298.553 89.5391 299.393C88.4759 299.733 87.369 299.779 86.3799 299.495C86.0781 300.203 85.6128 300.872 85.0498 301.271L82.5439 303.032C81.5022 303.759 80.4158 304.089 79.1689 303.978C77.9942 303.877 76.9564 303.147 76.2197 302.261C75.483 301.375 75.146 299.948 75.2939 298.812C75.4304 297.74 76.0806 296.429 76.9736 295.796L79.4795 294.035C80.5212 293.309 81.6067 292.979 82.8535 293.09C83.1303 293.114 83.3997 293.173 83.6592 293.26C84.0868 292.19 84.8694 291.294 85.9639 290.944C88.5857 290.105 91.2178 289.267 93.8496 288.427ZM160.685 281.874C169.597 281.481 178.171 283.046 186.272 286.928C191.511 289.433 188.11 297.958 182.849 295.436C176.228 292.272 169.244 290.665 161.927 290.986C156.186 291.236 154.904 282.13 160.685 281.874ZM138.034 279.26C143.737 278.138 144.942 287.266 139.277 288.372C132.158 289.769 125.028 291.166 117.908 292.563C112.205 293.685 111.001 284.558 116.666 283.451L138.034 279.26ZM113.234 248.374C112.434 242.502 121.349 241.242 122.148 247.104L125.524 271.858C126.325 277.729 117.41 278.99 116.61 273.128L113.234 248.374ZM273.119 29.385C302.706 9.80488 337.706 -0.68297 373.211 0.0344238C410.33 0.781712 447.467 13.095 477.997 34.8645C536.316 76.4405 569.128 156.466 543.299 225.764C541.711 230.026 536.345 229.702 534.417 226.932L462.637 205.489C377.657 180.099 292.679 154.701 207.699 129.311C205.589 128.682 204.563 127.107 204.382 125.417C201.919 124.83 199.938 122.613 201.078 119.549C214.889 82.4759 240.497 50.9643 273.119 29.385ZM107.823 206.178C106.11 200.57 114.362 196.897 116.09 202.533L120.625 217.348C122.339 222.956 114.086 226.63 112.357 220.993L107.823 206.178ZM383.907 10.3831C376.053 9.72072 368.139 9.59408 360.225 10.0315C354.533 10.3461 348.884 10.9743 343.297 11.9006L344.906 18.0325C345.604 20.692 343.94 23.2168 341.423 23.9612C338.905 24.7055 336.204 22.8432 335.557 20.3606L333.911 14.0901C333.883 13.9819 333.86 13.8735 333.839 13.7659C323.384 16.1552 313.195 19.5821 303.407 23.9338L306.401 30.9827C307.444 33.4314 306.983 36.2679 304.517 37.6311C302.389 38.8072 298.995 38.0881 297.958 35.6497L294.744 28.0803C284.84 33.164 275.414 39.208 266.619 46.0872C268.448 48.3021 269.948 50.8037 271.014 53.468C271.998 55.9402 271.625 58.7338 269.131 60.1125C267.036 61.2633 263.563 60.5959 262.577 58.1321C261.674 55.8791 260.574 53.9801 259.156 52.259C249.032 61.1003 239.885 71.095 231.981 82.0237L235.973 85.0403C238.154 86.6842 238.915 89.3167 237.569 91.7883C236.384 93.9605 232.981 94.8852 230.946 93.345L226.534 90.011C220.428 99.5217 215.238 109.649 211.119 120.265L282.537 141.601C311.477 150.247 340.417 158.895 369.357 167.543C368.92 165.787 368.482 164.032 368.048 162.274C367.378 159.605 369.04 157.089 371.532 156.345C374.025 155.602 376.78 157.454 377.399 159.946L379.261 167.439C379.526 168.497 379.424 169.53 379.05 170.44C431.366 186.073 483.682 201.706 535.998 217.337C539.845 205.351 541.913 192.922 542.354 180.411L535.653 178.388C533.148 177.631 531.639 174.836 532.356 172.306C533.074 169.776 535.813 168.263 538.311 169.017L542.358 170.239C542.03 160.607 540.768 150.986 538.639 141.539C535.068 141.495 531.765 142.327 528.635 144.089C523.216 147.13 518.554 138.513 523.966 135.469C527.724 133.354 531.855 132.115 536.119 131.807C534.22 125.31 531.914 118.925 529.219 112.71C528.207 110.379 527.141 108.08 526.028 105.814C523.951 107.059 521.874 108.304 519.796 109.551C517.553 110.896 514.533 109.958 513.239 107.57C511.946 105.181 512.89 102.263 515.122 100.923L521.439 97.135C517.673 90.506 513.47 84.1905 508.882 78.2112C505.728 81.0858 502.576 83.9594 499.422 86.8362C494.828 91.0271 488.146 83.8712 492.76 79.6692C496.071 76.649 499.38 73.6327 502.691 70.6145C496.216 63.1251 489.108 56.2372 481.486 50.0012C480.227 53.1505 478.758 56.2089 477.082 59.1584C473.978 64.6163 465.729 59.4007 468.83 53.9504C470.683 50.6831 472.207 47.3214 473.443 43.801C463.008 36.2247 451.758 29.7977 439.952 24.6409C439.652 26.9591 438.807 29.2198 437.49 31.095C435.925 33.3281 433.273 34.0336 430.851 32.6555C428.676 31.4114 427.785 27.9759 429.249 25.8909C429.552 25.4633 429.787 25.0151 430.061 24.5706C430.119 24.4064 430.17 24.243 430.218 24.0735C430.285 23.8353 430.406 22.7156 430.407 23.0891C430.419 22.731 430.424 22.3745 430.407 22.012C430.391 21.6023 430.433 21.2095 430.523 20.8372C418.574 16.4037 406.151 13.2421 393.506 11.4631L393.065 18.0051C392.884 20.7498 390.924 22.7448 388.185 22.8108C385.682 22.8716 383.236 20.3625 383.407 17.802L383.907 10.3831ZM102.146 158.107C101.656 152.221 110.577 150.929 111.06 156.836L113.291 183.859C113.781 189.744 104.86 191.036 104.377 185.129L102.146 158.107ZM329.788 68.636C363.033 55.9228 404.679 54.4326 435.475 75.1731C466.658 96.1664 481.663 132.728 489.257 168.433C489.948 171.676 487.691 173.852 485.207 174.289C484.157 175.637 482.451 176.447 480.327 175.884C415.961 158.84 352.445 138.521 290.061 115.001C285.842 113.41 286.096 108.031 288.798 106.086C288.449 104.958 288.479 103.679 289.095 102.38C297.067 85.5468 313.03 75.0447 329.788 68.636ZM377.569 69.2258C361.452 69.5447 344.742 72.7417 329.885 79.0549C316.242 84.8535 303.919 93.6534 297.348 107.447C356.885 129.722 417.434 149.09 478.76 165.467C474.765 148.2 469.164 131.263 460.135 115.943C451.828 101.852 440.55 89.3303 426.527 80.967C411.719 72.1296 394.513 68.8852 377.569 69.2258ZM96.4932 114.739C94.9974 109.027 103.93 107.826 105.406 113.468C107.787 122.562 108.215 131.841 106.809 141.145C105.92 146.989 96.9956 145.815 97.8818 139.95C99.1772 131.385 98.6843 123.106 96.4932 114.739ZM91.0566 74.8792C90.4764 68.9963 99.3891 67.7156 99.9707 73.6086L101.598 90.2004C102.177 96.0829 93.2652 97.3628 92.6836 91.47L91.0566 74.8792Z" fill="#264653"/>
</svg>
