<svg width="197" height="170" viewBox="0 0 197 170" fill="none" xmlns="http://www.w3.org/2000/svg">
<path d="M4.96131 169.67C16.16 169.875 26.5294 164.36 37.1161 161.383C42.5496 159.857 48.0288 158.495 53.3994 156.729C58.7699 154.962 63.6658 151.986 69.0707 150.483C73.326 149.302 71.5186 142.53 67.2462 143.717C61.9957 145.179 57.2486 148.068 52.0782 149.799C46.8849 151.536 41.583 152.869 36.3154 154.337C26.0833 157.179 15.7425 162.857 4.96703 162.658C0.551611 162.576 0.545891 169.594 4.96703 169.676L4.96131 169.67Z" fill="#264653"/>
<path d="M6.71711 165.769C7.97539 159.968 9.50249 154.933 12.7626 149.968C16.0227 145.003 19.3342 139.764 22.0681 134.243C24.802 128.723 27.3415 123.068 30.0811 117.53C32.8264 111.968 36.3725 107.688 40.2789 102.969C43.1157 99.5417 38.2828 94.5534 35.4231 98.0037C31.551 102.688 27.6446 107.021 24.8821 112.518C21.8622 118.524 19.1226 124.676 16.1371 130.699C13.3231 136.384 10.0001 141.571 6.55125 146.857C3.0967 152.144 1.43234 157.746 0.0939858 163.898C-0.861163 168.296 5.75625 170.179 6.71139 165.763L6.71711 165.769Z" fill="#264653"/>
<path d="M34.7992 98.4949C34.1471 101.466 32.7516 104.15 33.7811 107.243C34.7191 110.05 37.1384 111.951 39.7408 113.027C45.8549 115.565 52.2092 113.612 57.4253 109.951L52.3865 105.986C51.1568 110.752 47.3248 115.735 51.7974 120.062C56.7447 124.857 65.2095 125.319 71.5352 124.08L68.8928 117.664C63.1047 121.887 58.615 129.156 58.329 136.553C58.0831 142.933 61.8693 149.161 68.6755 148.74C73.0623 148.465 73.0966 141.448 68.6755 141.723C65.3182 141.933 64.8778 138.36 65.2839 135.565C65.9302 131.109 68.7785 126.331 72.3588 123.723C75.5331 121.407 73.6343 116.542 69.7164 117.308C67.503 117.74 65.1409 117.758 62.9103 117.436C61.4347 117.226 57.3453 116.6 56.5788 115.027C55.9955 113.828 58.5978 109.454 59.0153 107.846C59.736 105.062 56.5331 102.091 53.9765 103.881C50.9681 105.992 47.6622 107.752 43.9045 106.998C42.8636 106.787 40.9533 106.314 40.4157 105.214C39.8209 103.986 41.1535 101.606 41.4337 100.343C42.4003 95.9452 35.7829 94.0681 34.8163 98.4774L34.7992 98.4949Z" fill="#264653"/>
<path d="M17.9098 143.191C21.7133 143.009 24.287 145.992 26.9294 148.384C29.8864 151.062 30.6242 153.67 31.4363 157.559C32.3572 161.974 38.9746 160.103 38.0537 155.694C36.9327 150.313 35.2626 146.582 31.1961 142.887C27.324 139.372 23.4119 135.91 17.9098 136.167C13.5116 136.372 13.4887 143.389 17.9098 143.185V143.191Z" fill="#264653"/>
<path d="M40.2793 102.045C47.3143 96.1206 54.2748 90.0914 61.5957 84.5301C68.9166 78.9687 76.6665 74.2319 83.8215 68.4892C90.9766 62.7466 98.5835 56.9279 106.116 51.3315C113.014 46.2087 119.036 39.8579 126.346 35.3316C130.121 32.9983 126.672 26.9281 122.88 29.2732C115.256 33.9924 108.981 40.5889 101.786 45.9105C94.3396 51.4192 87.013 57.039 79.8008 62.8577C72.5885 68.6764 64.6556 73.4658 57.289 79.1149C49.8022 84.8517 42.6415 91.0095 35.4235 97.0855C32.009 99.9569 36.8934 104.898 40.2793 102.05V102.045Z" fill="#264653"/>
<path d="M70.1455 148.933C78.1413 143.167 86.1313 136.594 93.0576 129.518C96.3406 126.162 99.3833 122.565 102.781 119.325C106.355 115.922 110.267 112.91 114.054 109.764C121.621 103.477 128.455 96.3547 136.011 90.039C143.389 83.8753 151.774 78.6472 158.379 71.5888C161.434 68.3257 156.589 63.3549 153.524 66.6239C147.152 73.4309 139.076 78.4718 131.956 84.4074C124.383 90.7173 117.525 97.8225 109.981 104.144C106.321 107.208 102.54 110.132 99.0058 113.355C95.5398 116.507 92.4799 120.074 89.2427 123.471C82.4823 130.565 74.5895 137.173 66.6737 142.875C63.0934 145.46 66.5193 151.541 70.1397 148.933H70.1455Z" fill="#264653"/>
<path d="M75.7625 121.641C89.3577 110.834 101.866 98.6997 115.581 88.0448C122.073 82.9981 128.559 77.9572 134.541 72.2847C137.361 69.6122 140.358 67.0567 142.926 64.121C145.363 61.3374 147.17 58.0158 150.093 55.7059C151.568 54.5363 151.271 51.9749 150.093 50.741C148.663 49.2439 146.695 49.589 145.237 50.741C142.417 52.9691 140.65 56.1269 138.345 58.8404C135.731 61.9222 132.597 64.5479 129.686 67.3198C123.634 73.0742 117.046 78.1385 110.48 83.2554C96.8616 93.8752 84.4218 105.934 70.9067 116.676C67.4236 119.448 72.3137 124.378 75.7625 121.641Z" fill="#264653"/>
<path d="M59.2676 110.273C73.8636 100.314 86.6352 87.8109 100.871 77.3255C107.62 72.3548 114.409 67.349 120.397 61.4192C123.377 58.4719 126.185 55.3783 129.365 52.6532C132.385 50.0626 134.839 46.7293 138.002 44.3316C141.513 41.6708 138.093 35.5773 134.536 38.2732C131.361 40.6825 128.936 43.7878 125.985 46.4427C123.017 49.1152 120.117 51.7526 117.326 54.6356C111.263 60.9046 104.377 66.1209 97.3992 71.2613C90.4214 76.4016 83.7297 81.6705 77.1523 87.2553C70.2089 93.1441 63.3112 99.0856 55.8016 104.208C52.1468 106.705 55.5785 112.781 59.2676 110.267V110.273Z" fill="#264653"/>
<path d="M123.92 34.0043C127.964 36.0277 132.471 37.0452 136.131 39.8113C139.437 42.3083 141.999 45.7118 144.561 48.9515C147.124 52.1913 149.12 55.5129 151.07 59.1561C152.563 61.9339 155.817 65.0099 155.886 68.314C155.983 72.8227 162.847 72.8403 162.749 68.314C162.652 63.7877 159.918 60.4719 157.716 56.8521C155.354 52.9808 153.392 49.1211 150.601 45.5013C147.81 41.8814 144.75 37.8814 141.044 34.8756C136.88 31.4955 132.064 30.2792 127.386 27.9458C123.434 25.9692 119.951 32.0218 123.92 34.0043Z" fill="#264653"/>
<path d="M128.633 32.5071C132.065 31.7586 134.81 28.9925 137.189 26.5189C140.135 23.4604 143.109 20.7177 146.484 18.1271C150.321 15.1798 154.142 12.1038 158.592 10.1856C162.773 8.38449 167.308 7.44882 171.826 7.24415C175.927 7.06286 179.428 7.77046 182.573 10.6301C185.404 13.2032 187.366 16.6593 188.218 20.4195C189.116 24.4019 189.602 28.8931 188.842 32.9399C187.967 37.5831 185.296 41.2264 182.104 44.5246C178.633 48.1035 174.709 51.1971 171.117 54.6415C168.257 57.3783 164.997 61.1561 161.011 62.0157C156.693 62.9455 158.517 69.7116 162.835 68.7817C167.154 67.8519 170.654 64.5888 173.777 61.6941C177.437 58.2964 181.183 54.9982 184.821 51.583C188.67 47.969 192.239 43.9106 194.235 38.9048C196.071 34.2966 196.317 29.2966 195.751 24.4019C194.664 15.057 190.718 5.88158 181.795 1.84652C172.873 -2.18854 160.433 0.992728 152.174 5.60088C146.764 8.61841 141.622 12.8874 136.932 16.9575C133.901 19.5891 130.887 24.8464 126.831 25.7352C122.513 26.6826 124.344 33.4486 128.656 32.5013L128.633 32.5071Z" fill="#264653"/>
<path d="M140.798 21.1155C148.926 23.3143 153.753 30.3844 159.884 35.6943C163.219 38.5832 165.535 41.5832 167.451 45.6007C169.316 49.5129 170.791 53.5948 172.936 57.3667C175.081 61.1386 181.092 57.7409 178.861 53.8228C176.631 49.9047 175.052 45.4252 173.005 41.2849C170.768 36.7645 167.794 33.4721 164.105 30.168C157.293 24.0687 151.774 16.8172 142.629 14.3436C138.356 13.1857 136.532 19.9576 140.804 21.1096L140.798 21.1155Z" fill="#264653"/>
<path d="M168.188 61.9572C167.651 55.8461 170.585 49.9631 171.294 43.9515C171.82 39.4778 164.951 39.5188 164.431 43.9515C163.71 50.0567 160.77 55.6707 161.325 61.9572C161.72 66.4192 168.583 66.4601 168.188 61.9572Z" fill="#264653"/>
<path d="M160.039 55.7408C160.897 50.2964 163.322 45.2906 164.186 39.852C164.883 35.4368 158.272 33.5304 157.568 37.9865C156.705 43.4251 154.28 48.4309 153.422 53.8753C152.724 58.2905 159.336 60.1969 160.039 55.7408Z" fill="#264653"/>
<path d="M152.787 46.4719C153.971 43.5188 154.119 40.3199 154.857 37.2439C155.755 33.4837 157.093 29.8522 157.968 26.0803C158.987 21.6885 152.375 19.8172 151.351 24.2148C150.476 27.9809 149.143 31.6183 148.24 35.3785C147.502 38.4545 147.353 41.6533 146.169 44.6065C144.493 48.7819 151.134 50.6006 152.787 46.4719Z" fill="#264653"/>
<path d="M144.156 39.1036C145.671 36.0919 146.014 32.9048 146.363 29.5773C146.769 25.7469 147.479 21.9341 148.125 18.1388C148.874 13.7236 142.262 11.8231 141.507 16.2733C140.895 19.8756 140.289 23.4838 139.797 27.1095C139.42 29.8873 139.511 33.0217 138.23 35.5597C136.211 39.5714 142.131 43.1211 144.156 39.1036Z" fill="#264653"/>
</svg>
