<svg width="394" height="276" viewBox="0 0 394 276" fill="none" xmlns="http://www.w3.org/2000/svg">
<path d="M9.3428 174.271C94.3227 199.66 179.3 225.058 264.28 250.448L336.467 272.014C342.405 273.793 345.066 264.511 339.118 262.738C254.138 237.348 169.161 211.951 84.1806 186.561L11.9942 164.995C6.0562 163.216 3.39493 172.497 9.3428 174.271Z" fill="#264653"/>
<path d="M11.9722 167.302C35.2767 104.751 95.7086 58.6477 161.869 54.9909C232.016 51.114 302.137 91.4726 330.862 157.67C345.926 192.399 348.927 232.421 335.693 267.931C333.51 273.799 342.769 276.56 344.943 270.724C370.772 201.426 337.96 121.4 279.641 79.8243C249.111 58.0548 211.974 45.7415 174.855 44.9942C139.35 44.2768 104.35 54.7641 74.7629 74.3442C42.1402 95.9235 16.5334 127.436 2.72206 164.509C0.539219 170.376 9.79817 173.138 11.9722 167.302Z" fill="#264653"/>
<path d="M169.691 207.233C170.309 209.732 170.936 212.226 171.553 214.726C172.17 217.225 174.928 219.07 177.42 218.327C179.913 217.583 181.574 215.066 180.904 212.398L179.042 204.905C178.423 202.413 175.668 200.561 173.175 201.304C170.683 202.048 169.021 204.564 169.691 207.233Z" fill="#264653"/>
<path d="M91.7039 159.96C154.089 183.48 217.604 203.8 281.97 220.844C287.949 222.428 290.632 213.144 284.622 211.551C220.261 194.517 156.748 174.189 94.3558 150.667C88.5414 148.477 85.9203 157.779 91.7039 159.96Z" fill="#264653"/>
<path d="M98.9392 152.515C105.498 138.659 117.849 129.828 131.528 124.015C146.385 117.701 163.094 114.504 179.212 114.185C196.156 113.844 213.363 117.088 228.171 125.926C242.193 134.289 253.471 146.812 261.778 160.902C271.727 177.783 277.514 196.626 281.577 215.71C282.882 221.871 292.213 219.555 290.901 213.392C283.307 177.687 268.302 141.126 237.118 120.132C206.322 99.3917 164.676 100.882 131.431 113.595C114.672 120.004 98.7099 130.506 90.7378 147.339C88.0882 152.933 96.2763 158.156 98.9469 152.517L98.9392 152.515Z" fill="#264653"/>
<path d="M27.4424 134.415L32.5894 138.305C34.6242 139.845 38.0277 138.92 39.2129 136.748C40.5585 134.276 39.7968 131.643 37.6155 129.999L32.4685 126.109C30.4337 124.569 27.0302 125.494 25.8449 127.666C24.4994 130.138 25.2611 132.771 27.4424 134.415Z" fill="#264653"/>
<path d="M58.0659 94.4354C60.9123 96.9011 62.8063 99.5632 64.2202 103.091C65.2065 105.556 68.6799 106.223 70.7744 105.072C73.2687 103.693 73.6411 100.9 72.657 98.4278C71.0188 94.3308 68.3595 90.6134 65.0414 87.7419C63.0491 86.0185 60.2528 85.5644 58.2267 87.5093C56.501 89.1627 56.068 92.7019 58.0659 94.4354Z" fill="#264653"/>
<path d="M94.8183 69.3446L99.602 80.6089C100.639 83.0474 104.033 83.7668 106.161 82.5905C108.627 81.2274 109.087 78.3909 108.045 75.9422L103.261 64.678C102.224 62.2394 98.8303 61.52 96.7022 62.6963C94.2361 64.0594 93.7762 66.8959 94.8183 69.3446Z" fill="#264653"/>
<path d="M135.554 59.0493L137.2 65.3199C137.847 67.8026 140.549 69.6648 143.066 68.9205C145.584 68.1762 147.247 65.6517 146.55 62.9922L144.904 56.7216C144.257 54.2389 141.556 52.3767 139.038 53.121C136.52 53.8653 134.857 56.3897 135.554 59.0493Z" fill="#264653"/>
<path d="M185.585 54.8311L185.05 62.7618C184.879 65.3224 187.325 67.8312 189.828 67.7703C192.567 67.7043 194.527 65.7093 194.708 62.9646L195.243 55.0339C195.415 52.4734 192.969 49.9645 190.466 50.0254C187.727 50.0915 185.767 52.0865 185.585 54.8311Z" fill="#264653"/>
<path d="M232.051 66.9713C232.072 67.4288 232.063 67.877 232.043 68.3306C232.088 67.3144 231.939 68.7586 231.861 69.0329C231.799 69.2524 231.739 69.4641 231.654 69.6765C231.86 69.2453 231.885 69.1849 231.718 69.5088C231.439 69.9605 231.2 70.4161 230.892 70.8507C229.428 72.9358 230.319 76.3704 232.494 77.6146C234.916 78.993 237.568 78.2879 239.134 76.0545C240.908 73.527 241.831 70.2999 241.71 67.1741C241.604 64.6148 239.628 62.1034 236.932 62.1654C234.429 62.2263 231.94 64.2231 232.051 66.9713Z" fill="#264653"/>
<path d="M276.058 85.7709C274.679 90.3958 272.845 94.7297 270.473 98.9102C267.372 104.361 275.621 109.576 278.725 104.118C281.512 99.2111 283.737 94.007 285.353 88.5766C287.148 82.5446 277.856 79.7311 276.058 85.7709Z" fill="#264653"/>
<path d="M306.758 113.367C302.639 117.124 298.522 120.872 294.403 124.629C289.789 128.831 296.471 135.986 301.065 131.795C305.184 128.039 309.301 124.29 313.419 120.534C318.034 116.332 311.352 109.176 306.758 113.367Z" fill="#264653"/>
<path d="M326.372 140.123L316.766 145.882C314.533 147.222 313.589 150.141 314.883 152.529C316.176 154.917 319.197 155.856 321.44 154.51C324.643 152.588 327.843 150.674 331.046 148.752C333.278 147.412 334.223 144.493 332.929 142.105C331.636 139.716 328.615 138.778 326.372 140.123Z" fill="#264653"/>
<path d="M340.798 176.704C335.467 176.537 330.254 177.815 325.609 180.429C320.198 183.472 324.86 192.09 330.279 189.048C333.528 187.22 336.964 186.389 340.692 186.505C346.886 186.704 347.014 176.91 340.795 176.712L340.798 176.704Z" fill="#264653"/>
<path d="M348.334 216.507L339.954 213.976C337.456 213.222 334.718 214.735 334 217.265C333.283 219.796 334.791 222.591 337.297 223.348L345.677 225.878C348.175 226.632 350.914 225.119 351.631 222.589C352.349 220.059 350.84 217.263 348.334 216.507Z" fill="#264653"/>
</svg>
