<svg width="400" height="394" viewBox="0 0 400 394" fill="none" xmlns="http://www.w3.org/2000/svg">
<path d="M53.3135 127.099C42.7935 129.749 35.0135 138.729 28.1335 146.559C20.5635 155.169 13.0135 163.549 8.70351 174.349C3.70351 186.869 2.90351 201.529 1.72351 214.849C0.433509 229.459 -0.0464911 244.149 0.00350888 258.819C0.0835089 283.359 4.20351 308.709 14.9435 330.939C20.3535 342.149 26.0235 353.969 33.7235 363.799C41.4235 373.629 50.6935 379.539 61.5835 384.139C73.9735 389.379 86.9135 392.479 100.344 393.389C113.044 394.249 127.454 393.889 139.674 389.969C151.014 386.329 162.864 379.409 171.614 371.299C179.974 363.549 185.174 352.829 189.534 342.479C200.114 317.369 209.094 292.079 208.474 264.469C207.874 237.819 203.334 210.159 192.594 185.619C181.984 161.399 163.424 139.039 138.984 128.069C124.894 121.739 109.954 118.009 94.5635 116.689C86.8035 116.029 78.9835 116.029 71.2135 116.629C63.9835 117.189 57.8635 119.339 51.0535 121.659C43.7835 124.129 46.9035 135.729 54.2435 133.229C59.2935 131.509 64.0635 129.349 69.4135 128.779C75.9535 128.089 82.6335 128.029 89.2035 128.339C101.184 128.899 113.014 131.139 124.354 135.059C145.914 142.529 162.364 157.139 174.264 176.459C186.663 196.589 192.604 220.729 195.164 244.049C196.564 256.799 197.374 270.029 195.784 282.799C194.334 294.529 190.804 305.949 186.754 317.009C182.944 327.419 179.044 338.039 173.864 347.859C168.684 357.679 162.174 364.269 152.834 370.199C142.194 376.949 131.764 380.279 119.224 381.259C106.684 382.239 94.4935 381.559 82.5035 378.599C72.3435 376.089 61.9035 372.239 53.2935 366.159C43.8235 359.479 38.0735 349.489 32.8535 339.409C27.7835 329.629 22.6835 320.099 19.3935 309.539C15.8935 298.289 13.7135 286.629 12.7135 274.899C11.5535 261.279 11.9235 247.519 12.5135 233.879C13.1435 219.179 14.3835 204.459 16.9135 189.969C19.0435 177.789 24.6635 168.459 32.8335 159.339C39.3535 152.069 46.5235 141.179 56.5235 138.659C64.0035 136.779 60.8335 125.199 53.3335 127.089L53.3135 127.099Z" fill="#F7F7F7"/>
<path d="M70.9033 162.119C67.6033 164.309 65.7333 167.029 64.4533 170.739C63.0133 174.909 61.3033 178.579 59.1433 182.449C54.5133 190.749 49.3633 198.829 47.3333 208.249C45.3033 217.669 45.3033 226.839 45.4833 236.149C45.6633 245.459 45.4833 255.029 46.5833 264.389C48.7133 282.499 53.8533 301.059 62.0333 317.399C69.7533 332.829 82.2733 344.839 97.7233 352.479C105.423 356.289 113.983 358.979 122.663 358.119C130.523 357.349 138.383 353.909 145.133 349.909C158.653 341.909 167.163 329.549 171.763 314.719C182.363 280.559 181.833 241.279 167.113 208.429C159.003 190.339 146.033 172.419 129.383 161.299C121.173 155.809 111.643 152.569 101.873 151.379C92.1033 150.189 80.7233 150.459 71.8133 154.899C64.9033 158.339 70.9733 168.699 77.8733 165.259C84.2033 162.109 93.3933 162.419 100.243 163.189C107.913 164.049 115.403 166.649 121.933 170.759C135.113 179.039 145.353 192.799 152.693 206.289C167.563 233.639 170.033 267.039 163.863 297.199C161.113 310.629 157.323 324.259 146.913 333.819C137.123 342.799 123.083 348.839 109.993 344.659C79.1433 334.819 66.5233 303.909 60.3733 274.849C58.4533 265.799 57.8433 256.779 57.7333 247.549C57.6233 238.319 57.0333 228.669 57.8033 219.249C58.5733 209.829 61.8533 202.039 66.5133 193.859C68.6333 190.129 70.8133 186.419 72.7233 182.579C73.6233 180.789 74.4233 178.969 75.0833 177.079C75.5633 175.699 75.6533 173.389 76.9633 172.509C83.3633 168.249 77.3633 157.849 70.9033 162.149V162.119Z" fill="#F7F7F7"/>
<path d="M84.6037 212.269C73.6537 232.739 79.1437 253.929 86.1237 274.719C91.9337 292.009 101.894 308.299 120.854 312.929C129.704 315.089 139.584 313.719 145.754 306.489C152.224 298.899 153.104 288.609 153.574 279.059C154.604 257.999 150.764 235.379 140.344 216.829C135.404 208.039 127.984 200.609 117.714 198.829C112.154 197.869 106.014 197.389 100.644 199.389C94.5437 201.659 89.6537 206.309 84.4837 210.109C78.3337 214.639 84.3137 225.059 90.5437 220.469C93.9637 217.949 97.2037 215.179 100.754 212.849C104.804 210.189 108.174 209.809 112.924 210.269C120.264 210.979 125.144 214.899 128.924 221.079C137.574 235.229 141.274 252.969 141.714 269.379C142.024 280.879 142.924 304.729 125.374 301.639C110.804 299.079 102.864 286.389 98.3637 273.499C92.1537 255.729 85.4337 236.109 94.9537 218.319C98.5937 211.509 88.2437 205.439 84.5937 212.259L84.6037 212.269Z" fill="#F7F7F7"/>
<path d="M132.964 183.319C150.744 163.979 164.754 141.649 181.714 121.649C190.244 111.589 197.494 100.759 205.484 90.2993C213.474 79.8393 221.054 68.6193 229.864 58.7893C235.014 53.0593 226.554 44.5393 221.374 50.2993C212.594 60.0893 205.294 71.1893 197.194 81.5293C189.014 91.9693 181.824 103.019 173.224 113.159C156.254 133.159 142.244 155.489 124.474 174.829C119.254 180.509 127.724 189.019 132.964 183.319Z" fill="#F7F7F7"/>
<path d="M142.763 225.829C148.063 225.509 152.503 223.099 157.323 221.119C163.663 218.509 169.983 215.709 176.373 213.209C189.603 208.039 203.633 204.729 217.083 200.099C230.823 195.359 244.513 190.429 258.433 186.199C269.843 182.739 282.083 181.319 292.523 175.199C299.183 171.289 293.143 160.919 286.463 164.839C276.523 170.679 264.293 171.829 253.393 175.199C240.113 179.299 227.033 183.999 213.893 188.529C200.753 193.059 187.713 196.299 174.943 200.979C168.413 203.369 162.163 206.469 155.663 208.949C151.643 210.489 147.123 213.569 142.763 213.829C135.093 214.289 135.033 226.289 142.763 225.829Z" fill="#F7F7F7"/>
<path d="M133.924 258.669C140.674 260.589 147.254 258.949 154.064 258.479C162.564 257.889 171.154 258.089 179.674 257.709C196.664 256.959 213.694 256.889 230.644 255.419C247.594 253.949 264.174 251.669 281.014 250.589C289.254 250.059 297.524 249.949 305.784 249.729C312.814 249.539 320.014 250.279 326.854 248.259C334.244 246.079 331.094 234.489 323.664 236.689C317.384 238.539 310.374 237.589 303.894 237.809C295.944 238.069 287.994 238.129 280.054 238.659C263.544 239.749 247.134 241.989 230.654 243.419C214.174 244.849 197.984 244.939 181.654 245.629C173.324 245.979 164.994 246.059 156.664 246.359C150.344 246.589 143.314 248.859 137.124 247.099C129.684 244.979 126.504 256.559 133.934 258.669H133.924Z" fill="#F7F7F7"/>
<path d="M123.544 153.409C114.594 165.349 108.984 177.699 107.804 192.699C107.584 195.459 109.844 197.629 112.204 198.489C123.414 202.539 136.674 194.329 146.844 190.389C153.074 187.979 158.124 183.669 155.924 176.329C153.724 168.989 148.464 162.059 143.804 156.339C132.714 142.749 123.454 167.169 119.514 175.199C117.434 179.429 114.084 185.539 117.584 189.919C121.504 194.829 128.794 191.679 133.474 189.769C139.354 187.379 146.054 183.889 146.074 176.589C146.084 172.679 144.084 169.019 141.584 166.119C140.544 164.909 138.804 163.799 138.124 162.319C137.264 160.469 137.614 157.479 137.424 155.519C136.674 147.899 124.674 147.829 125.424 155.519C126.064 161.999 126.074 167.179 130.774 172.179C131.644 173.109 132.484 174.189 133.354 175.069C133.694 175.539 133.954 176.059 134.114 176.629C134.444 175.839 134.454 175.649 134.144 176.049C133.204 177.229 131.214 177.809 129.834 178.379C127.924 179.179 124.924 179.509 123.244 180.569C123.164 180.619 129.334 184.189 128.024 185.749C128.414 185.279 128.514 184.209 128.734 183.639C130.314 179.709 132.564 175.839 134.524 172.089C135.344 170.519 136.184 168.969 137.044 167.429C137.454 166.689 139.384 164.189 139.454 163.309C134.704 162.029 133.024 162.159 134.394 163.699C134.764 164.129 135.094 164.589 135.404 165.079C136.324 166.329 137.244 167.599 138.134 168.879C140.044 171.629 141.904 174.469 143.394 177.469C143.874 178.319 144.264 179.209 144.564 180.139L145.204 178.079C145.204 178.079 142.794 179.119 142.524 179.229C138.204 180.959 133.954 182.889 129.594 184.519C125.234 186.149 119.844 188.529 115.384 186.919L119.784 192.709C120.784 179.899 126.294 169.609 133.884 159.479C138.514 153.299 128.104 147.309 123.524 153.419L123.544 153.409Z" fill="#F7F7F7"/>
<path d="M153.274 197.879C154.334 201.859 154.324 205.999 155.144 210.029C156.024 214.359 157.634 218.519 158.654 222.809L162.844 215.43C155.374 216.88 147.734 216.749 140.384 218.889C133.754 220.819 127.504 223.859 121.224 226.669C123.644 229.809 126.074 232.95 128.494 236.09C133.954 229.3 140.734 224.09 147.434 218.62C150.434 216.17 153.254 213.199 156.554 211.139C160.024 208.969 163.524 207.78 166.394 204.71C170.314 200.52 166.504 192.79 160.554 194.68C153.994 196.77 147.704 202.559 143.904 208.189C139.574 214.609 149.964 220.619 154.264 214.249C156.204 211.369 160.394 207.32 163.744 206.26L157.904 196.23C155.234 199.09 151.134 200.2 148.014 202.57C144.894 204.94 141.994 207.649 138.944 210.139C132.244 215.609 125.464 220.819 120.004 227.609C115.674 232.989 120.914 239.879 127.274 237.029C133.154 234.389 138.964 231.609 145.234 229.999C152.034 228.249 159.144 228.34 166.024 227.01C169.284 226.38 170.914 222.59 170.214 219.629C169.194 215.329 167.554 211.18 166.704 206.85C165.904 202.81 165.894 198.699 164.834 194.699C162.854 187.239 151.274 190.409 153.264 197.889L153.274 197.879Z" fill="#F7F7F7"/>
<path d="M127.964 263.049C135.454 266.699 143.504 268.919 151.424 271.429C155.604 272.749 159.344 272.869 163.634 273.279C165.934 273.499 168.154 274.139 170.454 274.529C183.894 276.799 182.714 262.249 181.584 253.109C181.094 249.189 180.814 244.249 178.614 240.789C175.554 235.969 169.484 236.449 164.614 237.429C159.464 238.469 154.634 240.589 149.554 241.859C141.094 243.989 132.574 245.669 124.184 248.119C119.184 249.579 118.334 256.389 122.754 259.089C136.074 267.219 155.504 270.099 170.624 266.389C178.124 264.549 174.944 252.969 167.434 254.819C155.404 257.779 139.374 255.179 128.814 248.729L127.384 259.699C137.974 256.609 148.874 254.769 159.374 251.389C161.444 250.719 163.514 250.059 165.624 249.519C165.814 249.469 170.494 248.759 170.514 248.729C169.394 250.879 167.674 243.609 168.674 248.229C169.024 249.869 169.374 251.499 169.604 253.159C170.084 256.669 170.534 260.469 170.194 264.009C170.164 264.369 170.034 264.899 170.094 265.109C170.044 265.409 169.964 265.709 169.864 265.999L173.884 262.949C173.844 262.799 168.894 261.939 168.454 261.849C166.244 261.419 164.044 261.369 161.814 261.239C158.404 261.039 155.534 260.149 152.304 259.119C146.164 257.159 139.854 255.549 134.044 252.709C127.134 249.339 121.044 259.679 127.984 263.069L127.964 263.049Z" fill="#F7F7F7"/>
<path d="M229.673 48.5793C227.873 44.8993 226.493 40.9993 224.803 37.2593C223.893 35.2393 223.753 35.5593 224.153 33.7593C224.553 31.9593 226.123 30.0293 227.073 28.5293C229.183 25.2093 231.683 22.1793 233.923 18.9593C235.973 16.0093 237.473 12.7093 240.093 10.1993L230.063 7.54935C232.313 15.2293 228.143 26.7693 236.903 32.1393C241.833 35.1693 247.253 32.8593 251.863 30.3893C257.983 27.0993 264.133 24.4493 270.523 21.6993L261.713 14.9193C256.693 27.0393 248.973 38.0293 244.523 50.3593C244.383 50.7593 243.163 53.1593 244.213 52.2393C245.023 51.5393 243.833 52.1293 243.163 52.1193C241.033 52.0693 238.813 52.1693 236.673 52.2493C230.153 52.5093 223.723 54.0193 217.233 54.6393C209.613 55.3693 209.533 67.3793 217.233 66.6394C224.933 65.8994 232.083 64.3193 239.623 64.2193C244.673 64.1493 250.353 64.1693 253.493 59.5493C255.093 57.1993 255.663 54.3393 256.763 51.7693C258.303 48.1793 260.253 44.7293 262.063 41.2593C266.043 33.6393 269.973 26.0493 273.263 18.0993C275.533 12.6193 268.563 9.54935 264.453 11.3193C259.603 13.4093 254.563 15.0393 249.943 17.6293C248.183 18.6193 246.483 19.7293 244.653 20.6193C243.943 20.9593 242.633 21.6993 241.783 21.7193C241.873 21.7193 243.343 22.0093 243.343 21.9893C243.283 19.3993 242.533 16.5793 242.463 13.8793C242.383 10.7293 242.503 7.40934 241.603 4.34934C240.323 -0.0406551 234.853 -1.44066 231.573 1.69934C228.033 5.07934 225.943 9.49934 223.133 13.4393C219.993 17.8493 216.563 22.0193 214.153 26.8993C212.163 30.9293 211.043 34.7093 212.493 39.1093C214.193 44.2793 216.893 49.7093 219.283 54.6093C222.673 61.5493 233.023 55.4693 229.643 48.5493L229.673 48.5793Z" fill="#F7F7F7"/>
<path d="M290.734 169.799C291.574 166.219 292.954 162.779 293.684 159.179C293.834 158.439 293.854 156.599 294.254 155.889C294.184 156.019 292.314 157.879 294.814 155.649C297.314 153.419 301.504 151.769 304.564 150.139C307.624 148.509 310.694 146.959 313.744 145.349C318.014 143.109 322.064 140.559 326.274 138.229C328.304 137.109 330.444 135.839 332.694 135.219C332.284 135.329 335.104 134.479 334.874 134.799C332.834 134.229 331.874 133.149 332.014 131.579C332.054 130.659 331.994 130.669 331.824 131.599C330.004 133.659 328.534 137.929 327.324 140.479C325.724 143.859 324.384 147.789 326.354 151.349C328.704 155.589 334.024 156.189 338.354 156.469C343.754 156.809 348.644 157.829 353.934 159.109C352.734 156.169 351.544 153.229 350.344 150.299C348.094 155.259 341.344 157.529 336.814 159.839C330.214 163.199 325.374 169.049 318.814 172.389C315.664 173.989 308.094 177.819 304.804 177.089C303.154 176.719 300.974 173.459 299.684 172.089C297.544 169.809 295.294 167.659 292.484 166.209C285.634 162.679 279.554 173.029 286.424 176.569C292.454 179.669 295.044 187.069 302.134 188.759C308.784 190.339 317.024 186.289 322.944 183.649C330.544 180.269 335.964 173.689 343.364 169.959C349.714 166.749 357.584 163.249 360.704 156.359C362.234 152.989 361.204 148.529 357.114 147.549C350.774 146.019 344.804 144.989 338.344 144.479C338.064 144.459 335.664 144.129 335.654 144.129C335.674 144.109 337.384 147.679 337.294 147.689C337.384 147.689 339.514 143.029 339.644 142.789C341.554 139.269 343.954 135.399 343.874 131.239C343.774 126.079 339.324 122.819 334.424 122.829C329.004 122.829 323.634 125.919 319.074 128.519C313.894 131.469 308.784 134.419 303.494 137.169C297.534 140.259 289.754 143.129 285.084 148.099C283.304 149.989 282.794 152.219 282.314 154.679C281.524 158.739 280.084 162.599 279.134 166.619C277.364 174.129 288.934 177.339 290.704 169.809L290.734 169.799Z" fill="#F7F7F7"/>
<path d="M326.773 247.169C329.393 244.339 330.793 241.189 332.303 237.699C332.953 236.199 333.613 234.709 334.383 233.269C334.583 232.889 335.973 231.149 335.373 231.529C336.943 230.549 340.303 230.889 342.073 230.799C344.653 230.659 347.243 230.629 349.833 230.649C355.013 230.689 360.193 230.989 365.373 231.189C370.183 231.379 374.993 231.289 379.803 231.369C382.013 231.409 384.773 232.039 386.933 231.719C390.503 232.799 391.053 230.539 388.563 224.949C388.143 225.349 387.673 225.679 387.143 225.929C381.423 228.409 373.973 230.939 369.703 235.609C367.363 238.169 367.553 241.499 369.703 244.099C372.243 247.169 375.673 248.889 379.293 250.349C382.413 251.609 386.093 252.339 388.473 254.849L389.683 245.429C385.623 248.499 380.283 248.509 375.433 249.259C369.013 250.249 362.363 251.259 356.113 253.029C352.203 254.139 345.793 257.879 342.223 254.979C338.653 252.079 336.883 247.969 332.363 245.899C325.393 242.709 319.283 253.049 326.303 256.259C331.003 258.409 333.013 263.909 337.603 266.449C343.533 269.729 350.583 267.369 356.543 265.469C363.663 263.199 371.243 261.979 378.623 260.839C384.563 259.919 390.763 259.569 395.743 255.799C398.833 253.459 399.863 249.439 396.953 246.379C391.773 240.919 382.813 241.239 378.183 235.619V244.109C383.653 238.129 396.073 238.949 399.073 230.179C403.383 217.579 379.853 219.379 373.493 219.369C360.473 219.359 346.843 217.139 333.943 219.599C329.753 220.399 326.693 222.599 324.533 226.259C322.243 230.139 321.383 235.359 318.303 238.689C313.063 244.349 321.533 252.859 326.793 247.179L326.773 247.169Z" fill="#F7F7F7"/>
<path d="M236.393 55.6895C236.613 54.8595 236.763 54.0095 236.923 53.1695C237.003 52.7595 237.083 52.3495 237.183 51.9395C237.283 51.5295 237.883 49.9595 237.143 51.6895C237.803 50.1395 238.213 48.7595 237.743 47.0695C237.363 45.6795 236.283 44.1695 234.983 43.4795C233.593 42.7395 231.903 42.3795 230.363 42.8795C228.983 43.3295 227.373 44.2395 226.773 45.6395C226.173 47.0395 225.693 48.2195 225.413 49.6295C225.223 50.5895 225.063 51.5595 224.813 52.4995C224.003 55.5295 225.833 59.1595 229.003 59.8795C232.173 60.5995 235.513 58.9295 236.383 55.6895H236.393Z" fill="#F7F7F7"/>
<path d="M288.573 175.569C294.393 176.209 300.633 174.829 306.013 172.639C309.013 171.419 311.133 168.649 310.203 165.259C309.423 162.419 305.843 159.839 302.823 161.069C298.293 162.919 293.483 164.109 288.573 163.569C285.343 163.209 282.573 166.579 282.573 169.569C282.573 173.109 285.333 175.209 288.573 175.569Z" fill="#F7F7F7"/>
<path d="M328.874 252.099C333.574 251.999 338.204 251.099 342.914 251.189C350.634 251.339 350.634 239.339 342.914 239.189C338.214 239.099 333.574 239.999 328.874 240.099C321.164 240.259 321.134 252.259 328.874 252.099Z" fill="#F7F7F7"/>
</svg>
